<svg width="662" height="713" viewBox="0 0 662 713" fill="none" xmlns="http://www.w3.org/2000/svg">
<g clip-path="url(#clip0_245_263)">
<path d="M569.473 329.891C569.473 329.891 594.956 395.707 662 385.209C611.076 372.354 590.253 309.709 590.317 306.71C590.381 303.711 569.473 329.891 569.473 329.891Z" fill="white"/>
<path d="M594.057 276.438C552.86 155.562 574.966 182.428 557.542 141.465C540.118 100.501 528.06 44.7767 445.645 38.7351C363.229 32.6935 372.615 -2.22814 292.872 15.8968C213.129 34.0217 314.977 41.4131 314.977 41.4131C314.977 41.4131 235.256 47.8404 133.749 26.6518C61.3814 12.5546 61.3814 61.8948 21.1678 78.0701C-19.0458 94.2454 -86.3678 129.488 -69.2861 272.474C-52.2044 415.46 -3.01165 462.829 12.1246 498.072C27.2608 533.315 60.3766 646.135 57.3622 695.496C97.5972 713.557 147.816 723.712 163.872 695.432C191.001 710.536 217.148 693.418 217.148 693.418C217.148 693.418 304.117 708.415 354.357 700.895C404.597 693.375 356.367 671.223 347.324 656.119C338.28 641.015 356.367 620.876 368.424 581.584C380.482 542.291 414.646 448.753 397.414 304.632C471.428 342.896 512.625 360.913 530.711 403.184C548.798 445.454 529.215 498.436 514.634 503.878C500.054 509.319 480.963 487.274 500.567 467.114C510.123 453.531 472.433 443.547 461.358 448.989C450.284 454.43 452.807 494.322 473.929 526.116C495.051 557.91 549.311 563.373 577.445 523.095C605.58 482.818 635.275 397.292 594.057 276.438ZM104.588 598.744C105.593 584.626 88.5112 503.042 88.5112 503.042C88.5112 503.042 119.66 494.987 122.717 488.945C125.689 502.035 122.675 535.286 104.588 598.744ZM247.249 533.272C232.284 585.633 235.191 580.598 217.105 643.05C214.091 636.001 194.978 554.418 198.997 535.286C203.016 516.154 215.181 503.042 232.284 456.723C258.409 441.619 271.236 413.874 271.236 413.874C271.236 413.874 262.385 480.889 247.249 533.272Z" fill="#FFD395"/>
<path d="M363.893 176.707C360.879 129.381 346.79 100.18 346.79 100.18L338.751 32.6934C338.751 32.6934 271.408 -10.6265 224.182 2.46378C176.956 15.554 171.932 40.749 163.872 67.9364C155.813 95.1238 173.835 146.499 198.506 164.538C223.177 182.578 237.33 193.761 250.371 225.983C263.412 258.205 274.444 259.212 288.511 293.47C302.578 327.727 339.82 361.535 356.923 329.013C374.027 296.491 366.972 224.055 363.893 176.707Z" fill="#472628"/>
<path d="M363.895 176.707C360.881 129.381 346.792 100.18 346.792 100.18L338.754 32.6934C338.754 32.6934 271.41 -10.6265 224.184 2.46378C176.959 15.554 172.277 35.3714 170.288 60.8878C168.044 89.1678 189.829 146.156 214.5 164.303C239.171 182.449 252.298 190.483 265.317 222.705C278.337 254.927 283.596 240.852 297.578 275.088C311.56 309.324 327.38 343.195 344.462 310.673C361.544 278.151 366.974 224.055 363.895 176.707Z" fill="#FFD395"/>
<path d="M484.108 343.088C491.121 368.526 507.88 390.157 530.735 403.269C568.939 424.822 631.215 406.697 631.215 406.697C631.215 406.697 579.137 406.697 549.869 385.273C525.796 367.684 521.179 353.286 518.656 341.546C515.321 325.906 483.808 325.606 484.108 343.088Z" fill="white"/>
<path d="M490.03 215.957C490.03 215.957 483.616 195.304 453.344 197.832C458.368 214.478 478.977 223.048 490.03 215.957Z" fill="#4E364A"/>
</g>
<defs>
<clipPath id="clip0_245_263">
<rect width="734" height="713" fill="white" transform="translate(-72)"/>
</clipPath>
</defs>
</svg>
