<svg width="160" height="187" viewBox="0 0 160 187" fill="none" xmlns="http://www.w3.org/2000/svg">
<g clip-path="url(#clip0_245_208)">
<path d="M95.2004 174.341L93.6818 173.657C93.2205 173.465 92.8136 173.162 92.4972 172.776C92.0943 172.121 91.9182 171.352 91.9962 170.587C91.9918 167.449 92.2252 164.314 92.6947 161.211C93.1558 158.035 93.3843 154.83 93.378 151.621C93.378 149.251 93.3781 147.199 93.4844 145.542C93.5139 143.596 93.2108 141.658 92.5883 139.813C92.2369 138.059 91.7287 136.34 91.0697 134.677C90.4049 133.046 90.0695 131.301 90.0827 129.54C90.0511 127.033 90.6296 124.555 91.7683 122.321C92.895 120.084 93.4678 117.608 93.4388 115.103C93.4388 113.664 93.4084 112.251 93.3476 110.863C93.2571 109.425 92.8138 108.031 92.0569 106.805L90.8724 105.027C90.3409 104.237 89.7941 103.34 89.2019 102.352C88.6096 101.365 88.0326 100.483 87.5163 99.6929C87.1186 99.1411 86.7872 98.5443 86.5291 97.9149C85.8969 98.309 85.3631 98.8425 84.9684 99.4746C84.5736 100.107 84.3282 100.821 84.2512 101.562C83.9625 103.03 83.7999 104.519 83.7653 106.015C83.7595 107.308 84.0287 108.588 84.555 109.769C85.0713 110.954 85.6331 112.139 86.2254 113.325C86.8176 114.51 87.3796 115.695 87.9111 116.881C88.4461 118.134 88.715 119.485 88.7007 120.847C88.71 124.608 87.9718 128.332 86.5291 131.804C85.0806 135.28 84.3422 139.011 84.3575 142.777C84.3412 144.852 84.7068 146.913 85.4358 148.855C86.1739 150.743 86.5449 152.755 86.5291 154.782C86.5775 155.319 86.495 155.859 86.2887 156.357C86.0824 156.855 85.7585 157.295 85.3447 157.639C84.5307 158.317 83.9909 159.268 83.8261 160.314C83.6066 161.524 83.4746 162.748 83.4312 163.977C83.2945 165.876 83.2338 167.168 83.2338 167.821C82.6555 168.565 81.9017 169.152 81.0402 169.531C80.1787 169.911 79.2365 170.07 78.2983 169.995H72.9528C71.4153 169.99 69.8845 169.791 68.397 169.402C67.6705 169.221 67.0361 168.779 66.6157 168.159C66.1953 167.539 66.0184 166.786 66.1191 166.043C66.0946 164.682 66.4752 163.343 67.2125 162.198C67.9367 161.043 68.3111 159.702 68.2907 158.338V156.819C68.0632 156.142 67.9005 155.445 67.8048 154.737C67.6644 154.054 67.563 153.364 67.5011 152.67C67.5535 150.742 68.025 148.85 68.883 147.123C69.6726 145.603 70.4016 144.205 71.252 142.685C72.0934 141.057 72.8191 139.371 73.4236 137.64C74.1765 135.212 74.5154 132.674 74.4259 130.133C74.4259 129.479 74.35 128.415 74.2133 126.972C73.9413 123.94 73.3144 120.951 72.3454 118.066C72.1228 117.126 71.5872 116.29 70.8268 115.695C69.0159 118.636 67.9041 121.953 67.577 125.391C67.2456 128.806 67.21 132.243 67.4707 135.664C67.2141 135.973 66.9854 136.303 66.7873 136.652C66.5885 137.004 66.3545 137.335 66.0888 137.64C65.3063 138.822 64.6448 140.079 64.1145 141.394C63.611 142.656 63.0173 143.88 62.3378 145.056C61.7117 146.143 60.8309 147.061 59.7714 147.731C58.371 148.469 56.7957 148.811 55.2155 148.719C53.5071 148.684 51.8111 148.418 50.1738 147.928C49.3478 147.67 48.5758 147.263 47.8959 146.728C47.589 146.499 47.3409 146.201 47.172 145.857C47.003 145.514 46.918 145.135 46.924 144.752C46.9116 144.16 47.0434 143.574 47.3079 143.045C47.5725 142.515 47.962 142.058 48.4426 141.713C49.3604 141.026 50.0231 140.053 50.3257 138.947C50.5452 138.174 50.6777 137.379 50.7205 136.576C50.7503 135.772 50.8829 134.976 51.1153 134.205C51.7445 132.151 52.7092 130.215 53.9703 128.476C55.2519 126.701 56.1611 124.685 56.643 122.549C56.3697 119.115 56.2482 115.695 56.2482 112.261C56.2454 108.813 56.576 105.372 57.2353 101.988C57.3568 101.593 57.5239 100.969 57.7213 100.103C57.9187 99.237 58.1161 98.3252 58.3136 97.3374C58.511 96.3496 58.7083 95.4681 58.9057 94.6627C59.0535 94.1665 59.1552 93.6578 59.2095 93.143C59.331 92.8846 59.6043 92.2919 59.9992 91.3649C60.2851 90.8055 60.4848 90.206 60.5915 89.5868C60.3181 87.4897 60.1359 86.1068 59.9992 85.4381C59.0678 80.96 58.3085 76.4465 57.7213 71.8975C57.1299 67.3638 56.9672 62.7844 57.2353 58.2201C56.3445 56.865 54.9608 55.9109 53.3781 55.5606C51.8204 55.0287 50.1935 54.7266 48.5489 54.664C48.0962 54.6272 47.6424 54.7189 47.2394 54.9286C46.8365 55.1383 46.5008 55.4574 46.2709 55.8494C45.7663 56.7473 45.3978 57.7152 45.1776 58.7216C44.9194 59.831 44.722 60.9252 44.5853 61.9738C44.5071 62.772 44.3751 63.5641 44.1905 64.3445C44.1179 64.6945 43.9843 65.0289 43.7957 65.3323C43.4876 65.8485 43.2186 66.3869 42.9908 66.9432C42.7934 67.6119 42.5959 68.2046 42.3985 68.7365C42.2571 69.052 42.1551 69.3838 42.0948 69.7243C41.9581 69.8458 42.0948 70.2866 42.2922 71.0009C42.4714 71.4154 42.6038 71.8486 42.6871 72.2926V73.8123C42.6031 75.3972 41.9361 76.895 40.8147 78.0173C39.6932 79.1396 38.1964 79.807 36.6127 79.8911H35.823C35.4282 79.6439 34.9902 79.4738 34.5322 79.3896C34.1159 79.2573 33.6892 79.1607 33.2566 79.1009C32.3193 79.2583 31.3953 79.4869 30.4927 79.7848C29.5917 80.0918 28.6674 80.3256 27.7289 80.4838C26.3272 80.5489 24.9517 80.0883 23.8716 79.1921C22.7143 78.4067 21.6891 77.4424 20.8343 76.335C20.4427 75.8008 20.1629 75.193 20.0116 74.548C19.8602 73.903 19.8405 73.2341 19.9536 72.5813C20.1327 71.3379 20.2291 70.0839 20.2422 68.8276C20.0453 67.7117 19.9134 66.5852 19.8473 65.4539C19.7831 64.262 19.6513 63.0747 19.4525 61.8978C19.2358 60.1509 18.5185 58.5042 17.3872 57.1563C16.2562 55.8066 15.5344 54.1615 15.3067 52.4148V46.336C15.1217 45.4599 14.7878 44.622 14.3196 43.8589C13.9247 43.2662 13.5602 42.7039 13.2413 42.172C12.8978 41.64 12.5982 41.0809 12.3454 40.5003C12.0502 39.7092 11.9159 38.867 11.9506 38.0232C11.9242 36.0591 12.2963 34.1101 13.044 32.2939C13.7693 30.5407 14.1358 28.6596 14.1221 26.7621V25.2424C14.1549 24.7279 14.0879 24.2118 13.9247 23.7227C13.7896 23.3926 13.5577 23.1113 13.2594 22.9159C12.9612 22.7206 12.6107 22.6204 12.2543 22.6285C11.6803 22.6265 11.1107 22.5289 10.5687 22.3398C7.52609 21.2229 4.89529 19.2056 3.02626 16.5561C1.15722 13.9066 0.138494 10.7505 0.105469 7.50748C1.50749 7.5209 2.90153 7.72017 4.25123 8.10015C5.76983 8.49527 7.10626 8.9208 8.48819 9.39191C9.87012 9.86302 11.2672 10.2429 12.6491 10.5773C13.9719 10.9098 15.3522 10.941 16.6886 10.6685L21.6392 15.4099V16.2154C19.7849 14.4251 17.4454 13.2202 14.9118 12.7504C12.9377 12.5529 10.356 12.4465 7.40995 12.4465C7.3396 13.6668 7.65288 14.8785 8.30587 15.9115C8.6052 16.4685 8.78545 17.0818 8.83512 17.7123C8.88479 18.3428 8.80281 18.9768 8.59441 19.5739C9.94841 20.4496 11.4597 21.0535 13.044 21.352C14.6267 21.6396 16.135 22.2444 17.4783 23.1301C17.3568 23.1301 17.1897 23.2972 16.9923 23.6163C16.8146 23.8836 16.7099 24.1927 16.6886 24.513C16.7784 24.9503 16.9107 25.3779 17.0834 25.7896C17.2626 26.2041 17.395 26.6374 17.4783 27.0813V35.3789L16.6886 36.7619L13.9247 34.7862V39.1326C13.9295 39.7958 13.9955 40.4572 14.1221 41.1082C14.2457 41.7536 14.5159 42.362 14.9118 42.8863C15.0829 43.1315 15.3099 43.3324 15.5739 43.4725C15.838 43.6125 16.1316 43.6877 16.4305 43.6917H16.6279C16.8074 43.4892 16.942 43.2509 17.0227 42.9926C17.116 42.7399 17.2492 42.5038 17.4175 42.2936L18.602 38.3423C18.9465 37.378 19.2106 36.3868 19.3917 35.3789C19.5284 33.6768 19.6195 32.3395 19.6954 31.2301C19.7713 30.1207 19.8624 29.0569 19.9839 27.8716C20.0999 26.9539 20.1658 26.0305 20.1814 25.1057C20.1572 24.5365 20.2239 23.967 20.3788 23.4188C20.5155 23.0996 20.9711 22.9325 21.7608 22.9325C22.1556 22.9325 22.9453 23.8443 24.145 25.6983C25.3447 27.5524 26.6051 29.6192 27.987 31.9291C29.3689 34.2391 30.5839 36.4883 31.6469 38.5399C32.3834 39.8272 32.8968 41.2299 33.1655 42.6887V42.8863C32.4164 45.3481 31.8529 47.8626 31.4798 50.4088C31.1465 52.9634 30.9841 55.5375 30.9938 58.1137V62.8552L31.7835 62.065V55.9861C31.7835 55.8494 32.1176 55.4694 32.7706 54.8008C33.3267 54.2533 33.9204 53.7455 34.5474 53.2811C35.4737 52.6276 36.0659 52.3237 36.2178 52.3844C36.4062 52.4455 36.5778 52.5495 36.719 52.6884C36.8556 52.8251 37.0531 52.6884 37.3112 52.4908C37.5694 52.2932 38.2376 51.3662 39.2854 49.9225C39.732 49.4032 40.0679 48.7982 40.2725 48.1444C40.2725 47.8709 40.7281 47.7493 41.6544 47.7493C42.1859 47.7493 42.5201 47.7493 42.6416 47.9469C42.9167 48.5897 43.15 49.2496 43.3401 49.9225C43.5306 50.5933 43.7588 51.2529 44.0234 51.8981C44.0082 52.0054 44.0182 52.1149 44.0525 52.2177C44.0869 52.3205 44.1446 52.4139 44.2211 52.4905C44.2977 52.5672 44.3911 52.6249 44.4938 52.6593C44.5966 52.6936 44.7059 52.7036 44.8131 52.6884C45.4694 52.2227 45.9964 51.5975 46.3444 50.8716C46.6925 50.1458 46.8502 49.3433 46.8025 48.5396V43.6005C46.8025 43.1902 46.8025 42.4456 46.5899 41.321C46.4614 40.1553 46.2636 38.9982 45.9976 37.856C45.7394 36.6706 45.4813 35.622 45.208 34.695C44.9347 33.768 44.6916 33.3121 44.4183 33.3121L44.0234 33.5097C43.3251 34.8251 42.4683 36.05 41.4722 37.1569C40.3548 38.2461 39.1677 39.2614 37.9186 40.1964C36.4124 39.1547 34.9627 38.0336 33.5754 36.8378C32.5956 36.0052 31.7323 35.0442 31.009 33.9808C30.3042 32.9235 29.7902 31.7508 29.4904 30.5158C29.1715 29.1937 28.7312 27.4764 28.2148 25.1816C27.9724 24.183 27.5336 23.2428 26.924 22.4158C26.3371 21.6145 26.0279 20.6433 26.0432 19.6499C27.2401 19.6022 28.4075 20.028 29.293 20.8353C30.1749 21.6563 30.9094 22.6227 31.4646 23.6924C32.0598 24.8111 32.4944 26.0083 32.7554 27.2485C33.0025 28.3873 33.1348 29.5481 33.1503 30.7134V31.9899C33.0136 31.9899 32.7554 32.1875 32.3606 32.5827C32.3504 33.1493 32.4695 33.7107 32.709 34.2243C32.9485 34.7378 33.3019 35.1899 33.7425 35.5461C34.5968 36.2937 35.5226 36.9554 36.5063 37.5217C37.1774 36.8918 37.6966 36.1175 38.0249 35.2573C38.5565 34.1327 39.0424 32.9777 39.5435 31.7924C40.0447 30.607 40.4548 29.5128 40.9255 28.525C41.3963 27.5372 41.943 27.0053 42.596 27.0053C43.4525 27.0356 44.266 27.3884 44.8739 27.9931C45.6305 28.6882 46.3218 29.4512 46.9391 30.2727C47.5946 31.1173 48.1312 32.0479 48.5337 33.0385C48.9286 34.0264 49.2474 34.7862 49.5056 35.3029C49.8624 34.9021 50.1314 34.431 50.2953 33.92C50.5686 33.2665 50.7661 32.8106 50.9028 32.537C51.0095 31.6696 50.7932 30.7932 50.2953 30.0751C49.2204 28.2737 47.9302 26.61 46.4533 25.1209C45.9363 24.5666 45.3722 24.0581 44.7675 23.6012H43.9779C43.1236 23.6214 42.3111 23.9761 41.7151 24.589C40.9873 25.2467 40.326 25.9746 39.741 26.7621C39.1487 27.5524 38.5565 28.2818 37.9642 28.9353C37.7384 29.2243 37.4537 29.4619 37.129 29.6322C36.8043 29.8026 36.4471 29.9018 36.0812 29.9232C35.9445 29.9232 35.5496 29.3001 34.8966 28.0387C34.2436 26.7773 33.5147 25.3792 32.725 23.7987C31.9354 22.2182 31.0698 20.6681 30.1586 19.1484C29.5187 17.9711 28.6454 16.9368 27.5921 16.109C27.0657 15.7037 26.276 15.1263 25.2231 14.3765C24.1601 13.6471 23.1123 12.8568 22.0493 12.0514C20.9863 11.2459 20.0144 10.5317 19.0121 9.92381C18.4372 9.46488 17.7598 9.15202 17.0378 9.01198C17.0378 7.93299 17.6605 7.32509 18.921 7.18831C20.1814 7.05154 20.9863 6.99074 21.3963 6.99074C21.2634 6.58905 21.2204 6.16304 21.2703 5.74286C21.3201 5.32268 21.4616 4.91863 21.6848 4.55925C21.8467 4.19738 22.1085 3.88927 22.4394 3.67121C22.7703 3.45314 23.1565 3.33419 23.5527 3.32829C24.0204 3.32811 24.4875 3.36364 24.9498 3.43463C25.4094 3.54318 25.8237 3.79294 26.1343 4.1489C25.9977 4.1489 25.861 4.2553 25.7395 4.45286C25.618 4.65042 25.4661 4.75677 25.3446 4.75677V5.56221C26.6918 7.9424 27.8789 10.4098 28.8981 12.948C29.3458 14.1819 30.0808 15.2913 31.042 16.1845C32.0032 17.0778 33.1631 17.7291 34.4259 18.0846C36.2033 16.2596 37.6112 14.1076 38.5717 11.7474C39.6026 9.35566 40.0101 6.74124 39.7562 4.1489L40.5459 3.32829H41.1382C41.3492 3.52823 41.5837 3.70173 41.8367 3.84498C42.0401 3.99407 42.2731 4.0977 42.52 4.1489C42.7934 4.1489 43.4768 4.14889 44.6005 4.04251C45.2945 3.94532 46.0006 3.98144 46.681 4.1489C46.8025 4.1489 47.0303 4.34645 47.3644 4.75677C47.6985 5.16709 47.9263 5.42544 48.0478 5.56221H48.6552C49.711 5.56024 50.7422 5.24276 51.6165 4.65043C52.5276 4.04254 53.454 3.40424 54.3803 2.72037C55.3067 2.0365 56.2178 1.41345 57.1442 0.80557C58.0382 0.194971 59.0992 -0.123573 60.1814 -0.106264H60.3788C60.6602 0.18087 60.9594 0.449888 61.2748 0.699179C61.5937 0.972726 61.7607 1.17028 61.7607 1.30705V6.38287C61.8985 6.3763 62.0332 6.34 62.1556 6.27648C62.278 6.21296 62.4127 6.17671 62.5504 6.17013C62.7654 6.3653 62.9995 6.53839 63.249 6.68683C63.4509 6.83852 63.6845 6.94241 63.9323 6.99074C64.3271 6.58549 64.5246 6.31197 64.5246 6.17013H64.9194C65.451 6.17013 65.7395 6.38288 65.8155 6.77801C65.8754 7.1805 65.9059 7.58682 65.9066 7.99376C65.8662 9.51007 65.3331 10.9719 64.388 12.1578C63.3143 13.7227 62.7811 15.5958 62.8694 17.4919H69.3841V16.7929C69.3025 15.4017 69.1403 14.0164 68.8982 12.6441C68.5641 10.5469 68.3363 9.16396 68.1996 8.49529L67.0151 9.10316V7.08192C67.6548 7.17528 68.2673 7.40382 68.8119 7.75231C69.3565 8.1008 69.8208 8.56128 70.1738 9.10316C70.1738 8.73638 70.3194 8.38463 70.5785 8.12528C70.8377 7.86593 71.1892 7.72022 71.5557 7.72022C71.9222 7.72022 72.2738 7.86593 72.5329 8.12528C72.7921 8.38463 72.9376 8.73638 72.9376 9.10316C73.0743 8.55606 73.3325 8.29772 73.7273 8.29772H74.8815C75.3521 8.3218 75.8197 8.38792 76.2786 8.49529C76.5246 8.54906 76.7572 8.65245 76.962 8.7992C77.1703 8.94944 77.4086 9.05311 77.6605 9.10316C77.8695 9.07906 78.0711 9.01178 78.2527 8.90559C78.5109 8.76882 78.6476 8.63206 78.6476 8.49529V10.9268H76.2483C75.9685 11.6508 75.7351 12.3919 75.5497 13.1456C75.3685 13.9055 75.1351 14.6519 74.8511 15.3796C74.8555 15.6512 74.8912 15.9215 74.9574 16.185C75.0112 16.384 75.0468 16.5874 75.0637 16.7929H80.9559C80.8192 16.3978 80.5914 15.4859 80.2573 14.0726C80.024 13.1749 79.8615 12.2603 79.7713 11.3371C79.6084 11.0965 79.5384 10.8049 79.574 10.5165C79.574 9.8478 79.7713 9.4375 80.1662 9.30073C80.659 9.15621 81.1714 9.08954 81.6848 9.10316H82.6719C82.9066 9.09275 83.1368 9.16908 83.3189 9.31761C83.5009 9.46614 83.622 9.6765 83.659 9.9086L84.4487 9.10316H85.0409C85.4196 9.28279 85.8168 9.42037 86.2254 9.51346C86.5786 9.5739 86.9151 9.70858 87.2125 9.9086C87.3492 9.9086 87.5314 10.1214 87.8048 10.5165C87.5314 11.2003 87.3492 11.6715 87.2125 11.945C87.0758 12.2186 86.7114 12.8113 86.1192 13.7687C85.7871 14.3235 85.4272 14.8611 85.0409 15.3796V16.2002C85.6843 15.7786 86.2075 15.1975 86.5595 14.5133C86.9544 13.7839 87.3795 13.0696 87.8503 12.3401C88.2618 11.6726 88.774 11.0728 89.3689 10.5621C89.9147 10.0872 90.6204 9.83738 91.3432 9.86301V10.714L88.5793 16.261C91.2078 15.9789 93.8661 16.2481 96.3848 17.0512C98.8442 17.8527 101.2 18.9444 103.401 20.3034C105.648 21.6949 107.789 23.2492 109.809 24.9537C111.834 26.676 113.859 28.3224 115.884 29.8927C120.813 33.5508 124.805 38.3268 127.531 43.8285C130.045 49.5713 131.263 55.7976 131.1 62.065C131.1 66.153 130.903 70.3473 130.508 74.6177C130.152 78.7993 128.649 82.8013 126.165 86.1827C130.629 86.3144 134.973 86.6437 139.194 87.1705C143.486 87.7403 147.526 89.5221 150.842 92.3071C151.508 92.8332 152.079 93.4707 152.528 94.1916C152.847 94.7842 153.181 95.3466 153.515 95.8785C153.868 96.4456 154.303 96.9576 154.806 97.3982C155.497 97.9458 156.309 98.3209 157.175 98.4924V99.2826C156.78 99.6777 156.506 99.8753 156.385 99.8753C157.038 100.666 157.797 101.653 158.648 102.839C159.445 103.856 159.897 105.102 159.938 106.395C159.89 108.01 159.413 109.584 158.556 110.954V119.844C158.556 120.255 158.389 120.482 158.055 120.543C157.765 120.604 157.471 120.64 157.175 120.65C157.037 120.645 156.901 120.609 156.78 120.543C156.656 120.486 156.521 120.455 156.385 120.452C155.99 119.388 155.428 118.036 154.699 116.395C153.984 114.759 153.157 113.175 152.224 111.653C151.357 110.197 150.339 108.837 149.187 107.595C148.227 106.502 146.946 105.741 145.527 105.422C145.527 105.681 145.527 106.212 145.436 106.942C145.345 107.671 145.269 108.553 145.132 109.419C145.005 110.248 144.738 111.05 144.342 111.79C144.212 112.092 144.002 112.352 143.734 112.542C143.466 112.733 143.151 112.845 142.824 112.869H142.034C142.218 110.81 141.97 108.735 141.306 106.777C140.642 104.82 139.576 103.022 138.177 101.501C136.882 100.083 135.424 98.8228 133.834 97.7477C132.082 96.5685 130.273 95.478 128.412 94.4803C127.937 94.2104 127.476 93.9163 127.03 93.5989C126.815 93.4478 126.612 93.2801 126.423 93.0974C126.264 92.9583 126.057 92.8873 125.846 92.8998H124.327C122.908 92.897 121.532 93.3917 120.44 94.298C119.229 95.2623 118.2 96.4358 117.402 97.7629C116.545 99.1275 115.847 100.586 115.322 102.109C114.834 103.408 114.568 104.78 114.532 106.167C114.536 110.098 114.769 114.025 115.231 117.929C115.676 121.892 116.636 125.78 118.086 129.494C118.899 131.537 119.917 133.492 121.123 135.33C122.31 137.252 122.892 139.486 122.793 141.743C122.81 143.887 122.513 146.022 121.913 148.08C121.303 150.264 121.133 152.547 121.411 154.798C120.746 155.718 119.89 156.485 118.902 157.046C117.914 157.608 116.818 157.95 115.686 158.05L109.172 158.946V159.539C109.293 159.797 109.627 160.724 110.159 162.305C110.441 163.243 110.77 164.166 111.146 165.071V166.454C111.163 167.041 111.027 167.622 110.751 168.141C110.47 168.651 110.333 169.229 110.356 169.812C110.355 169.949 110.386 170.085 110.447 170.207C110.515 170.328 110.552 170.464 110.553 170.602C111.26 171.178 111.92 171.808 112.528 172.487C113.338 173.366 114.098 174.289 114.806 175.253C115.493 176.198 116.117 177.188 116.673 178.216C117.152 179.029 117.423 179.948 117.463 180.891C117.475 181.457 117.342 182.017 117.076 182.518C116.81 183.018 116.421 183.441 115.944 183.748C114.778 184.531 113.518 185.165 112.194 185.632C110.789 186.152 109.333 186.518 107.85 186.727C106.739 186.894 105.618 186.99 104.494 187.015C100.531 187.015 98.2072 186.058 97.4783 184.143C96.6763 181.491 96.4383 178.701 96.7797 175.952C96.3965 175.291 95.8534 174.737 95.2004 174.341ZM18.5564 55.4542C19.474 57.0595 20.4882 58.6074 21.5936 60.0893V57.7186C21.5602 55.8065 21.2587 53.9086 20.6977 52.0805C20.488 51.1813 20.0881 50.3375 19.5248 49.6061C18.9616 48.8747 18.2482 48.2726 17.4327 47.8405C17.4327 47.9621 17.4327 48.3268 17.3416 48.9195C17.2812 49.3477 17.2456 49.7789 17.2353 50.2112C17.2212 52.0431 17.676 53.8481 18.5564 55.4542ZM20.637 45.1658C20.9711 46.1536 21.3203 47.1718 21.7152 48.2052C22.11 49.2386 22.4745 50.272 22.8086 51.2447C22.9992 51.8877 23.2325 52.5172 23.5071 53.1291C24.1052 55.0537 24.4673 57.0439 24.5853 59.0559C24.5853 60.7732 24.7524 62.9464 24.8891 65.5755L26.8632 64.7852C26.8111 60.6642 27.4107 56.561 28.64 52.6276C29.8226 49.0227 30.4224 45.2519 30.4167 41.4577C30.3095 40.5039 29.9707 39.5909 29.4297 38.7983C28.7094 37.5973 27.9183 36.4403 27.0607 35.3333C26.1343 34.1479 25.2839 33.1297 24.4942 32.2939C23.7046 31.4581 23.1731 30.8806 22.8997 30.607C21.9728 32.5128 21.4064 34.5738 21.2292 36.6858C21.0604 38.7425 20.6943 40.7782 20.1358 42.7647V43.175C20.2217 43.8564 20.39 44.525 20.637 45.1658ZM21.1229 74.1315C21.1179 74.1859 21.1252 74.2408 21.1443 74.2921C21.1634 74.3433 21.1936 74.3897 21.233 74.4276C21.2724 74.4656 21.3198 74.4942 21.3718 74.5113C21.4237 74.5284 21.4787 74.5336 21.5329 74.5265C22.0493 74.253 22.0493 73.9947 21.5329 73.7363C21.2596 73.7363 21.1229 73.8579 21.1229 74.1315ZM26.0735 77.1709C26.9847 77.1101 27.9718 77.0797 29.0348 77.0797C30.0827 77.0797 31.0394 77.0797 31.8898 77.1709C32.7402 77.262 33.4084 77.2772 33.7729 77.2772C34.1124 77.3331 34.4439 77.4301 34.76 77.566C35.0753 77.7075 35.4068 77.8096 35.747 77.8699H36.5367C37.2237 77.7863 37.8914 77.5859 38.5109 77.2772C39.4373 76.8821 39.8929 76.4262 39.8929 75.8943V71.1528C39.8929 70.8792 39.4069 70.4233 38.3743 69.7699C37.2628 69.0345 36.1064 68.3696 34.9118 67.779C33.5906 67.1256 32.3454 66.5633 31.1609 66.1074C30.4077 65.7649 29.6103 65.5296 28.7919 65.4083C27.7631 65.3972 26.7708 65.79 26.028 66.5025C25.3443 67.1809 24.4244 67.5677 23.4616 67.5815C23.1657 67.5999 22.8716 67.5247 22.6208 67.3665C22.3701 67.2083 22.1754 66.9751 22.0644 66.7001C21.7996 66.0965 21.6061 65.4641 21.4874 64.8156C21.4678 65.0508 21.4323 65.2843 21.3811 65.5147C21.3314 65.7402 21.2959 65.9686 21.2748 66.1986C21.2593 67.2159 21.3305 68.2327 21.4874 69.238C21.6089 70.0282 21.8062 71.0768 22.0644 72.399C23.146 72.3035 24.2348 72.4704 25.2383 72.8853C25.7954 73.0301 26.3059 73.3158 26.7208 73.715C27.1357 74.1142 27.4409 74.6135 27.6073 75.1648H21.8822C21.8617 75.4478 21.9259 75.7304 22.0665 75.9767C22.2072 76.223 22.4179 76.4218 22.6719 76.5478C23.1882 76.8061 23.6438 77.0797 24.0539 77.338C24.4943 77.2924 25.1472 77.262 26.0735 77.186V77.1709ZM21.7304 8.10015C21.7304 8.49527 21.8671 8.69285 22.1252 8.69285C22.2065 8.70526 22.2896 8.69862 22.3679 8.67347C22.4462 8.64831 22.5175 8.60532 22.5764 8.54788C22.6353 8.49043 22.68 8.42006 22.7071 8.34238C22.7342 8.26469 22.7429 8.18178 22.7326 8.10015C22.7326 7.58345 22.5201 7.30992 22.1252 7.30992C21.7304 7.30992 21.7304 7.58345 21.7304 8.10015ZM21.7304 10.0757C21.7304 10.4709 21.8671 10.6685 22.1252 10.6685C22.2065 10.6809 22.2896 10.6742 22.3679 10.6491C22.4462 10.6239 22.5175 10.5809 22.5764 10.5235C22.6353 10.466 22.68 10.3957 22.7071 10.318C22.7342 10.2403 22.7429 10.1574 22.7326 10.0757C22.7326 9.55905 22.5201 9.28552 22.1252 9.28552C21.7304 9.28552 21.7304 9.55905 21.7304 10.0757ZM22.9149 39.5277C23.4095 38.4443 23.8108 37.3207 24.1146 36.1691H24.9043C25.0258 36.1691 25.3294 36.6706 25.785 37.6889C26.2406 38.7071 26.6051 39.4973 26.8784 40.1508C27.3642 41.4186 27.6312 42.7599 27.6681 44.1172V45.105C27.5314 45.5002 27.3037 46.4879 26.9696 48.0684C26.6355 49.6489 26.4077 50.6976 26.2862 51.2295H25.8913C25.5382 51.2148 25.1955 51.1055 24.899 50.913C24.6025 50.7205 24.3631 50.4519 24.2057 50.1353C23.7291 49.3712 23.3658 48.5419 23.1275 47.6733C22.8541 46.7463 22.6264 45.8193 22.429 44.9075C22.2675 44.2545 22.1658 43.5881 22.1252 42.9166C22.155 41.7662 22.4185 40.6338 22.8997 39.5885L22.9149 39.5277ZM22.3378 5.33427C22.3378 5.72939 22.5201 5.92698 22.9149 5.92698C23.3098 5.92698 23.3097 5.72939 23.3097 5.33427C23.3097 4.93914 23.1883 4.54404 22.9149 4.54404C22.6416 4.54404 22.3226 4.80237 22.3226 5.33427H22.3378ZM22.3378 10.866C22.3378 11.2611 22.5201 11.4587 22.9149 11.4587C23.3098 11.4587 23.3097 11.2611 23.3097 10.866C23.3097 10.4709 23.1883 10.0757 22.9149 10.0757C22.6416 10.0757 22.3226 10.3493 22.3226 10.866H22.3378ZM25.1016 8.10015C25.1016 8.49527 25.2231 8.69285 25.4965 8.69285C25.5772 8.70595 25.6599 8.69964 25.7377 8.67449C25.8156 8.64933 25.8863 8.60603 25.9442 8.54816C26.002 8.49028 26.0453 8.41948 26.0704 8.34159C26.0955 8.2637 26.1018 8.18094 26.0887 8.10015C26.0887 7.58345 25.8913 7.30992 25.4965 7.30992C25.1016 7.30992 25.0865 7.58345 25.0865 8.10015H25.1016ZM25.6939 9.48309C25.6808 9.56388 25.6871 9.64664 25.7122 9.72453C25.7374 9.80242 25.7807 9.87322 25.8385 9.9311C25.8963 9.98897 25.9671 10.0323 26.0449 10.0574C26.1227 10.0826 26.2054 10.0888 26.2862 10.0757C26.5443 10.0757 26.681 9.87821 26.681 9.48309C26.681 9.08796 26.5443 8.69285 26.2862 8.69285C26.028 8.69285 25.6787 8.96638 25.6787 9.48309H25.6939ZM26.4836 10.866C26.4836 11.2611 26.6051 11.4587 26.8784 11.4587C26.9592 11.4718 27.0419 11.4655 27.1197 11.4404C27.1975 11.4152 27.2683 11.3719 27.3261 11.314C27.384 11.2562 27.4272 11.1854 27.4524 11.1075C27.4775 11.0296 27.4838 10.9468 27.4707 10.866C27.4707 10.3493 27.2733 10.0757 26.8784 10.0757C26.4836 10.0757 26.4684 10.3493 26.4684 10.866H26.4836ZM32.0113 12.3857C31.8784 11.4161 31.6805 10.4565 31.4191 9.51346C31.1614 8.61566 30.7941 7.75305 30.3256 6.94515C29.8507 6.14183 29.125 5.51709 28.2603 5.16712C28.4958 5.06081 28.7003 4.89615 28.8544 4.68874C29.0085 4.48132 29.1072 4.23799 29.1412 3.98175C29.1412 3.46505 29.5663 3.19148 30.2345 3.19148C30.6219 3.15338 31.0106 3.25066 31.3344 3.46673C31.6583 3.6828 31.8975 4.00435 32.0113 4.37685C32.2695 5.16709 32.5428 5.89659 32.8009 6.55006V3.11551L35.17 5.09111L37.1442 3.11551C37.6018 3.31812 37.9896 3.6509 38.2596 4.07242C38.5296 4.49395 38.6699 4.9856 38.6628 5.48625C38.3372 5.46584 38.0137 5.55089 37.7402 5.7288C37.4667 5.90671 37.2578 6.16801 37.1442 6.47405L36.4456 7.85699C35.9937 8.98247 35.6281 10.1408 35.3522 11.3219C34.8966 13.1 34.6081 14.255 34.4715 14.7717C34.3348 15.2884 34.1981 15.3643 33.6818 15.3643C33.4231 15.3658 33.1669 15.314 32.9291 15.212C32.6914 15.11 32.4772 14.9602 32.2999 14.7717C32.2543 14.1638 32.1328 13.3431 31.9961 12.3553L32.0113 12.3857ZM28.4578 59.4967C28.4447 59.5775 28.451 59.6602 28.4761 59.7381C28.5013 59.816 28.5445 59.8868 28.6024 59.9447C28.6602 60.0025 28.7309 60.0458 28.8088 60.071C28.8866 60.0962 28.9693 60.1024 29.05 60.0893C29.3082 60.0893 29.4449 59.8918 29.4449 59.4967C29.4449 59.1015 29.3082 58.7064 29.05 58.7064C28.7919 58.7064 28.4426 58.98 28.4426 59.4967H28.4578ZM33.1958 47.0503L37.1442 42.8863H37.539C38.192 42.8863 38.7843 44.2844 39.3158 47.0503V47.4454C39.0631 48.4545 38.5377 49.3746 37.7972 50.1049C36.7494 51.3662 35.8838 51.9893 35.2308 51.9893C34.7823 52.0245 34.3375 51.8866 33.9874 51.604C33.6372 51.3215 33.4084 50.9156 33.3477 50.4696C33.1744 49.5573 33.0779 48.6321 33.0592 47.7037C32.9832 47.187 33.0439 47.0503 33.1806 47.0503H33.1958ZM37.1442 72.3534C37.3031 72.4951 37.4704 72.6271 37.6453 72.7485C37.7231 72.7842 37.7905 72.8393 37.841 72.9085C37.8916 72.9776 37.9235 73.0586 37.9338 73.1436V73.7363C37.6757 74.6481 37.4024 75.1193 37.1442 75.1193H33.3932C33.41 74.387 33.6904 73.6854 34.1829 73.1436C34.5828 72.5777 35.101 72.1059 35.7015 71.7607C35.9678 71.7528 36.2327 71.8016 36.4788 71.9037C36.7249 72.0059 36.9465 72.1591 37.129 72.3534H37.1442ZM34.1829 61.7154C33.9109 63.3475 33.7788 64.9999 33.7881 66.6545C34.053 66.6508 34.3101 66.5637 34.5227 66.4054C34.7354 66.2472 34.8927 66.0259 34.9725 65.7731C35.2356 65.1675 35.4341 64.5358 35.5648 63.8886C35.6914 63.2376 35.7575 62.5762 35.7622 61.913V60.8644C36.2903 60.7857 36.785 60.5581 37.1884 60.2082C37.5919 59.8583 37.8873 59.4006 38.0401 58.8888C38.1528 58.434 38.4211 58.033 38.7983 57.7554C39.1756 57.4778 39.638 57.3411 40.1054 57.3691C41.0318 57.3691 41.6241 58.0985 42.0797 59.5423C42.1308 59.2952 42.2343 59.0619 42.3833 58.8584C42.5311 58.6502 42.6298 58.4112 42.6719 58.1593V57.3691C42.5343 56.9135 42.3351 56.4788 42.0797 56.0773C41.6848 55.3631 41.4267 54.8616 41.29 54.5576V53.9649C40.1673 54.4615 39.1071 55.089 38.1313 55.8342C37.1068 56.5952 35.8525 56.9814 34.5778 56.9284C34.5695 58.5173 34.4324 60.103 34.1677 61.6698L34.1829 61.7154ZM34.5778 48.4788H35.17V47.8861H34.5778V48.4788ZM35.7622 19.6043C36.1133 20.0123 36.4428 20.4384 36.7494 20.8809C37.1102 21.4131 37.5059 21.9208 37.9338 22.4006C38.3287 22.7957 38.5261 23.0541 38.5261 23.1908H39.3158C39.7568 22.9982 40.2215 22.8653 40.6977 22.7957C41.1728 22.7211 41.6369 22.5884 42.0797 22.4006L42.9756 17.9479C43.0991 17.1145 43.4396 16.3284 43.9627 15.6683C44.2157 15.3962 44.5209 15.1778 44.8601 15.0264C45.1993 14.8749 45.5655 14.7935 45.9369 14.7868C46.7873 14.7868 48.1388 14.6805 49.9763 14.6805C49.9906 15.5547 49.7535 16.4145 49.293 17.1576C48.8375 17.887 48.3666 18.5709 47.9111 19.2396C47.4555 19.9083 46.9848 20.5466 46.5292 21.2152C46.048 21.9099 45.803 22.7412 45.8306 23.586C47.2671 23.5565 48.6807 23.2197 49.9763 22.5982C51.4047 21.958 52.7384 21.1245 53.94 20.121C55.0969 19.158 56.065 17.9883 56.7949 16.6713C57.5113 15.4006 57.8879 13.9663 57.8883 12.5073C57.8883 9.08795 56.233 7.37067 52.9528 7.37067C50.9719 7.33071 48.9989 7.6341 47.1214 8.26734C45.5127 8.83687 44.0093 9.66873 42.6719 10.7293C41.3455 11.8037 40.1525 13.0333 39.1184 14.3918C38.0705 15.7747 36.9468 17.3248 35.7622 19.0421V19.6347V19.6043ZM38.9058 68.4629C39.4423 68.4629 39.8372 67.9564 40.0903 66.9432C40.2397 66.2712 40.4376 65.611 40.6825 64.9676V64.3749C40.4882 63.8344 40.3557 63.2736 40.2876 62.7032C40.2737 62.3627 40.1764 62.0308 40.0043 61.7367C39.8322 61.4425 39.5905 61.1952 39.3006 61.0164C38.2528 61.2899 37.782 62.141 37.782 63.5847C37.782 65.0284 37.8731 66.229 37.8731 67.1408C37.8731 68.0526 38.2528 68.4629 38.9058 68.4629ZM40.0903 5.39507C40.0772 5.47587 40.0834 5.55862 40.1086 5.63651C40.1337 5.7144 40.177 5.7852 40.2348 5.84308C40.2926 5.90096 40.3634 5.94426 40.4412 5.96941C40.5191 5.99457 40.6018 6.00087 40.6825 5.98778C40.9558 5.98778 41.0774 5.79019 41.0774 5.39507C41.0774 4.99995 40.9558 4.60484 40.6825 4.60484C40.4091 4.60484 40.0903 4.80237 40.0903 5.33427V5.39507ZM44.9347 17.6591C44.3532 19.0348 44.0487 20.5118 44.0386 22.0055C45.1017 22.0055 46.1799 21.1848 47.3037 19.5283C48.2135 18.2687 48.9729 16.907 49.5664 15.4707H48.1844C47.4856 15.4255 46.791 15.6085 46.205 15.9922C45.6189 16.3758 45.1732 16.9394 44.9347 17.5983V17.6591ZM51.0091 40.8802C50.7357 42.1264 50.4775 43.4486 50.2194 44.8315C49.9612 46.2144 49.6878 47.5061 49.4297 48.6915L48.8374 51.2598V52.6428H51.0091C51.1162 49.7838 51.4821 46.9404 52.1024 44.1476C52.7337 41.3773 53.7563 38.7113 55.1396 36.2299C55.9293 34.7102 56.5823 33.2969 57.1138 32.1875C57.6247 31.0973 58.0512 29.9694 58.3895 28.8138C58.7313 27.6525 58.9651 26.462 59.088 25.2577C59.2094 24.0115 59.2854 22.5982 59.2854 21.0177V19.0421C59.341 18.5717 59.2729 18.095 59.088 17.6591L58.4958 16.8688L55.7319 21.0177C55.5106 21.468 55.3129 21.9296 55.1396 22.4006L57.1138 27.1421C57.2416 27.4062 57.299 27.699 57.2804 27.9919C57.2617 28.2848 57.1677 28.5679 57.0075 28.8138C56.6492 29.4565 56.2215 30.0578 55.7319 30.607C55.2055 31.1946 54.6436 31.7873 54.0463 32.3851C53.5426 32.8346 53.1699 33.4123 52.968 34.0567C52.734 34.8003 52.5663 35.5631 52.4669 36.3363C52.3554 37.0301 52.05 37.6781 51.5861 38.2055C51.419 38.6767 51.2216 39.5885 50.9635 40.8194L51.0091 40.8802ZM52.9832 29.3152C53.1515 29.105 53.2849 28.8689 53.3781 28.6162C53.4624 28.364 53.5966 28.1313 53.7729 27.9323V27.1421C53.6362 26.8837 53.4084 26.3215 53.0744 25.4552C52.7403 24.589 52.5125 24.0419 52.391 23.7835L51.0091 24.5738C52.1437 25.8825 52.8207 27.5258 52.9376 29.2545L52.9832 29.3152ZM52.3454 144.448H52.5428C52.8496 144.458 53.1512 144.367 53.401 144.189C53.6508 144.01 53.8348 143.754 53.9248 143.46C54.1661 142.898 54.3 142.295 54.3196 141.682V141.09C53.4968 142.104 52.8312 143.236 52.3454 144.448ZM54.9118 51.1534C54.9118 51.9437 54.9118 52.3996 55.1092 52.5364L55.7015 53.1291C55.823 53.1291 56.0964 52.9315 56.4912 52.5364C57.4024 50.3024 58.192 48.3116 58.8602 46.6095C59.4945 44.9402 60.2508 43.3198 61.1229 41.7617C61.9885 40.2419 62.9453 38.7222 63.9931 37.2025C65.2787 35.3807 66.6626 33.6304 68.1389 31.9596C68.5337 29.8522 68.8982 27.7094 69.2323 25.5312C69.5549 23.3424 69.7172 21.1329 69.7182 18.9205H61.8215V30.5766C59.7564 33.2716 58.0608 36.2308 56.7797 39.3757C55.52 42.5523 54.8857 45.9427 54.9118 49.3602V51.1534ZM62.7326 129.965C63.7314 130.502 64.6304 131.206 65.3902 132.047V130.665C65.2535 130.406 65.0257 129.935 64.7068 129.282C64.5223 128.86 64.2878 128.462 64.0083 128.096C63.3553 127.306 62.4897 126.288 61.2444 125.057C59.9992 123.826 59.331 123.188 59.0729 123.188H58.4806C57.8999 125.615 56.9688 127.944 55.7167 130.102H57.0986C57.4956 129.796 57.9231 129.531 58.3743 129.312C58.8363 129.016 59.3525 128.814 59.8929 128.719C60.8919 129.003 61.8474 129.422 62.7326 129.965ZM58.4806 105.361H59.0729L58.4806 104.769V105.361ZM58.4806 117.808C58.8198 117.872 59.1508 117.974 59.4676 118.112C59.7831 118.25 60.1148 118.347 60.4547 118.4C61.4854 118.757 62.3603 119.461 62.9301 120.391C63.6438 121.44 64.3423 121.911 64.9953 121.911C65.0438 121.852 65.104 121.805 65.172 121.771C65.24 121.737 65.3143 121.717 65.3902 121.713C65.4339 121.242 65.5359 120.777 65.6939 120.331C65.8483 119.878 65.9452 119.409 65.9825 118.932V118.34C65.9714 117.916 65.8998 117.497 65.7699 117.094C65.6332 116.638 65.2383 116.395 64.5853 116.395H59.0577C58.6628 116.668 58.4654 116.866 58.4654 116.987V117.777L58.4806 117.808ZM59.0729 15.4099C59.2145 15.569 59.3462 15.7365 59.4676 15.9115C59.6043 16.109 59.7258 16.2154 59.8625 16.2154V15.4099C59.4676 15.0148 59.1943 14.8173 59.0729 14.8173V15.4099ZM81.9885 75.1193C83.6765 76.4328 85.458 77.6213 87.3188 78.6754V76.3046C87.2336 75.4346 87.0657 74.5746 86.8177 73.7363C86.474 72.3594 86.0481 71.0044 85.5421 69.6787C85.0106 68.2957 84.4943 67.0496 84.0235 65.925C83.5527 64.8004 83.0363 64.2381 82.6415 64.2381C79.8047 64.2246 77.0122 64.9416 74.5322 66.3201C72.0586 67.7006 69.2703 68.4178 66.438 68.4021C65.1514 68.4021 63.8666 68.3005 62.5959 68.0982C61.2668 67.8661 60.0506 67.2041 59.1336 66.2137V68.4629C59.2551 69.3747 59.5284 71.5023 59.9233 74.5418L60.5154 75.1345C60.9586 75.2907 61.4283 75.3578 61.8974 75.332H63.416C65.6042 75.3396 67.7773 74.9694 69.8397 74.2378C71.9042 73.516 74.0765 73.1511 76.2634 73.1588C78.334 73.144 80.3479 73.8355 81.9733 75.1193H81.9885ZM63.6135 112.778C64.4031 112.778 65.3295 112.869 66.3773 112.869H68.1541C68.5656 112.295 68.774 111.599 68.7463 110.893C68.6878 109.947 68.4881 109.015 68.1541 108.127C66.6325 108.177 65.1276 107.798 63.8109 107.033C62.6183 106.319 61.2525 105.945 59.8625 105.954C59.866 107.112 59.9319 108.268 60.0599 109.419C60.1426 110.378 60.2744 111.331 60.4547 112.276C61.493 112.499 62.5423 112.666 63.5983 112.778H63.6135ZM62.4137 59.3447C63.8836 59.8253 65.4234 60.0564 66.9695 60.0286H69.3385C69.822 59.2835 70.5626 58.7426 71.419 58.5089C72.2124 58.2116 73.0479 58.0423 73.8943 58.0073C75.3515 58.1001 76.7832 58.4338 78.1313 58.9951C79.4817 59.5656 80.92 59.8997 82.3834 59.983C82.3982 59.7683 82.4286 59.5549 82.4745 59.3447C82.5333 59.1158 82.569 58.8816 82.5808 58.6456C82.5916 57.7854 82.5255 56.9258 82.3834 56.0773C82.2518 55.4289 82.0543 54.4411 81.7911 53.1139C80.7745 52.4654 79.6767 51.9544 78.5262 51.5942C77.274 51.2553 75.981 51.0917 74.684 51.1078C72.7105 51.154 70.7445 51.3676 68.8071 51.7461C66.7982 52.0773 64.7518 52.1132 62.7326 51.8525C61.5481 52.2477 60.8952 52.81 60.7585 53.5242C60.6224 54.2763 60.5563 55.0395 60.5611 55.8038C60.4396 57.7186 61.0925 58.9344 62.4137 59.3447ZM60.4395 98.386C61.4995 99.6898 62.6903 100.881 63.9931 101.942V101.152C63.9931 99.6321 63.9931 98.0212 63.7957 96.1064C63.7789 95.2701 63.5957 94.4456 63.2567 93.6811C62.9177 92.9165 62.4298 92.2273 61.8215 91.6537L61.6241 91.4561C61.0926 91.4561 60.7736 91.8512 60.637 92.6415C60.5095 93.3589 60.4435 94.086 60.4395 94.8146V98.386ZM70.3105 33.0385C68.9893 34.5583 67.6529 36.1995 66.271 37.9776C64.9667 39.6409 63.7793 41.3928 62.7174 43.2206C61.8739 44.4554 61.3519 45.8815 61.1988 47.3694V47.7645C61.2118 47.6804 61.2448 47.6005 61.2951 47.5317C61.3453 47.463 61.4112 47.4073 61.4874 47.3694C61.7 47.2326 61.7911 47.0958 61.7911 46.9742C61.7911 46.8527 62.353 46.3056 63.0819 45.4545C63.8108 44.6035 64.6005 43.5701 65.2535 42.5823C65.9065 41.5945 66.6659 40.6675 67.3189 39.8164C67.9719 38.9654 68.4426 38.4031 68.7007 38.1296C69.903 36.6712 71.191 35.2858 72.558 33.9808C73.8997 32.6375 74.9357 31.0202 75.5952 29.2393C76.2634 27.2637 76.8861 25.3488 77.4783 23.51C78.1131 21.5764 79.0847 19.7705 80.3484 18.1758H75.6408C75.5193 18.1758 75.3826 18.267 75.2459 18.4646C75.1342 18.6465 75.0017 18.8148 74.8511 18.966C74.6941 19.3159 74.5621 19.6765 74.4562 20.0451C74.3675 20.3376 74.3065 20.6378 74.274 20.9417C74.2466 21.569 74.1756 22.1935 74.0615 22.8109C73.94 23.6771 73.8337 24.5586 73.7729 25.4856C73.7122 26.4126 73.6362 27.2941 73.5755 28.1451C73.5147 28.9961 73.4844 29.5736 73.4844 29.8319C72.3509 30.8455 71.295 31.9428 70.3257 33.1145L70.3105 33.0385ZM63.902 90.1643C65.3766 91.1881 67.0641 91.8636 68.8375 92.1399C70.844 92.474 72.879 92.6064 74.9119 92.5351C76.9488 92.4534 78.9882 92.6167 80.9863 93.0214C81.3946 93.0601 81.7942 93.1626 82.1707 93.3253C82.4855 93.465 82.8175 93.5622 83.1579 93.6141C83.2386 93.6272 83.3213 93.6209 83.3991 93.5957C83.477 93.5706 83.5477 93.5273 83.6056 93.4694C83.6634 93.4115 83.7067 93.3407 83.7318 93.2628C83.7569 93.185 83.7632 93.1022 83.7502 93.0214C84.1694 91.855 84.5292 90.6682 84.8283 89.4653C85.1037 88.3187 85.4694 87.1956 85.9217 86.1067C85.9366 85.8417 85.967 85.5779 86.0129 85.3165C86.0698 85.0564 86.1053 84.7921 86.1192 84.5262C85.6667 84.4913 85.2136 84.5837 84.811 84.7932C84.4084 85.0027 84.0725 85.3209 83.8413 85.7116C83.6425 86.0829 83.3435 86.3909 82.9783 86.6004C82.6132 86.81 82.1965 86.9128 81.7759 86.897C81.5025 86.897 81.1533 86.6386 80.6825 86.1067C80.1921 85.5308 79.7645 84.9042 79.4069 84.2375C79.012 83.508 78.6172 82.8242 78.2224 82.1555C77.9032 81.7053 77.6998 81.1834 77.6301 80.6358H72.8769C72.2733 80.5615 71.6784 80.4292 71.1002 80.2407C70.5411 79.9979 69.9221 79.9291 69.3234 80.0431C68.9142 80.3758 68.6085 80.8187 68.4426 81.3196C68.1085 82.0491 68.0174 82.5506 68.1389 82.8393L61.2292 84.815C61.2894 85.8522 61.557 86.8669 62.0161 87.7988C62.4752 88.7307 63.1165 89.5609 63.902 90.2403V90.1643ZM64.1905 125.65C64.1905 125.908 64.3271 125.969 64.5853 125.847C64.8435 125.726 64.9801 125.771 64.9801 125.65C64.9877 125.596 64.9828 125.541 64.9657 125.49C64.9485 125.438 64.9196 125.392 64.8813 125.353C64.843 125.315 64.7964 125.286 64.745 125.269C64.6936 125.252 64.6389 125.247 64.5853 125.254C64.3271 125.194 64.2513 125.33 64.2513 125.725L64.1905 125.65ZM65.8762 100.741C65.8673 101.306 66.0799 101.852 66.4684 102.261C66.9214 102.575 67.4415 102.778 67.987 102.854C68.9393 103.089 69.8653 103.42 70.7509 103.842L72.2695 104.632C72.6707 104.888 73.105 105.087 73.5603 105.225C74.8685 105.426 76.1865 105.558 77.5086 105.62C79.4828 105.757 80.7889 105.817 81.457 105.817C81.4494 105.085 81.2871 104.362 80.9809 103.697C80.6747 103.032 80.2314 102.439 79.6802 101.957C78.4278 100.803 76.9904 99.8683 75.4281 99.1914C73.7746 98.471 72.0557 97.9112 70.2953 97.5197C68.8371 97.1656 67.3457 96.9669 65.8458 96.9271C65.7698 98.7659 65.7699 100.027 65.8762 100.818V100.741ZM75.5497 44.1476C77.848 44.6191 79.9898 45.6646 81.7759 47.187C82.9952 46.0852 83.9104 44.6878 84.4334 43.1294C85.1723 41.2534 86.3615 39.5885 87.8959 38.2816C86.4243 37.7238 84.8969 37.3263 83.3401 37.0961C81.8966 36.9574 80.4471 36.8915 78.9969 36.8986C78.0374 36.915 77.0794 36.9809 76.1267 37.0961C74.9823 37.2346 73.8567 37.4997 72.7706 37.8864C71.7322 38.2205 70.7606 38.7349 69.9004 39.4061C69.5199 39.7151 69.2153 40.1072 69.0099 40.5525C68.8046 40.9977 68.704 41.4842 68.7159 41.9744V42.9622C70.842 43.1598 73.1047 43.5549 75.5497 44.1476ZM70.113 166.499V163.733C69.9042 164.037 69.7405 164.37 69.6271 164.721C69.4897 165.038 69.3879 165.37 69.3234 165.709C69.3181 165.812 69.3353 165.914 69.3739 166.009C69.4126 166.104 69.4718 166.19 69.5472 166.259C69.6226 166.329 69.7123 166.381 69.8101 166.412C69.9079 166.443 70.0113 166.452 70.113 166.438V166.499ZM72.482 145.147C72.0872 146.074 71.7684 146.804 71.495 147.321H75.6408C76.0508 147.321 76.2483 147.062 76.2483 146.53C76.1258 145.895 75.8133 145.312 75.3522 144.859C74.76 144.129 74.274 143.764 73.8336 143.764C73.3932 143.764 72.8769 144.175 72.482 145.087V145.147ZM74.274 118.568C74.5173 119.734 74.9812 120.843 75.6408 121.835H74.8815C75.5813 121.415 76.3124 121.049 77.0683 120.741C77.5073 120.593 77.9106 120.354 78.2527 120.042C78.5301 119.746 78.7011 119.367 78.7387 118.963C78.8302 118.14 78.8658 117.313 78.845 116.486H85.3599C85.3673 115.34 85.0571 114.214 84.4639 113.233C83.8881 112.29 83.458 111.266 83.1882 110.194H80.9559C78.84 110.194 77.4581 110.787 76.8101 111.972C75.9258 113.415 74.7889 114.687 73.454 115.726C73.6058 116.03 73.8792 116.987 74.274 118.507V118.568ZM83.1579 156.226C83.416 155.557 83.6135 155.071 83.7502 154.706C83.8916 154.296 83.9584 153.864 83.9475 153.43C83.9725 153.242 83.954 153.051 83.8934 152.872C83.8327 152.693 83.7317 152.53 83.5981 152.397C83.4644 152.263 83.3017 152.162 83.1227 152.101C82.9436 152.04 82.753 152.022 82.5656 152.047H80.394C78.4595 152.034 76.553 152.509 74.8511 153.43L83.1579 156.226ZM78.9058 124.89C78.0849 125.353 77.4044 126.03 76.9366 126.848C76.4687 127.667 76.2309 128.597 76.2483 129.54V130.133C77.5397 129.651 78.9095 129.414 80.2877 129.434C81.2489 129.517 82.2171 129.45 83.1579 129.236C83.559 129.129 83.9329 128.939 84.2549 128.677C84.5769 128.415 84.8396 128.088 85.0257 127.716C85.6357 126.275 85.9408 124.722 85.9217 123.157H84.1449C82.2757 123.207 80.4591 123.787 78.9058 124.829V124.89ZM80.9863 143.126H81.7759C81.799 141.388 81.4251 139.667 80.6825 138.096C80.2601 137.312 79.6103 136.675 78.8187 136.268C78.0271 135.861 77.131 135.703 76.2483 135.816V138.369L80.9863 143.126ZM84.236 33.2209C86.5007 34.2486 88.9629 34.7673 91.4494 34.7406C93.0436 34.6869 94.5734 34.0981 95.7927 33.0689C97.3113 31.9443 98.4958 30.987 99.5588 30.1967H109.232L110.614 29.2089C108.824 27.4445 106.415 26.4517 103.902 26.443C102.852 26.4475 101.815 26.6809 100.865 27.1269C99.8777 27.598 98.9513 28.0539 98.1009 28.5098C97.2505 28.9657 96.3546 29.4368 95.4282 29.908C94.5741 30.3518 93.6268 30.5862 92.6643 30.5918C91.2287 30.5978 89.8345 30.1096 88.7159 29.2089C87.4684 28.2652 85.9358 27.7772 84.3727 27.826C82.9162 27.8286 81.4627 27.9608 80.0296 28.2211C79.2836 28.3506 78.5942 28.7029 78.0521 29.2319C77.5101 29.7608 77.1406 30.4415 76.9923 31.1845C79.5001 31.4628 81.9462 32.1453 84.236 33.2057V33.2209ZM86.605 23.8291C87.6812 24.0907 88.7072 24.527 89.6423 25.1209C90.3291 25.5889 90.9883 26.0963 91.6165 26.6406C91.9799 27.0301 92.4696 27.2778 92.9984 27.3396H93.1958C93.3325 27.3396 93.3932 27.3396 93.3932 27.1421C94.1829 26.4886 95.5041 25.5312 97.3416 24.2699C98.7665 23.1732 100.484 22.5228 102.277 22.4006C102.247 22.1695 102.129 21.9589 101.948 21.8119C101.768 21.665 101.537 21.5928 101.305 21.6104H100.303C99.2077 21.6113 98.1166 21.7439 97.053 22.0055C95.9832 22.2605 94.8879 22.3931 93.7881 22.4006C92.3666 22.4001 90.9482 22.2678 89.5511 22.0055C88.1499 21.7364 86.7259 21.6041 85.2991 21.6104C84.5639 21.5799 83.8291 21.6776 83.1275 21.8991C82.596 22.0966 82.1404 22.7197 81.7456 23.7835C83.3525 23.4827 85.002 23.493 86.605 23.8139V23.8291ZM85.5269 48.1444C84.9021 48.7049 84.4032 49.3915 84.0629 50.159C83.7226 50.9266 83.5487 51.7575 83.5527 52.5972C83.5527 52.734 83.5527 53.0531 83.6438 53.585C83.6974 53.912 83.7329 54.2418 83.7502 54.5728L88.6856 51.2142H89.2778C89.5295 51.2563 89.7684 51.3551 89.9764 51.503C90.1783 51.6547 90.412 51.7586 90.6598 51.8069C90.7965 51.8069 91.0546 51.6094 91.4494 51.2142V49.2386C91.4494 48.57 91.4494 47.9165 91.3583 47.263C91.2672 46.6095 90.8572 46.2752 90.0675 46.2752C89.2234 46.268 88.3862 46.4281 87.6043 46.7463C86.8224 47.0645 86.1112 47.5345 85.5117 48.1292L85.5269 48.1444ZM93.8184 40.9258C93.9245 41.3801 93.9906 41.8429 94.0158 42.3088C94.0158 42.7039 94.0158 43.3422 94.1221 44.1932C94.2284 45.0442 94.2436 45.9409 94.3196 46.8679C94.3955 47.7949 94.4107 48.7067 94.4107 49.6337V51.1534C95.1612 51.1383 95.8985 50.9527 96.5668 50.6104C97.2351 50.2681 97.8168 49.7783 98.268 49.1778C99.1947 48.0022 100.379 47.0558 101.73 46.412C103.887 45.3345 106.235 44.6941 108.64 44.5275C111.13 44.33 113.515 44.2388 115.747 44.2388C117.436 44.232 119.122 44.3641 120.789 44.6339C122.386 44.8913 124 45.0234 125.618 45.029C125.565 43.5372 125.086 42.092 124.236 40.865C123.372 39.5329 122.352 38.3085 121.199 37.2177C120.294 36.3685 119.217 35.7256 118.04 35.3333C116.797 34.9285 115.504 34.6984 114.198 34.6494C112.816 34.6494 111.161 34.543 109.156 34.543C108.093 34.543 106.787 34.5431 105.208 34.6494C103.58 34.7156 101.96 34.9138 100.364 35.2421C98.7865 35.557 97.2335 35.9836 95.7167 36.5187C94.4727 36.9156 93.3738 37.6716 92.558 38.6919C92.5186 38.5151 92.4173 38.3583 92.2726 38.2496C92.1278 38.1409 91.9489 38.0876 91.7683 38.0992H90.7812C90.0648 38.1349 89.3655 38.331 88.7347 38.6729C88.104 39.0148 87.5579 39.4938 87.1366 40.0748C86.1575 41.1965 85.2641 42.3903 84.4639 43.6461H85.0561C85.7984 43.6528 86.5353 43.5188 87.2277 43.251C87.8521 42.9846 88.5231 42.8451 89.2019 42.8407C89.671 42.8149 90.1407 42.882 90.5839 43.0382C91.0929 43.379 91.5571 43.7823 91.9658 44.2388L93.3476 39.4821C93.568 39.935 93.7263 40.4155 93.8184 40.9106V40.9258ZM88.0933 17.9023C87.629 18.0046 87.1932 18.209 86.8176 18.5008C86.442 18.7925 86.136 19.1643 85.9217 19.5891H97.7668C97.7632 19.324 97.6761 19.0667 97.518 18.8539C97.3598 18.6411 97.1387 18.4836 96.886 18.4038C96.2567 18.1206 95.593 17.9213 94.9118 17.8111C94.1603 17.6749 93.3977 17.6087 92.6339 17.6135H91.1153C90.1011 17.5964 89.088 17.6881 88.0933 17.8871V17.9023ZM88.0022 57.5362C87.2733 59.0559 86.7722 60.2413 86.4836 60.8948H87.2732C87.9142 60.6885 88.5766 60.556 89.2475 60.4997C89.9821 60.4363 90.7092 60.304 91.4191 60.1045L90.6294 55.3631L90.432 55.1655C89.5309 55.1554 88.721 55.9405 88.0022 57.521V57.5362ZM87.7896 69.8003C88.0197 70.3023 88.3216 70.7681 88.6856 71.1832H88.8829C89.366 71.1676 89.8393 71.0434 90.2678 70.8198C90.6963 70.5962 91.069 70.2789 91.3583 69.8915C91.6796 69.4757 92.0799 69.1275 92.5359 68.8667C92.9919 68.606 93.4948 68.4377 94.0158 68.3717L92.0417 64.2078C91.7864 64.1134 91.5217 64.0472 91.2521 64.0102C90.7046 64.0289 90.1691 64.1761 89.689 64.4401C89.2088 64.7041 88.7975 65.0774 88.4882 65.5299C87.7759 66.3231 87.3577 67.3371 87.3036 68.4021C87.3813 68.8886 87.546 69.357 87.7896 69.7851V69.8003ZM88.6856 95.6353C88.8063 96.9263 89.2848 98.158 90.0675 99.1914C91.2034 98.5767 92.1054 97.6046 92.6339 96.4255C93.4236 94.9666 94.2133 94.2372 95.003 94.2372C95.618 94.2275 96.2267 94.3628 96.7797 94.6323C97.3314 94.9056 97.9411 95.0412 98.5565 95.0274C100.424 95.0546 102.277 94.6869 103.993 93.9484C105.708 93.2047 107.561 92.8318 109.43 92.8542C110.647 92.7759 111.848 93.1675 112.786 93.9484C113.595 94.6799 114.657 95.067 115.747 95.0274H115.884C116.324 94.7567 116.723 94.4239 117.068 94.0396L118.055 93.0518V92.2616C117.295 92.221 116.539 92.1245 115.793 91.9728L112.224 91.3801L108.67 90.7874C107.906 90.6712 107.15 90.5037 106.408 90.2859C106.058 90.2133 105.724 90.0796 105.421 89.8908C104.889 89.6325 104.297 89.3741 103.644 89.1005C102.996 88.8529 102.366 88.5583 101.761 88.2191C100.815 87.8841 99.9431 87.3679 99.1943 86.6994C98.8682 86.438 98.4978 86.2372 98.1009 86.1067H97.5087C95.8796 86.1195 94.2693 86.4553 92.7707 87.0946C91.2934 87.7047 89.9001 88.5014 88.6248 89.4653C88.615 89.8976 88.5795 90.329 88.5185 90.757C88.5185 91.3497 88.4274 91.7145 88.4274 91.836C88.446 93.1213 88.5323 94.4047 88.6856 95.6809V95.6353ZM89.9764 82.2923C89.779 83.1433 89.536 83.9639 89.2778 84.7542C89.536 84.6326 90.2042 84.2679 91.2521 83.6752C92.2999 83.0825 92.7707 82.657 92.7707 82.3835C92.7707 82.1099 92.7707 81.9883 92.5732 81.9883C92.3326 81.5839 92.036 81.2155 91.6924 80.8941C91.3669 80.555 90.9994 80.2588 90.599 80.0127C90.3326 80.7708 90.1245 81.5481 89.9764 82.3379V82.2923ZM102.702 104.024C103.593 104.595 104.423 105.258 105.178 106C105.907 106.729 106.529 107.383 107.061 107.975C107.592 108.568 107.972 108.872 108.245 108.872L108.443 108.674C109.378 107.31 110.172 105.854 110.812 104.328C111.484 102.712 112.346 101.182 113.378 99.7689C111.267 99.237 109.126 98.7811 106.954 98.386C104.835 97.9957 102.685 97.7973 100.531 97.7933C99.8926 97.8887 99.2664 98.0518 98.6628 98.2796L95.5041 99.3738C94.4431 99.7193 93.4243 100.183 92.4669 100.757C91.6013 101.289 91.176 101.745 91.176 102.14C91.176 102.535 91.1761 102.535 91.3735 102.535C91.372 102.794 91.4239 103.05 91.5258 103.288C91.6277 103.526 91.7774 103.74 91.9658 103.918C93.4844 103.659 94.6688 103.462 95.7167 103.325C96.9667 103.18 98.2246 103.114 99.4829 103.127C100.626 103.109 101.749 103.438 102.702 104.07V104.024ZM93.3325 131.212C94.7145 131.348 95.7319 131.409 96.3697 131.409C97.0365 131.387 97.701 131.321 98.3591 131.212C99.3206 131.065 100.274 130.867 101.214 130.619C102.125 130.384 103.018 130.085 103.887 129.722C104.676 129.403 105.071 129.038 105.071 128.643C105.071 126.273 104.145 125.087 102.292 125.087C102.088 125.11 101.891 125.178 101.715 125.285C101.096 125.392 100.497 125.591 99.9384 125.877C99.0121 126.273 98.4198 126.531 98.1465 126.668H97.5542C97.296 126.531 96.7038 126.273 95.7775 125.877C95.2176 125.593 94.6189 125.394 94.0007 125.285L93.4084 125.087C92.6188 125.087 92.0568 125.649 91.7379 126.759C91.4504 127.624 91.2819 128.523 91.2369 129.434C91.252 130.528 91.9506 131.12 93.3325 131.257V131.212ZM92.2391 134.175C92.2391 134.57 92.3758 134.768 92.6339 134.768C92.7147 134.781 92.7974 134.775 92.8752 134.749C92.953 134.724 93.0238 134.681 93.0816 134.623C93.1395 134.565 93.1827 134.494 93.2079 134.417C93.233 134.339 93.2393 134.256 93.2262 134.175C93.2262 133.643 93.0288 133.385 92.6339 133.385C92.2391 133.385 92.2391 133.689 92.2391 134.221V134.175ZM93.0288 78.6298C93.3021 79.5568 93.7577 80.0127 94.4107 80.0127H94.8055L98.9513 75.8639C98.7874 75.3528 98.5185 74.8817 98.1617 74.481L96.7797 73.098H96.5823C95.6134 73.1762 94.7039 73.5963 94.0158 74.2834C93.6446 74.5268 93.3294 74.8465 93.0912 75.2212C92.8529 75.5959 92.6971 76.017 92.6339 76.4566C92.6935 77.2136 92.8518 77.9595 93.1047 78.6754L93.0288 78.6298ZM95.2004 61.1379C96.6357 62.1717 98.2962 62.8489 100.045 63.1136C101.971 63.4439 103.922 63.6066 105.876 63.5998H110.812L113.469 63.5087L115.944 63.4023C116.834 63.4155 117.703 63.138 118.42 62.612C119.093 62.1411 119.662 61.5357 120.09 60.834H128.989V55.895C128.573 55.5965 128.096 55.394 127.592 55.3023C125.891 54.7704 123.978 54.0865 121.867 53.2203C119.984 52.409 117.986 51.8963 115.944 51.7006H111.389C109.449 51.6343 107.513 51.9016 105.664 52.4908C104.317 52.9726 102.999 53.5307 101.715 54.1625C100.515 54.7704 99.3006 55.3327 98.0554 55.8494C96.5081 56.4287 94.862 56.6972 93.211 56.6396C93.1379 57.5029 93.2815 58.3708 93.629 59.1644C93.9764 59.958 94.5166 60.6521 95.2004 61.1835V61.1379ZM93.4236 135.604C94.0918 138.111 94.7448 139.494 95.3978 139.752C95.814 139.394 96.2793 139.097 96.7797 138.871C97.2044 138.618 97.6735 138.448 98.1617 138.369H98.9513C99.2962 138.431 99.6327 138.533 99.9536 138.673C100.268 138.813 100.6 138.91 100.941 138.962H101.73L102.307 136.196C99.278 136.878 96.1029 136.384 93.4236 134.813V135.604ZM94.2133 69.1924C94.2002 69.2732 94.2065 69.3559 94.2316 69.4338C94.2567 69.5117 94.3 69.5825 94.3578 69.6404C94.4157 69.6982 94.4864 69.7415 94.5643 69.7667C94.6421 69.7919 94.7248 69.7982 94.8055 69.7851C95.0789 69.7851 95.2004 69.5875 95.2004 69.1924C95.2004 68.7973 95.0789 68.4021 94.8055 68.4021C94.5322 68.4021 94.2133 68.6605 94.2133 69.1924ZM95.899 111.288C96.6234 112.353 97.5218 113.288 98.5565 114.054C99.6196 114.844 100.804 115.68 102.125 116.531C103.576 117.544 104.789 118.861 105.679 120.391C105.937 119.328 106.134 118.507 106.271 117.914C106.417 117.097 106.483 116.267 106.468 115.437C106.496 114.973 106.46 114.508 106.362 114.054C105.976 113.619 105.549 113.222 105.087 112.869C104.418 112.352 103.462 111.562 102.216 110.498C100.956 109.449 99.908 108.583 99.0576 107.93C98.2072 107.276 97.706 106.881 97.539 106.744H94.7751C94.6845 108.338 95.0762 109.921 95.899 111.288ZM97.5694 162.198C96.9023 162.56 96.3142 163.052 95.8396 163.644C95.3649 164.237 95.0133 164.918 94.8055 165.648H101.73C102.778 164.341 103.431 163.475 103.705 163.08C103.978 162.685 104.023 162.366 104.297 161.697C104.297 161.044 103.507 160.77 101.913 160.907C100.374 160.932 98.8722 161.379 97.5694 162.198ZM95.3978 121.166C95.5521 121.309 95.685 121.472 95.7927 121.653C95.9293 121.85 96.066 121.881 96.1875 121.759L101.73 120.376C101.112 119.636 100.379 119 99.5588 118.492C98.7387 117.93 97.7733 117.618 96.7797 117.595C96.1318 117.595 95.737 117.793 95.5952 118.188C95.4589 118.683 95.3924 119.194 95.3978 119.707V121.166ZM97.0834 150.618C97.8413 151.567 98.7021 152.428 99.6499 153.187C100.606 153.96 101.67 154.59 102.809 155.056C103.71 155.475 104.686 155.712 105.679 155.755V154.767L104.388 150.907C104.054 149.919 103.705 148.871 103.31 147.746C102.915 146.621 102.581 145.74 102.307 145.071C102.214 144.516 101.925 144.012 101.494 143.65C101.063 143.288 100.517 143.091 99.9536 143.096H99.5588L97.8731 144.783L96.1875 146.454C96.0916 146.982 96.0257 147.515 95.9901 148.05C96.0534 149.01 96.4386 149.92 97.0834 150.634V150.618ZM96.6886 157.138C97.472 157.46 98.3194 157.595 99.1639 157.533H99.5588L96.1419 153.399C95.9873 153.632 95.9175 153.911 95.9445 154.19V155.177C95.99 156.226 96.2178 156.895 96.6886 157.153V157.138ZM99.4525 72.1406C100.145 73.3969 100.905 74.6144 101.73 75.7879C102.513 76.911 103.555 77.8285 104.768 78.4626C106.412 79.1998 108.207 79.5383 110.007 79.4504C111.553 79.4609 113.091 79.2249 114.563 78.7513C116.081 78.2954 117.433 77.8395 118.815 77.3684C120.197 76.8973 121.609 76.5174 123.052 76.183C124.547 75.8548 126.083 75.7575 127.607 75.8943C128.155 75.3367 128.475 74.5939 128.503 73.8123C128.503 72.9612 128.61 72.2014 128.61 71.5479C126.962 71.5346 125.324 71.8018 123.765 72.3382C122.205 72.8673 120.568 73.1343 118.921 73.1284C115.616 73.163 112.324 72.7281 109.141 71.8367C105.887 70.8778 102.692 69.7259 99.574 68.387H96.7949C97.8217 69.5376 98.7133 70.8021 99.4525 72.1558V72.1406ZM100.971 84.891C101.649 85.3334 102.44 85.5709 103.249 85.5748C103.402 85.564 103.544 85.4929 103.644 85.3773C103.765 85.2557 104.494 84.2679 105.815 82.4138L105.618 82.0187C105.345 81.7604 104.783 81.2893 103.932 80.6358C103.082 79.9823 102.52 79.5112 102.247 79.2529H101.67C101.403 79.5565 101.168 79.8876 100.971 80.2407C100.637 80.7726 100.409 81.1677 100.272 81.426C100.089 81.6437 99.9269 81.8777 99.7866 82.1251C99.64 82.3283 99.5413 82.5621 99.4981 82.809C99.7181 83.6807 100.268 84.4327 101.032 84.9062L100.971 84.891ZM100.941 182.441V176.712C100.594 176.866 100.298 177.114 100.086 177.428C99.8735 177.743 99.7541 178.111 99.741 178.49C99.6288 179.275 99.5679 180.067 99.5588 180.86C99.5588 181.924 100.014 182.441 100.941 182.441ZM102.459 121.166C102.446 121.247 102.452 121.33 102.478 121.408C102.503 121.486 102.546 121.556 102.604 121.614C102.662 121.672 102.732 121.716 102.81 121.741C102.888 121.766 102.971 121.772 103.052 121.759C103.31 121.759 103.446 121.561 103.446 121.166C103.446 120.771 103.31 120.376 103.052 120.376C102.793 120.376 102.52 120.65 102.52 121.182L102.459 121.166ZM103.249 121.957C103.249 122.337 103.37 122.549 103.644 122.549C103.917 122.549 104.039 122.337 104.039 121.957C104.039 121.577 103.902 121.166 103.644 121.166C103.386 121.166 103.31 121.44 103.31 121.972L103.249 121.957ZM104.768 146.849C104.916 148.605 105.731 150.236 107.045 151.409C107.473 151.131 107.823 150.75 108.064 150.301C108.306 149.852 108.431 149.35 108.427 148.84C108.443 148.086 108.196 147.35 107.729 146.758C107.233 146.031 106.992 145.16 107.045 144.281C107.035 143.149 107.167 142.021 107.44 140.923C107.707 139.823 107.839 138.695 107.835 137.564V136.576C107.846 136.344 107.772 136.115 107.627 135.933C107.481 135.751 107.275 135.629 107.045 135.588C106.107 136.319 105.418 137.323 105.071 138.461C104.606 139.555 104.338 140.723 104.282 141.91C104.324 143.572 104.492 145.228 104.783 146.865L104.768 146.849ZM114.745 125.315V124.525C114.533 123.885 114.4 123.222 114.35 122.549C114.28 121.815 114.148 121.088 113.955 120.376H112.573C111.359 120.406 110.158 120.637 109.02 121.06C108.411 121.239 107.883 121.623 107.523 122.146C107.164 122.669 106.995 123.299 107.045 123.932V124.525C107.431 124.185 107.916 123.978 108.427 123.932H109.809C111.56 123.906 113.281 124.392 114.76 125.33L114.745 125.315ZM108.519 85.6812C108.241 86.285 108.013 86.9101 107.835 87.5504H109.217C110.035 87.5653 110.843 87.3741 111.568 86.9943C112.292 86.6146 112.91 86.0585 113.363 85.3773L110.599 83.9943H110.204C109.551 84.0095 109.004 84.5718 108.534 85.6964L108.519 85.6812ZM110.204 132.625C110.915 133.201 111.677 133.71 112.482 134.145C113.325 134.601 114.217 134.963 115.14 135.224C115.842 135.455 116.573 135.588 117.311 135.619H118.693C118.556 135.36 118.238 134.768 117.706 133.841C117.175 132.914 116.856 132.321 116.719 132.063C116.516 131.767 116.381 131.429 116.324 131.075C116.267 130.72 116.132 130.383 115.929 130.087C115.837 129.588 115.634 129.116 115.337 128.704H110.599C110.326 128.704 109.87 129.358 109.217 130.68V131.075C109.254 131.395 109.363 131.702 109.537 131.974C109.711 132.245 109.944 132.473 110.219 132.64L110.204 132.625ZM110.888 115.726C111.204 116.066 111.587 116.337 112.013 116.523C112.439 116.709 112.898 116.804 113.363 116.805C113.345 115.213 113.183 113.626 112.877 112.063C112.543 110.361 112.239 109.024 111.981 108.112C111.423 108.905 110.916 109.732 110.462 110.589C110.043 111.411 109.84 112.326 109.87 113.249C109.866 113.712 109.955 114.172 110.133 114.6C110.31 115.028 110.572 115.416 110.903 115.741L110.888 115.726ZM109.809 154.782H110.204C110.857 154.782 111.191 154.585 111.191 154.19V151.424L109.809 154.782ZM115.337 143.217C116.469 143.663 117.674 143.895 118.891 143.901C119.954 143.901 120.531 143.643 120.667 143.111C120.815 142.463 120.881 141.8 120.865 141.135V139.752C120.056 139.558 119.234 139.426 118.405 139.357C117.569 139.306 116.74 139.174 115.929 138.962H115.14C114.687 138.91 114.231 139.018 113.849 139.266C113.382 139.86 112.956 140.484 112.573 141.135C113.268 142.094 114.237 142.82 115.352 143.217H115.337ZM118.207 85.59C119.527 85.9399 120.882 86.1387 122.247 86.1827C123.31 86.1827 123.963 85.4685 124.221 84.0096C122.702 83.7512 121.624 83.584 120.774 83.5232C119.923 83.4624 118.754 83.4168 117.311 83.4168H114.745C115.149 83.9944 115.665 84.4846 116.262 84.858C116.86 85.2314 117.526 85.4803 118.222 85.59H118.207ZM117.615 89.1461C117.275 89.508 116.974 89.9055 116.719 90.3315H121.457C121.175 89.8462 120.81 89.4141 120.379 89.0549C119.65 88.3255 119.088 88.0367 118.693 88.1583C118.29 88.4303 117.931 88.7635 117.63 89.1461H117.615ZM126.21 90.6658C127.19 90.6883 128.154 90.4128 128.974 89.8756C129.758 89.3598 130.485 88.764 131.146 88.0976H126.21V90.6658Z" fill="#4E364A"/>
</g>
<defs>
<clipPath id="clip0_245_208">
<rect width="160" height="187" fill="white"/>
</clipPath>
</defs>
</svg>
