<svg width="145" height="173" viewBox="0 0 145 173" fill="none" xmlns="http://www.w3.org/2000/svg">
<g clip-path="url(#clip0_245_214)">
<path d="M37.5046 112.631L36.2938 111.941C36.1759 111.941 35.7794 111.585 35.0829 110.863L32.6613 108.427L29.8111 105.559C28.836 104.578 28.0537 103.738 27.4858 103.037C25.1577 100.581 23.152 97.8344 21.5174 94.8654C19.8462 91.8544 18.4853 88.6793 17.4563 85.3897C15.3981 78.837 14.3501 72.0058 14.3488 65.1338C14.3488 63.0424 14.4024 61.0804 14.5203 59.2262C14.6633 57.2767 15.0227 55.3495 15.5918 53.4804C15.6845 53.1436 15.8291 52.8235 16.0204 52.5317C16.3062 51.9999 16.5954 51.4501 16.8883 50.8824C17.1449 50.3422 17.4311 49.8167 17.7456 49.3085C17.9396 49.0482 18.0881 48.7565 18.1848 48.4461V47.7453C17.7056 48.3173 17.2722 48.9265 16.8883 49.5672L15.5918 51.5723C15.365 51.9537 15.1885 52.3632 15.0668 52.7905L14.381 53.4804C13.365 52.8812 12.251 52.4687 11.0913 52.2622C10.0025 52.1417 8.9078 52.0841 7.81245 52.0898C6.28153 52.0499 4.77858 52.5073 3.52632 53.3942C2.61316 54.1504 1.49088 54.6058 0.311714 54.6986H-0.03125C0.31957 52.5967 1.02255 50.57 2.04759 48.7048C3.06758 46.8176 3.82128 44.7966 4.28706 42.7002C4.74425 40.5011 5.10143 38.0971 5.3586 35.4883C5.61739 32.9891 6.29107 30.5513 7.35163 28.2764C8.55409 25.9745 10.1964 23.9339 12.1843 22.2718C14.4592 20.2947 16.8573 18.4656 19.3636 16.7955C21.9567 15.0635 24.5176 13.4105 27.0464 11.8366C29.5753 10.2627 31.7648 8.78585 33.6149 7.40599C35.8009 5.78897 37.8475 4.13961 39.7548 2.4579C41.7452 0.74214 44.304 -0.158258 46.9234 -0.0646602C48.2046 0.0413985 49.4761 0.243182 50.7274 0.539026C52.6884 0.948672 54.7242 1.43378 56.8673 2.01591C59.0104 2.59804 60.9283 3.18017 62.6535 3.7623C63.6811 4.0317 64.6686 4.43773 65.5896 4.96967C65.2467 5.444 64.5823 6.27408 63.6072 7.49223C62.6321 8.71039 61.6142 9.99323 60.5748 11.3192C59.5354 12.6451 58.5282 13.8956 57.5531 15.0599C56.578 16.2242 55.9136 17.0327 55.5707 17.4962L54.1456 19.0378C53.7079 19.5062 53.385 20.071 53.2026 20.6871C51.4667 22.6599 49.5166 24.7513 47.3199 26.9504C45.1255 29.159 43.0781 31.5106 41.1908 33.9899C39.319 36.4283 37.6964 39.0504 36.3474 41.8163C35.046 44.4337 34.3674 47.3197 34.3651 50.2463V52.1544C34.7759 50.0083 35.3234 47.891 36.0044 45.8157C36.6121 43.9488 37.3943 42.144 38.3404 40.4256C39.2789 38.7129 40.3166 37.0571 41.4479 35.4667C42.7428 33.659 44.1268 31.9176 45.5948 30.2492C46.7087 29.8599 47.6947 29.17 48.4451 28.2548C49.6523 27.0331 50.9202 25.6712 52.2489 24.1691C53.5776 22.6599 54.8099 21.1507 55.9671 19.6415C56.8195 18.4851 57.7429 17.3834 58.7318 16.3427L60.7998 14.2514L64.0144 11.0173L67.229 7.7833C67.9381 7.04628 68.6896 6.35157 69.4793 5.70272C72.9487 5.00343 76.3154 3.86233 79.4981 2.30698C82.6774 0.756988 86.1662 -0.0430715 89.6991 -0.032321C91.89 -0.0751855 94.0697 0.29031 96.1283 1.0457C98.0639 1.78551 99.894 2.77865 101.572 3.99946C103.294 5.27258 104.884 6.71725 106.319 8.31153C107.819 9.93574 109.247 11.5564 110.605 13.1734C111.502 14.3134 112.59 15.2874 113.819 16.0517C115.048 16.812 116.136 17.7824 117.034 18.9192C115.484 19.8811 114.207 21.2289 113.326 22.8324C112.618 24.1762 112.01 25.5706 111.505 27.0043C111.044 28.3303 110.648 29.5269 110.294 30.5618C110.148 31.0551 109.882 31.5044 109.522 31.8693C109.161 32.2343 108.715 32.5036 108.226 32.6531C106.119 32.5261 104.004 32.6128 101.915 32.9119C99.8244 33.2144 97.7147 33.3586 95.6032 33.3431C94.6362 33.3547 93.6738 33.2091 92.753 32.9119L90.1598 32.0387L87.481 31.1762C86.4729 30.8749 85.4251 30.7295 84.3735 30.745C83.5838 30.0716 83.0376 29.1544 82.8198 28.1362C82.5841 27.0582 82.327 26.0449 82.0376 24.9992C81.7685 24.0037 81.3297 23.0627 80.741 22.2179C80.3526 21.7623 79.8778 21.3893 79.3442 21.1209C78.8105 20.8525 78.229 20.694 77.6336 20.6548L62.6322 18.2185C61.6999 17.9921 61.0463 18.4233 60.6391 19.5229C60.302 20.3246 60.0992 21.177 60.039 22.0455C60.0567 23.6927 60.2873 25.3306 60.7248 26.9181C61.1499 28.6278 61.8214 30.2658 62.7178 31.7799C63.6165 33.264 64.7874 34.5627 66.1682 35.6069C67.5652 36.6547 69.2693 37.2047 71.0115 37.17H71.8795C72.1045 37.0622 72.6188 36.8251 73.4332 36.4801C74.2476 36.1351 74.7511 35.898 74.9869 35.7794C75.7905 35.6716 76.2192 35.8656 76.2835 36.3938C76.3478 36.9221 76.3692 37.3425 76.3692 37.6982C76.3692 39.0889 75.5655 40.2424 73.9475 41.1695C72.3295 42.0965 71.0115 42.8512 69.9722 43.4333C69.7396 43.1353 69.5384 42.8138 69.372 42.4739C69.0713 41.9159 68.712 41.3919 68.3005 40.9107C67.8669 40.4206 67.4055 39.9563 66.9183 39.5201C66.5985 39.1809 66.1694 38.9669 65.7075 38.9164H65.0217C64.2432 40.1111 63.6032 41.3915 63.1143 42.7326C62.785 43.7304 62.5236 44.7497 62.3321 45.7834L61.8178 48.7371C61.5849 49.9083 61.2069 51.0455 60.6926 52.1221C59.9035 53.9626 58.9192 55.7119 57.7566 57.3397C56.5994 58.9675 55.5172 60.5737 54.4778 62.1261C53.4351 63.6888 52.5383 65.3452 51.799 67.0742C51.0525 68.8948 50.6877 70.851 50.7274 72.82C50.7028 73.9772 50.9067 75.1277 51.3274 76.205C51.7511 77.2855 51.9586 78.4394 51.9382 79.6007C51.9479 80.364 51.7357 81.1134 51.3274 81.7568C50.908 82.4662 50.6998 83.2818 50.7274 84.1068C50.6509 85.4106 50.9484 86.7091 51.5846 87.8475C52.1095 88.6637 52.7863 89.3702 53.5776 89.9281L55.6565 91.405C56.2593 91.8342 56.7098 92.4461 56.9423 93.1514C57.143 93.7961 57.2336 94.4705 57.2101 95.1457C57.1459 95.5554 57.0922 95.9327 57.0387 96.2776C56.9743 96.5942 56.9743 96.9205 57.0387 97.2371C57.1825 97.7506 57.3839 98.2461 57.6388 98.7139C57.9973 99.4189 58.5329 100.017 59.1925 100.45L61.2713 101.84C61.9501 102.3 62.5599 102.856 63.0821 103.49C63.5837 104.095 63.8602 104.857 63.8643 105.646C63.8505 106.055 63.7213 106.451 63.4917 106.789C63.2621 107.127 62.9417 107.392 62.5678 107.554C61.8588 107.978 61.0562 108.219 60.2319 108.254C59.9692 108.249 59.7072 108.221 59.4496 108.168C59.252 108.124 59.0515 108.096 58.8496 108.082C58.6139 108.082 57.7781 107.996 56.3423 107.823C54.8957 107.651 54.0705 107.554 53.8348 107.554C52.7497 107.532 51.6713 107.729 50.663 108.132C49.6546 108.536 48.7365 109.138 47.9628 109.904C47.1751 110.651 46.5524 111.556 46.1352 112.561C45.718 113.565 45.5155 114.647 45.5411 115.736C45.4676 116.213 45.529 116.702 45.7185 117.146C45.908 117.591 46.2178 117.972 46.6127 118.248C46.9594 118.448 47.2436 118.742 47.4329 119.096C47.6223 119.451 47.7093 119.851 47.6842 120.253C45.9841 120.353 44.2942 119.928 42.8408 119.035C41.6686 118.202 40.7191 117.091 40.0763 115.801C39.3499 114.372 38.827 112.848 38.5227 111.273C38.1798 109.602 37.8262 107.888 37.4511 106.141L37.5046 112.631ZM17.7134 134.666C19.135 134.485 20.5713 134.453 21.9996 134.569C21.6567 134.224 21.4316 134.051 21.3138 134.051C20.6085 133.865 19.8929 133.721 19.1707 133.62C18.4621 133.491 17.7465 133.404 17.0276 133.361V132.661C17.0223 131.406 17.1372 130.153 17.3706 128.92C17.6039 127.629 17.7186 126.319 17.7134 125.007C17.7589 122.414 17.3787 119.832 16.5883 117.364C15.8635 115.221 14.9379 113.153 13.8237 111.187C12.7308 109.275 11.495 107.334 10.1163 105.365C8.66234 103.276 7.38962 101.065 6.31228 98.7571C5.62608 97.2897 5.13261 95.7387 4.84428 94.1432C4.55734 92.6257 4.41023 91.0847 4.40492 89.54C4.40492 87.923 4.405 86.306 4.49072 84.7536C4.55266 83.1614 4.52396 81.567 4.40492 79.978C4.41145 78.842 4.17766 77.7175 3.71912 76.6793C3.25836 75.6013 2.76546 74.588 2.25112 73.5423C1.73679 72.4966 1.17959 71.3863 0.783126 70.3082C0.32485 69.2354 0.0880003 68.0802 0.0867338 66.9125V66.74L3.8906 54.7417L5.10144 53.5235C5.36111 53.3742 5.66195 53.3137 5.95872 53.351H7.03025C8.13228 53.3379 9.2332 53.4245 10.3198 53.6098C11.4268 53.8933 12.4396 54.466 13.2558 55.2699V68.4864C13.2558 68.7128 13.3415 69.3811 13.513 70.4807C13.6844 71.5803 13.8344 72.4211 13.9416 73.0033C14.4118 75.4968 14.7303 78.0168 14.8953 80.5494C15.0638 83.1173 15.5571 85.6531 16.3633 88.0955C17.2841 90.873 18.5324 93.5295 20.0815 96.0081C21.6367 98.5064 23.37 100.888 25.2678 103.134C27.1644 105.398 29.1788 107.564 31.3111 109.602C33.4435 111.639 35.5973 113.72 37.6225 115.693C38.019 116.373 38.4821 117.013 39.0048 117.601C39.4362 118.271 39.6184 119.073 39.5191 119.865C39.526 121.186 39.154 122.481 38.4476 123.595C37.7231 124.768 37.351 126.127 37.376 127.508C37.376 127.864 37.3761 128.349 37.4618 128.985C37.5476 129.621 37.5475 130.009 37.5475 130.063C37.6774 130.624 37.914 131.155 38.244 131.626C38.6941 132.445 38.8762 132.963 38.7584 133.2C38.6405 133.437 38.3833 133.782 37.6868 134.278C37.2341 134.537 36.8008 134.829 36.3903 135.151C36.2724 135.151 36.1545 135.237 36.0473 135.41C35.9429 135.564 35.8284 135.712 35.7045 135.852H35.533C34.9075 135.866 34.2862 135.745 33.7115 135.496C33.1379 135.257 32.5213 135.139 31.9005 135.151C31.3305 135.18 30.7725 135.327 30.261 135.582L28.3538 136.455L26.6285 137.242C26.326 137.396 26.0058 137.512 25.675 137.587C25.4392 137.587 25.0963 137.35 24.6034 136.887C24.2644 136.574 23.9752 136.21 23.7462 135.808C24.4605 139.517 22.9032 141.371 19.0743 141.371C18.5693 141.423 18.0594 141.347 17.5914 141.149C17.1233 140.951 16.7121 140.638 16.3955 140.239C15.8388 139.328 15.5698 138.268 15.624 137.199C15.5704 135.733 16.2776 134.838 17.7134 134.666ZM22.6424 135.269C22.6424 135.733 22.8139 135.97 23.1568 135.97C23.4997 135.97 23.5105 135.733 23.5105 135.269C23.5105 134.806 23.3925 134.569 23.1568 134.569C22.921 134.569 22.6424 134.806 22.6424 135.269ZM27.3036 137.878C28.4267 136.962 29.8332 136.47 31.2791 136.488C32.5812 136.502 33.825 137.033 34.7401 137.965C35.236 138.414 35.6309 138.965 35.8988 139.58C36.1666 140.196 36.3013 140.861 36.2938 141.533C36.2973 142.064 36.1057 142.578 35.7557 142.976C35.4056 143.374 34.9218 143.628 34.3971 143.689C33.3765 143.948 32.3312 144.096 31.2791 144.131C30.9362 144.131 30.4218 144.131 29.7253 144.045C29.083 143.989 28.4476 143.87 27.8286 143.689C27.2682 143.527 26.7417 143.264 26.275 142.913C26.0547 142.756 25.8761 142.547 25.7546 142.305C25.6332 142.062 25.5727 141.793 25.5784 141.522C25.5675 140.816 25.723 140.118 26.0322 139.485C26.3414 138.851 26.7955 138.301 27.3572 137.878H27.3036ZM32.0613 82.5006C32.2453 85.8817 32.795 89.2326 33.7008 92.4938C33.7008 92.2674 33.7007 91.8901 33.7864 91.4158C33.8351 91.0584 33.8637 90.6984 33.8721 90.3378C33.8733 87.1952 33.6441 84.0569 33.1863 80.9482C32.721 77.7788 32.4883 74.5793 32.4899 71.3755C32.4916 68.9546 32.7247 66.5395 33.1863 64.1635C33.6457 61.7875 33.8754 59.3722 33.8721 56.9516C33.8721 56.7145 33.8722 56.2509 33.7864 55.561C33.7007 54.871 33.7008 54.3967 33.7008 54.1703C32.7817 57.1637 32.2311 60.2591 32.0613 63.3874C31.8898 66.5136 31.8041 69.5824 31.8041 72.5936C31.8041 75.8923 31.8898 79.1947 32.0613 82.5006ZM35.1687 100.665C35.6974 102.412 36.2473 104.093 36.8188 105.71C36.9519 105.506 37.0124 105.263 36.9903 105.02V104.147C37.0045 102.406 36.7404 100.673 36.2081 99.0158C35.6938 97.4527 35.1365 95.6847 34.3971 93.712V95.2751C34.3919 97.1 34.6519 98.9159 35.1687 100.665ZM36.9903 135.442C37.5889 135.186 38.237 135.068 38.8869 135.097C39.66 135.065 40.4298 135.213 41.1371 135.528C41.4403 135.718 41.6825 135.992 41.8346 136.317C41.9866 136.642 42.0422 137.005 41.9944 137.361C41.942 138.405 41.5675 139.408 40.9229 140.228C40.6727 140.657 40.3204 141.017 39.8977 141.275C39.4749 141.533 38.995 141.681 38.5012 141.705C38.3238 141.694 38.1479 141.665 37.9762 141.619C37.8094 141.567 37.6364 141.538 37.4618 141.533C37.0817 140.981 36.8156 140.358 36.6795 139.7C36.4594 139.055 36.3156 138.385 36.251 137.706C36.2939 136.434 36.5188 135.679 37.001 135.442H36.9903ZM67.6683 149.704C68.2181 149.098 68.8953 148.623 69.6506 148.313C70.4383 147.97 71.2472 147.678 72.0723 147.44C72.7433 147.233 73.4389 147.117 74.1404 147.095C74.9375 147.026 75.7335 147.24 76.3906 147.699C76.807 148.081 77.1677 148.52 77.4622 149.003C77.7233 149.42 77.9526 149.856 78.148 150.308C78.2419 150.509 78.3953 150.676 78.5871 150.786C78.7789 150.896 78.9997 150.943 79.2195 150.922C79.2276 150.39 79.1405 149.86 78.9623 149.359C78.7843 148.854 78.6972 148.321 78.7052 147.785V147.268C79.3416 146.309 80.0585 145.408 80.8483 144.573C81.2495 144.045 81.7582 143.609 82.3403 143.295C82.9224 142.981 83.5644 142.795 84.2235 142.751H83.3556C82.1437 142.707 80.9543 143.088 79.991 143.829C79.0293 144.633 78.1852 145.569 77.4836 146.61C76.5122 146.463 75.5295 146.405 74.5476 146.438C73.6228 146.407 72.697 146.465 71.783 146.61C71.125 146.737 70.4847 146.944 69.8757 147.225C69.2702 147.502 68.6333 147.705 67.9791 147.828H67.6362C67.4004 147.828 67.0897 147.602 66.6825 147.138C66.1763 146.576 65.6283 146.054 65.0431 145.575C64.2314 144.922 63.3289 144.392 62.3643 144.001C61.1244 143.52 59.8034 143.286 58.4746 143.311C58.4569 142.329 58.7251 141.362 59.2461 140.53C59.8043 139.587 60.0762 138.5 60.0283 137.404C60.0109 135.96 59.8964 134.52 59.6855 133.092C59.511 131.616 58.9071 130.224 57.9496 129.092L48.1021 117.094C47.7567 116.748 47.5442 116.289 47.5021 115.801C47.4397 115.307 47.4074 114.81 47.4056 114.313C47.3721 113.7 47.499 113.088 47.7735 112.54C48.048 111.991 48.4606 111.525 48.9701 111.187C50.0721 110.465 51.3017 109.964 52.5919 109.71C53.9541 109.419 55.3475 109.303 56.7387 109.365C58.121 109.419 59.1603 109.451 59.8568 109.451H62.9643C64.0637 109.417 65.164 109.475 66.254 109.623C66.3611 109.742 66.6826 110.087 67.1969 110.701C67.7113 111.316 68.2684 111.887 69.0185 112.523C69.7685 113.159 70.4008 113.774 71.0866 114.345C71.4694 114.746 71.944 115.045 72.4688 115.218L82.4983 117.126C83.4363 117.493 84.2661 118.094 84.9093 118.873C85.9808 119.951 86.3559 120.781 86.1201 121.482C85.7988 122.399 85.1546 123.166 84.3093 123.638C83.2785 124.305 82.1791 124.858 81.0303 125.287C79.8195 125.761 78.6302 126.16 77.4836 126.505C76.3371 126.85 75.4691 127.087 74.8905 127.206C75.9441 128.21 76.8987 129.315 77.7408 130.505C79.0695 132.251 80.3874 134.138 81.7161 136.164C83.0448 138.191 84.2236 140.131 85.263 141.986C86.0384 143.139 86.5674 144.442 86.8166 145.812C86.8891 146.861 86.682 147.911 86.2166 148.852C85.8407 149.459 85.2969 149.942 84.6521 150.243C83.9716 150.55 83.2493 150.754 82.509 150.847C81.6038 150.996 80.7284 151.291 79.916 151.72C79.4293 152.063 78.9927 152.473 78.6194 152.938C77.9872 153.639 77.6121 154.016 77.5478 154.156C77.0327 154.435 76.4808 154.638 75.9085 154.76C75.1748 154.966 74.4582 155.229 73.7654 155.547H73.4332C72.8185 155.527 72.2078 155.44 71.6116 155.288C70.8688 155.112 70.1495 154.848 69.4686 154.501C68.8124 154.18 68.203 153.771 67.6576 153.283C67.42 153.097 67.2265 152.861 67.0912 152.59C66.9559 152.32 66.8822 152.023 66.8754 151.72C66.8667 151.348 66.9324 150.977 67.0686 150.631C67.2048 150.285 67.4087 149.97 67.6683 149.704ZM85.8844 113.278C84.5021 113.332 83.0663 113.364 81.5983 113.364C80.1303 113.364 78.6623 113.364 77.3121 113.278C75.962 113.192 74.9977 113.192 74.5476 113.192C73.3873 113.254 72.2366 112.949 71.2579 112.319C70.484 111.774 69.8128 111.095 69.2756 110.313C68.7283 109.527 68.2649 108.685 67.8933 107.802C67.4672 106.842 66.9768 105.913 66.4253 105.02C65.1636 103.269 63.7777 101.612 62.2785 100.061C61.509 99.3029 60.8983 98.3971 60.4824 97.3973C60.0665 96.3975 59.8537 95.324 59.8568 94.2402C60.1056 94.2254 60.3543 94.2728 60.5805 94.3781C60.8068 94.4834 61.0036 94.6434 61.1535 94.8439C61.2994 95.0492 61.4951 95.2135 61.722 95.3211C61.949 95.4287 62.1997 95.4759 62.45 95.4584C62.4272 94.9599 62.2798 94.4752 62.0213 94.0493C61.7628 93.6234 61.4016 93.2701 60.9712 93.022C59.9961 92.3213 58.9353 91.599 57.7566 90.866C56.5797 90.1031 55.5002 89.198 54.542 88.171C53.5705 87.1398 53.0429 85.7644 53.074 84.344C53.0897 83.9792 53.1472 83.6175 53.2455 83.266C53.3616 82.7836 53.5342 82.3167 53.7598 81.8753C53.9669 81.4795 54.2304 81.1163 54.542 80.7973C54.6843 80.6488 54.866 80.5445 55.0654 80.4967C55.2648 80.449 55.4737 80.4598 55.6672 80.5278C56.2028 80.6264 56.6897 80.9036 57.0494 81.3148C57.3936 81.7269 57.7087 82.1628 57.9923 82.6192C58.2532 83.045 58.5433 83.452 58.8603 83.8373C58.9905 83.9972 59.1538 84.1264 59.339 84.2158C59.5241 84.3052 59.7265 84.3526 59.9319 84.3548C60.7355 84.3548 61.1641 84.1284 61.2284 83.6649C61.287 83.1459 61.3156 82.624 61.3141 82.1017C61.3141 80.4703 60.8534 79.4247 59.9319 78.9647C58.9658 78.4844 57.9532 78.1051 56.9101 77.8328C55.8373 77.5614 54.8139 77.1211 53.8777 76.5284C52.9562 75.957 52.4954 74.6742 52.4954 72.7122C52.5038 70.6304 52.9559 68.5745 53.8209 66.6833C54.686 64.7921 55.944 63.1094 57.5102 61.7488C57.5988 61.6499 57.7212 61.5883 57.853 61.5763C58.0671 61.5684 58.2777 61.6332 58.4507 61.7603C58.6237 61.8874 58.7491 62.0694 58.8067 62.277C58.8886 62.4921 59.0369 62.6751 59.2297 62.7993C59.4226 62.9234 59.6498 62.9822 59.8783 62.9669H60.5641L58.6674 59.8407L60.5641 57.9326L61.2606 58.6225L64.368 44.0154C64.4217 43.5261 64.64 43.07 64.987 42.7228C65.334 42.3757 65.7886 42.1585 66.2753 42.1073C66.6951 43.1959 67.2153 44.2426 67.8291 45.2336C68.5149 46.3978 69.2649 47.5513 70.0686 48.7156C70.8432 49.8211 71.5379 50.9811 72.1474 52.1868C72.6728 53.1513 72.9697 54.2249 73.0153 55.3238C72.8956 56.1751 72.631 56.9993 72.2331 57.7601C71.9709 58.4991 71.6105 59.199 71.1615 59.8407H71.5044C71.8767 59.8539 72.2464 59.773 72.5796 59.6054C72.9128 59.4377 73.1988 59.1888 73.4117 58.8813C73.8534 58.2635 74.3761 57.7087 74.9655 57.2319H75.6512C76.0048 57.5769 76.1764 57.814 76.1764 57.9326C76.2279 57.9743 76.2697 58.0268 76.2993 58.0863C76.3289 58.1458 76.3454 58.2111 76.3477 58.2776C76.276 58.7573 76.0273 59.1922 75.6512 59.4957C75.1598 59.9884 74.6411 60.4527 74.0975 60.8864C73.5189 61.3499 72.951 61.7811 72.3724 62.1908C71.9889 62.48 71.5841 62.7395 71.1615 62.9669H71.8581C72.6278 62.9763 73.3798 62.7342 74.0011 62.277C74.6478 61.8044 75.2568 61.2818 75.8227 60.7139C76.3825 60.1436 76.9883 59.6208 77.6336 59.1508C78.2053 58.7067 78.9045 58.4609 79.6267 58.4501C80.6833 58.4555 81.7218 58.726 82.6484 59.237C83.6021 59.7331 84.6188 60.0958 85.6702 60.315C87.3092 61.7653 88.7089 63.4682 89.817 65.3601C91.0814 67.4515 92.4101 69.5321 93.7923 71.6234C95.0778 73.5879 96.5843 75.3965 98.282 77.0135C99.8186 78.4887 101.87 79.2978 103.993 79.2665C104.561 79.2665 105.311 79.2665 106.233 79.1803C106.618 79.1895 106.998 79.0943 107.334 78.9046C107.669 78.7149 107.948 78.4378 108.14 78.1023C106.18 78.3944 104.178 78.1524 102.343 77.4016C100.92 76.72 99.6786 75.7075 98.7214 74.4478C97.6739 73.0713 96.7758 71.586 96.0425 70.0172C95.1782 68.243 94.1974 66.5288 93.1065 64.8858C92.4536 63.8833 91.6345 63.0009 90.6849 62.277C89.7633 61.5763 88.8419 60.9187 87.9203 60.2719C86.9877 59.6318 86.0932 58.9371 85.2415 58.1913C84.3474 57.3859 83.6192 56.4116 83.0984 55.3238V57.5769C81.8549 57.5825 80.6218 57.3483 79.4659 56.8869C78.3414 56.4357 77.2462 55.9136 76.187 55.3238C76.7656 54.7417 77.3336 54.1919 77.9123 53.6637C78.4818 53.1483 79.2251 52.8708 79.991 52.8875C80.2442 52.8746 80.4974 52.9139 80.7351 53.0029C80.9728 53.0918 81.19 53.2286 81.3733 53.4049C81.7162 53.7499 82.1234 54.2242 82.5841 54.7956V54.1057C82.5841 53.1786 82.2626 52.6288 81.6304 52.4563C80.9855 52.2733 80.3182 52.1825 79.6481 52.1868C79.2978 52.1441 78.9425 52.1854 78.611 52.3072C78.2795 52.4289 77.9813 52.6278 77.7408 52.8875C77.5008 53.1444 77.204 53.3407 76.8745 53.4606C76.5449 53.5805 76.1919 53.6205 75.8441 53.5774C75.2194 53.5472 74.6169 53.3343 74.1106 52.9647C73.6043 52.5952 73.2162 52.085 72.9938 51.4968C72.3461 50.3847 71.9783 49.1302 71.9223 47.8424C71.869 47.3128 72.0227 46.783 72.3509 46.3655C72.6402 46.0744 73.1331 45.5246 73.8189 44.7161C74.5734 43.7985 75.3821 42.9273 76.2406 42.1073C77.0586 41.2467 77.9244 40.4333 78.8338 39.671V38.9811C78.8809 38.4129 78.796 37.8415 78.5859 37.312C78.3757 36.7826 78.0461 36.3095 77.6229 35.9303C76.7591 35.2704 75.7535 34.8237 74.6869 34.6259C73.5191 34.3985 72.3284 34.3116 71.1401 34.3672C69.9328 34.4319 68.9256 34.5181 68.1184 34.6259C67.0155 34.2057 66.0136 33.5552 65.1788 32.7171C64.3439 31.8791 63.6952 30.8727 63.2751 29.764C62.3636 27.4964 61.8943 25.0736 61.8927 22.6276V20.8596C61.8766 20.6873 61.8956 20.5135 61.9485 20.3489C62.0014 20.1842 62.0872 20.0321 62.2005 19.902C62.3139 19.7718 62.4524 19.6662 62.6077 19.5918C62.763 19.5173 62.9317 19.4756 63.1036 19.469C64.4321 19.2521 65.7948 19.4673 66.9933 20.0835C68.1748 20.6699 69.4236 21.108 70.7114 21.3879C70.8186 21.3879 71.2258 21.3879 71.9223 21.4741C72.6188 21.5603 73.3582 21.6142 74.1619 21.7328C74.9655 21.8514 75.6942 21.9376 76.305 21.9915C76.9157 22.0454 77.3764 22.0778 77.6015 22.0778C78.0857 22.1352 78.5472 22.3171 78.9413 22.606C79.3354 22.8949 79.6489 23.281 79.8517 23.7272C80.2118 24.6989 80.3863 25.7303 80.366 26.7672C80.3627 27.9013 80.4199 29.0349 80.5375 30.1629C80.57 30.6596 80.7108 31.143 80.9496 31.579C81.1885 32.0149 81.5197 32.3926 81.9198 32.6855C83.2216 32.5525 84.5364 32.64 85.8095 32.9442C86.881 33.2353 87.9525 33.5587 88.8311 33.9036C89.7098 34.2486 90.7384 34.572 91.7671 34.8631C92.9542 35.1651 94.1753 35.31 95.3996 35.2943H98.8607C98.9707 35.0999 99.1254 34.9349 99.3118 34.813C99.4982 34.6911 99.711 34.6158 99.9322 34.5936H101.293C102.226 34.5949 103.155 34.7145 104.058 34.9493C105.019 35.1824 106.005 35.2982 106.994 35.2943C108.035 35.3965 109.077 35.117 109.93 34.5073C110.736 33.8209 111.604 33.2111 112.523 32.6855C112.644 30.3123 113.11 27.9698 113.905 25.7323C114.499 24.1292 115.55 22.738 116.927 21.7328C118.414 20.7442 120.095 20.0897 121.856 19.814C124.198 19.4396 126.567 19.2665 128.939 19.2965C128.955 20.7169 128.723 22.1291 128.253 23.4684C127.796 24.7477 127.335 26.1383 126.871 27.6404C126.292 29.7964 125.799 31.5535 125.488 32.7717C125.212 33.8626 124.641 34.8552 123.838 35.6392C122.948 36.4125 121.88 36.9498 120.731 37.2024C119.402 37.5581 117.516 37.957 115.116 38.4205C114.815 39.0849 114.609 39.7891 114.505 40.5119C114.505 41.094 114.419 41.7839 114.419 42.5924C114.421 43.7286 114.798 44.832 115.491 45.7295C116.191 46.6645 117.005 47.5082 117.913 48.2412C118.834 49.0066 119.809 49.7505 120.849 50.5051C121.776 51.1531 122.593 51.9466 123.27 52.8552C124.053 53.937 124.718 55.1008 125.253 56.3264C125.909 57.7748 126.489 59.2573 126.988 60.7678C127.503 62.3309 127.931 63.894 128.285 65.4572C128.6 66.7968 128.772 68.1664 128.799 69.5428C128.825 71.8759 128.463 74.1969 127.728 76.4098C127.013 78.5805 126.549 80.8268 126.346 83.1043C126.121 84.9585 125.97 86.9959 125.917 89.1951C125.861 91.4086 125.66 93.6161 125.317 95.8033C124.981 97.9579 124.369 100.06 123.495 102.056C122.63 104.036 121.221 105.726 119.434 106.928C118.513 107.511 117.623 108.006 116.755 108.578C116.301 108.842 115.795 109.001 115.273 109.046C114.751 109.091 114.225 109.019 113.734 108.837C111.449 110.914 108.775 112.512 105.869 113.537C102.955 114.577 99.8847 115.106 96.7927 115.1C95.5516 115.128 94.3104 115.042 93.0851 114.841C91.6022 114.446 90.1654 113.893 88.799 113.192C88.2525 113.192 87.2774 113.213 85.8951 113.278H85.8844ZM59.1817 144.831C59.9501 144.675 60.735 144.617 61.5177 144.659C62.6019 144.639 63.6628 144.976 64.5394 145.618C64.9746 145.951 65.3209 146.387 65.5472 146.888C65.7735 147.388 65.8728 147.937 65.836 148.486C65.8711 148.874 65.8008 149.264 65.6329 149.616C65.465 149.967 65.2056 150.266 64.8824 150.48C64.1833 150.909 63.3751 151.122 62.5571 151.095C62.0137 151.152 61.4647 151.079 60.9545 150.882C60.4443 150.686 59.9874 150.371 59.6211 149.963C59.0023 149.076 58.6968 148.005 58.7532 146.923C58.7639 145.64 58.9031 144.972 59.1925 144.831H59.1817ZM61.8606 59.8084H62.5571L61.8606 59.1184V59.8084ZM62.7286 63.1071C62.4928 63.1071 62.4392 63.2257 62.5571 63.4628C62.675 63.7 62.6107 63.8078 62.7286 63.8078C62.7748 63.8129 62.8216 63.8075 62.8655 63.792C62.9094 63.7765 62.9494 63.7512 62.9823 63.7181C63.0152 63.685 63.0403 63.6449 63.0557 63.6007C63.0711 63.5565 63.0765 63.5094 63.0714 63.4628C63.2 63.2257 63.0822 63.1071 62.7178 63.1071H62.7286ZM67.2182 61.7164C67.7458 61.7054 68.2691 61.6182 68.772 61.4577C69.0495 61.3809 69.3043 61.2379 69.5151 61.0408C69.7259 60.8438 69.8864 60.5985 69.9829 60.3258H63.0714C64.2677 61.2364 65.7289 61.7251 67.229 61.7164H67.2182ZM65.3323 99.6949C66.5055 100.674 67.958 101.251 69.4793 101.344C71.5798 101.369 73.6446 100.797 75.437 99.6949C77.2162 98.6012 78.8946 97.3493 80.4518 95.9542C82.0055 94.5636 83.4521 93.2592 84.7379 92.041C85.8566 90.9433 87.2669 90.1946 88.799 89.885C89.3313 89.9485 89.8557 90.0677 90.3635 90.2407C90.8687 90.4074 91.3891 90.523 91.9171 90.5857H94.3281C93.5076 89.9955 92.5606 89.6077 91.5636 89.4538C90.5936 89.2867 89.6117 89.2002 88.6276 89.1951C87.2039 89.1388 85.8029 89.5681 84.6521 90.4132C83.5892 91.2463 82.58 92.1465 81.6304 93.1083C80.6553 94.0893 79.6695 94.9948 78.6945 95.8033C77.6375 96.6394 76.3198 97.071 74.9761 97.0215C74.4347 97.0557 73.8923 96.9723 73.3857 96.777C72.8791 96.5816 72.4202 96.279 72.0401 95.8895C71.3446 95.1389 70.7632 94.2889 70.315 93.367C69.8435 92.4399 69.3828 91.4805 68.9221 90.4995C68.4749 89.5302 67.7561 88.7134 66.854 88.1494V89.3675C67.4326 90.6396 67.9255 91.6853 68.3219 92.4938C68.7184 93.3023 69.1256 94.1216 69.5328 94.9301C69.8314 95.5977 70.1901 96.2364 70.6043 96.8382C70.7578 97.1334 70.9608 97.3996 71.2044 97.6252C71.4938 97.9162 71.6973 98.0564 71.8152 98.0564C71.7009 98.6385 71.2401 98.9296 70.4328 98.9296H69.222C68.6155 98.9656 68.0092 98.8587 67.4511 98.6173C66.893 98.3758 66.3986 98.0066 66.0074 97.5389C65.6465 97.086 65.1854 96.7243 64.6607 96.4828C64.1359 96.2413 63.5623 96.1268 62.9857 96.1483C63.0603 96.887 63.3131 97.5962 63.722 98.2143C64.131 98.8324 64.6837 99.3407 65.3323 99.6949ZM63.5108 73.8226C63.4487 74.1965 63.4201 74.5754 63.4251 74.9545C63.4241 75.2763 63.4527 75.5975 63.5108 75.9139C63.5751 76.205 63.6608 76.2912 63.7787 76.1726C64.0433 75.8255 64.166 75.3897 64.1216 74.9545C64.1765 74.4646 64.0547 73.9711 63.7787 73.5638C63.6608 73.4345 63.5751 73.5207 63.5108 73.8226ZM64.9895 82.4467C65.4395 83.7188 65.9003 84.9908 66.3718 86.2737V84.883C66.3787 83.6736 66.2016 82.4703 65.8468 81.3148C65.5039 80.2152 65.0431 78.9108 64.4645 77.4016C64.4516 77.6048 64.423 77.8066 64.3788 78.0053C64.3351 78.2077 64.3063 78.413 64.293 78.6197C64.2951 79.9271 64.5311 81.2234 64.9895 82.4467ZM70.3472 33.0628C70.3001 33.0559 70.252 33.0599 70.2067 33.0746C70.1614 33.0894 70.1201 33.1144 70.086 33.1477C70.0518 33.181 70.0257 33.2218 70.0097 33.2669C69.9937 33.312 69.9882 33.3602 69.9936 33.4077C70.2293 33.8821 70.4543 33.8821 70.69 33.4077C70.7007 33.3588 70.6996 33.308 70.6867 33.2596C70.6738 33.2112 70.6496 33.1666 70.616 33.1296C70.5823 33.0926 70.5403 33.0643 70.4935 33.047C70.4468 33.0298 70.3966 33.0241 70.3472 33.0304V33.0628ZM75.5226 31.3272C75.1521 31.7466 74.7009 32.0861 74.1963 32.3251C73.6917 32.5641 73.144 32.6977 72.5866 32.7178H77.6015C77.7659 32.7412 77.9334 32.7258 78.0909 32.6728C78.2484 32.6199 78.3916 32.5308 78.509 32.4127C78.6264 32.2945 78.7149 32.1506 78.7676 31.9921C78.8202 31.8337 78.8355 31.6651 78.8123 31.4996V29.5916C78.7746 28.4803 78.5386 27.3849 78.1158 26.3575C77.9723 25.8254 77.6559 25.3569 77.217 25.0267C76.7782 24.6965 76.242 24.5237 75.6941 24.5357H75.0083C75.5645 25.009 76.0077 25.6022 76.305 26.2713C76.6561 26.9152 76.861 27.6295 76.9049 28.3626C76.8884 28.9157 76.7624 29.4599 76.5342 29.9634C76.3061 30.4669 75.9804 30.9195 75.5763 31.2948L75.5226 31.3272ZM73.7975 24.029H74.494L73.7975 23.3283V24.029ZM79.766 76.5284C79.2005 77.2936 78.7055 78.1091 78.2873 78.9647C77.8528 79.8597 77.4943 80.7901 77.2157 81.746C76.9761 82.4199 76.8282 83.1234 76.7764 83.8373C77.0767 83.8779 77.3819 83.8172 77.6444 83.6649C77.8694 83.5463 78.4801 83.1366 79.4552 82.4467C80.0414 82.0097 80.6493 81.6031 81.2768 81.2285C82.7646 80.9986 84.2787 80.9986 85.7666 81.2285C86.1462 81.0816 86.4688 80.8158 86.6869 80.4703C86.9049 80.1247 87.0068 79.7178 86.9774 79.3097C86.9561 78.9303 86.8483 78.5609 86.6626 78.23C86.4768 77.8992 86.2179 77.6158 85.9059 77.4016V80.1828C85.0977 80.1955 84.2894 80.1667 83.4842 80.0966C82.9677 80.0425 82.447 80.0425 81.9305 80.0966C81.4755 80.1581 81.0357 80.3043 80.6339 80.5278C80.2267 80.765 79.6267 81.1746 78.823 81.746L80.0339 78.1023C80.141 77.8651 80.2588 77.5741 80.3767 77.2291C80.4946 76.8841 80.6125 76.7116 80.7197 76.7116H85.7344C85.5566 76.3622 85.2841 76.0704 84.9485 75.8701C84.6129 75.6698 84.2278 75.5692 83.8377 75.5797C82.9055 75.5151 82.1018 75.4935 81.4161 75.4935C81.0823 75.5193 80.7593 75.6235 80.4727 75.7976C80.1861 75.9717 79.9441 76.2109 79.766 76.496V76.5284ZM82.7877 96.3531C82.7877 96.6981 82.8949 96.8706 83.1306 96.8706C83.2007 96.8816 83.2722 96.8758 83.3396 96.8537C83.4071 96.8316 83.4684 96.7938 83.5186 96.7434C83.5687 96.693 83.6062 96.6313 83.6282 96.5635C83.6502 96.4957 83.6559 96.4236 83.6449 96.3531C83.6449 95.8895 83.4735 95.6632 83.1306 95.6632C82.7877 95.6632 82.7877 95.8572 82.7877 96.3207V96.3531ZM100.072 165.454C101.151 164.358 102.447 163.503 103.876 162.942H103.179C102.461 162.947 101.764 163.189 101.197 163.632C100.554 164.096 99.9536 164.505 99.375 164.85C99.3866 164.177 99.1411 163.525 98.6892 163.028C98.2457 162.518 97.7541 162.052 97.2212 161.638L95.7425 160.506C95.5389 160.374 95.3702 160.194 95.2508 159.982C95.1313 159.769 95.0648 159.531 95.0568 159.288C95.1188 158.072 95.5741 156.91 96.3533 155.978C97.1022 155.028 97.7119 153.976 98.1641 152.852C98.612 151.871 98.8493 150.805 98.8607 149.726V146.244C98.8781 143.096 98.3224 139.973 97.2212 137.027C96.1094 134.083 95.55 130.958 95.5711 127.81V125.902C95.5284 125.26 95.5862 124.616 95.7425 123.993C96.2388 123.438 96.7039 122.855 97.1355 122.247C97.6066 121.748 97.9713 121.157 98.207 120.511V120.177C97.4356 120.751 96.4848 121.027 95.5282 120.953C94.5531 120.9 93.653 120.867 92.8494 120.867H89.3991C88.5478 120.084 87.6217 119.387 86.6344 118.787C85.5662 118.16 84.6277 117.333 83.8699 116.35C85.0405 116.146 86.2208 116.002 87.406 115.919C88.3811 115.854 89.549 115.833 90.7813 115.833C92.3828 115.828 93.9782 116.031 95.5282 116.437C97.0817 116.843 98.6808 117.045 100.286 117.04C101.783 117.079 103.275 116.845 104.69 116.35C105.885 115.893 107.042 115.341 108.151 114.701C109.244 114.068 110.337 113.4 111.43 112.696C112.615 111.959 113.859 111.321 115.148 110.788C115.52 110.581 115.934 110.463 116.359 110.443C116.783 110.411 117.195 110.29 117.57 110.087C118.878 109.761 120.054 109.034 120.934 108.006C121.323 107.509 121.808 107.098 122.361 106.797C122.914 106.497 123.523 106.314 124.149 106.26C124.998 106.25 125.843 106.369 126.656 106.616C127.467 106.854 128.308 106.97 129.153 106.961H131.917C131.567 106.375 131.014 105.941 130.364 105.743C129.678 105.516 128.981 105.311 128.296 105.139C127.673 104.985 127.063 104.779 126.474 104.524C126.234 104.429 126.03 104.26 125.892 104.041C125.753 103.823 125.687 103.565 125.703 103.306V102.616C126.347 100.073 126.809 97.4862 127.085 94.8762C127.313 92.5046 127.717 89.8095 128.296 86.7911C128.62 84.8967 129.111 83.0351 129.764 81.2285C130.415 79.3883 130.738 77.4468 130.717 75.4935C130.69 71.6637 130.237 67.849 129.367 64.1204C128.517 60.3749 127.07 56.7926 125.081 53.5127C124.546 52.608 123.878 51.7901 123.099 51.0872C122.231 50.2679 121.395 49.4594 120.591 48.6509C119.788 47.8424 119.059 47.0554 118.448 46.3008C117.909 45.7652 117.575 45.055 117.505 44.2957C117.426 43.4026 117.669 42.5106 118.191 41.7839C118.684 41.2573 119.316 40.8833 120.013 40.7059C120.805 40.458 121.61 40.2529 122.424 40.0914C123.373 39.8949 124.28 39.5299 125.103 39.0134C125.925 38.4671 126.632 37.7632 127.183 36.9419C127.735 36.1207 128.12 35.1981 128.317 34.227C128.831 32.071 129.189 30.1306 129.389 28.4057C131.614 30.2737 133.562 32.4517 135.175 34.8738C136.736 37.2559 138.067 39.7828 139.15 42.42C140.245 45.1021 141.14 47.8622 141.829 50.6776C142.515 53.5235 143.147 56.3264 143.726 59.1184C143.78 59.4436 143.87 59.7618 143.994 60.0671C144.077 60.4106 144.222 60.7358 144.422 61.0265C144.577 61.5963 144.691 62.1762 144.765 62.7621C144.883 63.5814 144.937 64.045 144.937 64.1528V86.7911C144.956 88.3115 144.664 89.8197 144.079 91.2217C143.501 92.5585 142.869 93.8629 142.172 95.1349C141.476 96.407 140.843 97.6898 140.275 98.9619C139.69 100.273 139.394 101.696 139.407 103.134C139.396 104.35 139.603 105.559 140.018 106.702C140.424 107.843 140.627 109.048 140.618 110.26C140.643 111.185 140.435 112.102 140.011 112.924C139.587 113.746 138.963 114.447 138.197 114.96C136.698 116.083 134.88 116.691 133.01 116.695C132.975 116.138 133.084 115.581 133.326 115.078C133.568 114.576 133.936 114.145 134.393 113.828C134.835 113.537 135.195 113.136 135.438 112.664C135.68 112.191 135.796 111.664 135.775 111.133C135.775 109.393 135.604 108.466 135.261 108.351C134.521 108.197 133.765 108.139 133.01 108.179C133.007 109.485 132.775 110.781 132.325 112.006C131.862 113.249 131.503 114.529 131.253 115.833C131.017 118.151 130.825 120.404 130.653 122.614C130.469 124.891 129.788 127.099 128.66 129.082C127.662 130.935 126.442 132.658 125.028 134.213C123.538 135.895 122.092 137.609 120.741 139.344C119.374 141.058 118.162 142.89 117.12 144.821C116.1 146.652 115.561 148.715 115.555 150.814C115.511 153.806 116.42 156.734 118.148 159.169C117.57 159.395 116.713 159.805 115.555 160.387C114.601 160.803 113.77 161.46 113.144 162.295C113.144 162.414 113.251 162.468 113.487 162.468C114.225 162.401 114.921 162.095 115.469 161.595C116.047 161.093 116.728 160.725 117.462 160.517C117.688 160.743 118.127 161.153 118.759 161.735C119.391 162.317 119.831 162.716 120.056 162.953V163.298C120.061 163.855 119.948 164.406 119.724 164.916C119.501 165.425 119.172 165.88 118.759 166.252C118.002 167.015 116.98 167.452 115.909 167.47C114.935 167.552 113.963 167.305 113.144 166.769C112.566 166.306 112.33 165.271 112.448 163.643C111.944 163.754 111.416 163.661 110.98 163.384C110.48 163.1 109.915 162.952 109.34 162.953H108.129L111.933 166.769V167.847C111.951 168.665 111.731 169.471 111.301 170.166C110.871 170.861 110.25 171.415 109.512 171.76C108.031 172.596 106.366 173.045 104.668 173.065C104.09 173.065 103.425 173.065 102.686 172.978C101.957 172.922 101.238 172.777 100.543 172.547C99.8804 172.326 99.2859 171.936 98.8178 171.415C98.3346 170.805 98.0874 170.039 98.1214 169.259C98.1611 168.522 98.3554 167.802 98.6915 167.147C99.0277 166.491 99.4979 165.914 100.072 165.454ZM89.4418 96.601C89.6204 96.7309 89.8254 96.8192 90.042 96.8598L92.5493 97.9378C93.1811 98.1657 93.7879 98.4583 94.3603 98.811H95.0568C94.4905 97.893 93.6394 97.1884 92.6351 96.8059C91.7013 96.426 90.7062 96.2214 89.6991 96.2022C89.5529 96.2099 89.4085 96.2389 89.2705 96.2884C89.1301 96.3424 88.9814 96.3715 88.8311 96.3747C89.0469 96.3983 89.2551 96.4682 89.4418 96.5795V96.601ZM91.51 162.5C92.2286 161.648 93.2535 161.117 94.3603 161.023C96.5605 161.023 97.657 162.126 97.6498 164.333C97.532 166.295 97.3069 167.287 96.9533 167.287H91.2528C91.0171 167.287 90.7599 167.049 90.4813 166.586C90.246 166.27 90.0948 165.899 90.042 165.508C90.072 164.93 90.2175 164.363 90.4697 163.843C90.7219 163.323 91.0757 162.859 91.51 162.479V162.5ZM96.5248 92.6878C96.988 93.0609 97.5717 93.249 98.1641 93.2161H98.8607C98.5106 92.6297 98.0391 92.126 97.4783 91.7392C96.978 91.3565 96.3708 91.1416 95.7425 91.1247C95.5084 91.1574 95.2786 91.2153 95.0568 91.2972C95.6354 91.8578 96.1176 92.3213 96.5248 92.6663V92.6878ZM95.9247 99.1559C95.6889 99.1559 95.6353 99.2745 95.7425 99.5009C95.8496 99.7273 95.8068 99.8566 95.9247 99.8566C95.972 99.8621 96.0198 99.8566 96.0646 99.8404C96.1095 99.8243 96.15 99.7981 96.1831 99.7637C96.2163 99.7293 96.2411 99.6877 96.2557 99.6422C96.2704 99.5966 96.2745 99.5483 96.2676 99.5009C96.3855 99.2206 96.2676 99.102 95.9354 99.102L95.9247 99.1559ZM98.8607 73.0787V72.378C98.7845 71.6467 98.6373 70.9245 98.4213 70.222C98.1427 69.144 97.757 68.5726 97.3498 68.5726H97.0069C97.1165 70.2226 97.7687 71.7889 98.8607 73.0248V73.0787ZM97.7891 101.42C98.2705 101.533 98.7629 101.59 99.2571 101.592C99.2787 101.341 99.2123 101.091 99.0694 100.884C98.9265 100.677 98.7162 100.527 98.4749 100.46C97.9606 100.288 97.4677 100.148 97.0069 100.029V100.374C96.991 100.6 97.0555 100.824 97.1891 101.005C97.3227 101.187 97.5166 101.315 97.7356 101.366L97.7891 101.42ZM99.0856 73.7687C99.0856 74.1244 99.2036 74.2969 99.4286 74.2969C99.5001 74.3079 99.5731 74.3018 99.6418 74.2791C99.7105 74.2565 99.7729 74.2178 99.824 74.1664C99.8751 74.115 99.9135 74.0522 99.936 73.9831C99.9585 73.914 99.9646 73.8405 99.9537 73.7687C99.9537 73.3159 99.7822 73.0787 99.4286 73.0787C99.075 73.0787 99.0322 73.262 99.0322 73.7148L99.0856 73.7687ZM100.811 59.7544C99.8894 59.8191 99.4286 60.0132 99.4286 60.3581V64.8858C99.4286 65.2308 99.8894 65.4356 100.811 65.4895C101.732 65.5434 102.257 65.5757 102.365 65.5757H103.436C104.133 65.5757 104.508 65.3494 104.508 64.8858V60.3581C104.165 62.4495 103.758 63.5275 103.297 63.5922C102.836 63.6569 101.85 63.6784 100.361 63.6784C100.361 62.1692 100.564 61.2421 100.961 60.8971C101.891 60.3396 102.922 59.9732 103.993 59.8191C103.702 59.8175 103.411 59.7886 103.125 59.7329C102.895 59.6905 102.663 59.6617 102.429 59.6467L100.811 59.7544ZM102.536 71.6665C103.523 71.5701 104.474 71.2415 105.311 70.7071C106.458 70.0711 107.036 69.3488 107.036 68.5511V59.8084C106.267 60.6487 105.783 61.7133 105.654 62.8484C105.558 63.8524 105.353 64.8429 105.043 65.8021C104.773 66.6545 104.226 67.3908 103.49 67.8935C102.229 68.5056 100.813 68.7198 99.4286 68.5079C99.6657 68.904 99.9939 69.2369 100.385 69.4789C100.777 69.7209 101.22 69.8648 101.679 69.8986C102.492 69.8117 103.268 69.5105 103.929 69.0254C104.664 68.6334 105.265 68.0289 105.654 67.2898C105.787 67.4936 105.848 67.7368 105.826 67.9797C105.818 68.3505 105.715 68.7129 105.527 69.0321C105.34 69.3512 105.073 69.6162 104.754 69.8016C104.137 70.2795 103.389 70.5543 102.611 70.5885L102.536 71.6665ZM100.125 95.8356C100.572 96.1766 101.118 96.3586 101.679 96.3531H102.022L99.4286 93.7443V94.445C99.421 94.7065 99.4754 94.966 99.5871 95.2022C99.6989 95.4384 99.865 95.6444 100.072 95.8033L100.125 95.8356ZM100.125 102.616C100.754 102.931 101.359 103.292 101.936 103.694C102.33 104.013 102.766 104.275 103.233 104.471H110.669C111.741 104.471 112.308 104.072 112.48 103.252C112.637 102.57 112.723 101.872 112.737 101.172C112.718 100.411 112.632 99.6535 112.48 98.908C112.308 97.9809 111.815 97.5173 111.012 97.5173H110.669C110.981 97.8852 111.241 98.2952 111.44 98.7355L112.051 99.9537V100.299C112.038 100.825 111.852 101.332 111.522 101.741C111.193 102.151 110.739 102.439 110.23 102.562C109.271 102.969 108.248 103.203 107.208 103.252C106.098 103.269 105 103.033 103.993 102.562C102.987 102.093 101.889 101.853 100.779 101.862H99.3964L100.125 102.616ZM103.147 74.879C104.178 75.2567 105.264 75.4642 106.361 75.4935C106.905 75.4406 107.434 75.2909 107.926 75.0515C108.63 74.743 109.284 74.3287 109.865 73.8226C110.456 73.3473 110.979 72.7923 111.419 72.1732C111.801 71.6745 112.015 71.0667 112.03 70.4376L111.333 64.1743L110.465 63.4844V71.1275C109.732 71.4768 109.062 71.9468 108.483 72.5182C107.733 73.2189 107.24 73.6824 107.015 73.9088H100.104C100.875 74.1244 101.882 74.4478 103.093 74.9006L103.147 74.879ZM103.318 98.2612L104.443 98.7894V98.4444C104.458 98.2133 104.398 97.9837 104.272 97.7895C104.147 97.5954 103.963 97.447 103.747 97.3664C103.355 97.1647 102.95 96.9883 102.536 96.8382V97.1939C102.533 97.4218 102.602 97.6447 102.733 97.8306C102.864 98.0165 103.05 98.1559 103.265 98.2288L103.318 98.2612ZM114.462 33.936C114.625 34.2247 114.831 34.4865 115.073 34.7121L115.673 35.3266H117.923C118.907 35.3211 119.889 35.2345 120.859 35.0679C121.361 34.9913 121.839 34.8024 122.258 34.515C122.677 34.2277 123.027 33.8493 123.281 33.4077H122.07C121.518 33.4551 120.969 33.5452 120.431 33.6772C119.891 33.8014 119.343 33.8879 118.791 33.936C118.095 33.936 117.72 33.8174 117.72 33.591C117.646 33.2367 117.617 32.8745 117.634 32.513C117.64 30.7937 117.783 29.0778 118.063 27.3816C118.174 26.5414 118.472 25.7373 118.936 25.0298C119.4 24.3222 120.017 23.7294 120.741 23.2959H120.398C119.93 23.3341 119.476 23.4791 119.071 23.7201C118.666 23.961 118.321 24.2916 118.063 24.6866C117.281 25.6686 116.642 26.7576 116.166 27.9206C115.662 29.0733 115.257 30.2671 114.955 31.4889C114.74 32.2283 114.593 32.9861 114.516 33.7527L114.462 33.936Z" fill="#4E364A"/>
</g>
<defs>
<clipPath id="clip0_245_214">
<rect width="145" height="173" fill="white"/>
</clipPath>
</defs>
</svg>
