<svg width="176" height="183" viewBox="0 0 176 183" fill="none" xmlns="http://www.w3.org/2000/svg">
<g clip-path="url(#clip0_245_210)">
<path d="M3.75286 136.751C4.922 137.182 6.05716 137.699 7.14894 138.297C7.29987 138.511 7.36504 138.773 7.33174 139.032V139.757C7.41542 140.385 7.28685 141.022 6.96616 141.57C6.72564 141.818 5.92713 141.933 4.58986 141.933C4.21465 141.933 3.62779 141.303 2.8389 140.024C2.32375 139.065 1.6049 138.229 0.731978 137.572C0.498342 137.407 0.309355 137.188 0.181803 136.933C0.0542515 136.678 -0.0079197 136.396 0.000806887 136.112C1.27975 136.104 2.55008 136.32 3.75286 136.751ZM6.05219 140.845C6.04075 140.919 6.04704 140.994 6.07055 141.066C6.09406 141.137 6.13413 141.201 6.18753 141.254C6.24092 141.307 6.30613 141.347 6.37789 141.37C6.44964 141.394 6.52593 141.4 6.60057 141.389C6.84108 141.389 6.96616 141.207 6.96616 140.845C6.96616 140.482 6.84108 140.12 6.60057 140.12C6.36005 140.12 6.05219 140.32 6.05219 140.797V140.845ZM45.3044 180.137C45.3044 179.183 45.3044 178.353 45.391 177.685C45.5522 176.827 45.9676 176.037 46.584 175.414V174.317C46.3098 174.024 46.0914 173.685 45.9394 173.315C45.7662 172.895 45.4199 172.8 44.9773 173.048C45.2178 172.313 44.9773 172.094 44.2461 172.313C43.6208 172.075 43.3803 172.313 43.5054 172.953C43.6234 173.461 43.6234 173.99 43.5054 174.498C43.5054 174.985 43.6208 175.223 43.8709 175.223C44.1806 175.201 44.4729 175.073 44.6983 174.861C45.0194 174.603 45.2985 174.297 45.5257 173.954C45.6395 173.826 45.7165 173.67 45.7486 173.502C45.7808 173.334 45.7669 173.161 45.7085 173C45.8689 173.021 46.0317 172.988 46.1703 172.905C46.308 172.829 46.4663 172.799 46.6224 172.819C46.6162 172.602 46.6488 172.385 46.7186 172.18C46.7703 172.032 46.7994 171.878 46.8052 171.722C46.863 170.308 46.6776 168.895 46.2569 167.542C45.9238 166.632 45.4605 165.774 44.8811 164.995C44.3327 164.27 43.7459 163.535 43.1398 162.81C42.4348 161.895 41.9362 160.841 41.6774 159.718V162.81L39.1087 160.262L38.9163 160.625C39.0039 161.326 39.2908 161.988 39.7437 162.533C40.1008 163.078 40.4997 163.595 40.9366 164.079C40.1751 164.576 39.2794 164.832 38.3679 164.813H35.9916C34.436 164.867 32.9096 164.385 31.672 163.449C30.9894 162.778 30.1341 162.306 29.1995 162.085H29.0167C28.9919 162.081 28.9668 162.084 28.9432 162.092C28.9196 162.1 28.8981 162.113 28.8805 162.131C28.8628 162.148 28.8495 162.17 28.8414 162.193C28.8333 162.216 28.8307 162.241 28.8339 162.266C29.256 162.819 29.5962 163.43 29.844 164.079C30.0827 164.735 30.4236 165.35 30.8542 165.901V167.18L29.844 169.088C29.2957 170.119 28.9493 170.758 28.8339 170.997C28.8851 171.324 28.9755 171.644 29.1033 171.951C29.2028 172.292 29.3589 172.614 29.565 172.905V178.725C30.4213 178.601 30.8542 178.964 30.8542 179.813C30.8815 180.358 30.7589 180.899 30.4996 181.38C30.2403 181.86 29.8541 182.262 29.3822 182.542C28.7996 182.781 28.1753 182.904 27.5447 182.905H25.8996C25.2839 183.153 24.9375 182.904 24.9375 182.179C24.9375 181.454 25.2358 181.225 25.8996 181.454C25.7745 180.968 25.8996 180.786 26.3614 180.901C26.6713 181.017 27.0135 181.017 27.3234 180.901C27.208 181.273 27.2657 181.511 27.5062 181.635C27.7835 181.772 28.0343 181.956 28.247 182.179V179.689C27.6838 179.628 27.1289 179.507 26.5923 179.326C26.0735 179.108 25.5016 179.045 24.9471 179.145C24.2076 179.523 23.6477 180.174 23.3886 180.958C22.9525 181.931 22.4329 182.418 21.83 182.418C21.0893 182.418 20.6659 182.179 20.5409 181.693V179.508C20.5496 178.6 20.6823 177.698 20.9353 176.826C21.1877 175.939 21.3108 175.02 21.3009 174.098C21.3115 173.294 21.188 172.495 20.9353 171.731C20.6873 170.967 20.5639 170.168 20.5697 169.365C20.5407 167.973 20.8719 166.596 21.5318 165.367C22.2052 164.074 22.5362 162.633 22.4939 161.178V160.09C22.5422 159.718 22.4786 159.339 22.3111 159.003C22.1945 158.259 22.011 157.528 21.7627 156.818C21.5544 156.077 21.3071 155.348 21.0219 154.632C21.0219 154.27 21.0219 153.573 21.1181 152.543C21.2143 151.512 21.2336 150.386 21.3009 149.175C21.3683 147.963 21.4164 146.846 21.4837 145.816C21.551 144.785 21.5703 144.079 21.5703 143.717H18.3378C16.8754 143.717 15.3746 143.717 13.8449 143.631C12.4955 143.584 11.1498 143.463 9.81386 143.268C8.64977 143.087 8.07252 142.753 8.07252 142.266H9.53487C10.3911 142.266 11.2473 142.266 12.1036 142.171C12.9598 142.076 13.7583 142.057 14.4895 141.99C15.2207 141.923 15.769 141.894 16.1442 141.894C16.5194 141.894 17.1063 141.808 18.3378 141.627C19.5692 141.446 20.2619 141.35 20.5409 141.35C21.5029 141.236 21.9744 140.873 21.9166 140.263C21.8589 139.652 22.2533 138.994 23.1096 138.259C23.399 138.068 23.7277 137.945 24.0716 137.896C24.417 137.854 24.7469 137.729 25.0337 137.534C25.9958 136.809 26.8328 136.198 27.5062 135.711C28.1402 135.254 28.8167 134.858 29.5266 134.528C30.2846 134.208 31.0847 133.996 31.9029 133.898C33.0906 133.762 34.2861 133.701 35.4817 133.717H37.1365C37.5021 133.717 38.1466 133.717 39.0606 133.803C39.9746 133.889 40.927 133.956 41.8987 134.08C42.8704 134.204 43.8228 134.29 44.7849 134.347C45.747 134.404 46.3434 134.442 46.709 134.442C46.2108 135.062 45.7818 135.734 45.4295 136.446C45.0631 137.178 44.8753 137.986 44.8811 138.803C44.8322 140.008 45.2564 141.184 46.0644 142.085C46.8794 142.949 47.7713 143.738 48.7294 144.442V143.536C48.7386 143.078 48.6134 142.628 48.3691 142.24C48.1248 141.852 47.772 141.543 47.3536 141.35C46.9352 141.161 46.582 140.853 46.3376 140.467C46.0931 140.08 45.9681 139.631 45.9779 139.175C46.0084 138.852 46.0696 138.532 46.1606 138.221C47.3857 136.643 48.3477 135.492 49.0468 134.767C49.6381 134.106 50.3141 133.526 51.0576 133.04C51.8051 132.582 52.6063 132.216 53.4435 131.952L57.5707 130.587C58.4946 130.246 59.3837 129.817 60.226 129.309C60.784 128.946 61.265 128.612 61.698 128.307C62.286 127.944 62.9394 127.698 63.6221 127.582C65.0181 127.359 66.4321 127.266 67.8456 127.305C68.0861 127.305 68.8076 127.305 69.9525 127.401C71.0973 127.496 71.8766 127.486 72.2422 127.486C73.9994 128.221 75.6893 129.106 77.293 130.129C78.3675 130.837 79.2736 131.768 79.9483 132.858C80.5901 133.974 81.0848 135.167 81.4203 136.408C81.7859 137.744 82.3343 139.379 83.0654 141.312C83.1582 141.656 83.3148 141.98 83.5272 142.266C83.8455 142.787 84.1191 143.332 84.345 143.898C84.5761 144.466 84.8527 145.015 85.1724 145.539C85.3787 145.812 85.535 146.119 85.6341 146.446V146.99C85.6645 147.417 85.5556 147.842 85.3235 148.203C85.0913 148.564 84.7482 148.841 84.345 148.993C84.7658 148.814 85.2192 148.721 85.6774 148.721C86.1357 148.721 86.5891 148.814 87.0099 148.993C87.8031 149.359 88.4259 150.011 88.7512 150.816C87.7884 151.256 86.9172 151.871 86.1825 152.629C86.9025 152.208 87.7356 152.018 88.5684 152.085C88.9169 152.133 89.2482 152.265 89.5333 152.47C89.8184 152.675 90.0487 152.945 90.2039 153.258C90.717 154.114 91.1179 155.031 91.3969 155.987C91.6952 157.004 91.9392 158.036 92.1281 159.079C92.2796 159.828 92.3728 160.587 92.4071 161.35C92.3607 162.373 92.0776 163.372 91.5797 164.27C91.0068 165.388 90.3304 166.452 89.5594 167.447C88.7962 168.446 87.8655 169.308 86.8079 169.995C85.9124 170.597 84.8595 170.929 83.7774 170.949H83.4695C83.6137 170.858 83.737 170.738 83.8315 170.596C83.9259 170.455 83.9895 170.295 84.0179 170.128C84.1206 169.819 84.182 169.499 84.2007 169.174C84.2007 169.06 84.0179 168.84 83.6523 168.544C83.2867 168.248 83.0462 168.029 82.9211 167.905V167.18C84.3346 166.614 85.6881 165.911 86.9618 165.081C87.693 164.537 88.0585 163.239 88.0585 161.169C88.1031 159.92 87.7679 158.686 87.0965 157.629C86.4695 156.693 85.6966 155.862 84.8068 155.167C83.8467 154.412 82.8005 153.771 81.6897 153.258C80.5847 152.747 79.5116 152.17 78.4764 151.531C77.9907 151.171 77.5598 150.744 77.1968 150.262C76.9563 149.89 76.3983 149.709 75.5421 149.709C75.5613 150.499 75.5324 151.289 75.4555 152.075C75.3882 152.438 75.975 152.867 77.1968 153.354C77.0718 153.841 76.6485 154.079 75.9077 154.079C75.3047 154.104 74.7039 153.994 74.1494 153.758C73.5949 153.522 73.101 153.165 72.704 152.715C72.3581 152.286 71.9187 151.94 71.4188 151.704C70.9189 151.467 70.3716 151.347 69.8178 151.35C69.1908 151.355 68.5706 151.478 67.9899 151.713C67.3466 151.963 66.6604 152.086 65.9695 152.075C65.3814 152.045 64.798 151.956 64.2282 151.808C63.4297 151.627 63.0352 151.293 63.0352 150.854C63.1065 150.519 63.2298 150.197 63.4008 149.9C63.5691 149.618 63.6924 149.312 63.7664 148.993V147.362C63.7624 145.643 63.4192 143.941 62.7563 142.352C62.1088 140.764 61.782 139.066 61.7942 137.353C61.7942 137.114 61.8519 136.99 61.977 136.99C62.0001 136.559 62.0613 136.131 62.1598 135.711C62.2277 135.275 62.3505 134.849 62.5254 134.442C62.1952 134.631 61.9149 134.894 61.7075 135.211C61.5001 135.528 61.3715 135.889 61.3324 136.265C61.2651 136.99 61.2362 137.715 61.2362 138.44C61.2289 139.861 61.4464 141.275 61.8808 142.629C62.3145 143.98 62.532 145.39 62.5254 146.808C62.5673 147.422 62.5055 148.038 62.3426 148.631C62.2175 148.879 61.6691 148.993 60.6878 148.993C59.3409 148.993 58.4558 148.688 58.0325 148.039C57.3746 147.274 56.5152 146.706 55.5504 146.398C54.8356 146.194 54.0996 146.073 53.3569 146.035C52.6105 146.003 51.8708 145.881 51.1538 145.673C50.8103 145.659 50.4704 145.598 50.1436 145.492C49.814 145.395 49.4924 145.274 49.1815 145.129V145.673C49.1815 146.283 49.98 146.913 51.5674 147.581C53.1549 148.249 54.925 148.946 56.8877 149.671C58.8503 150.396 60.6108 151.102 62.2079 151.77C63.8049 152.438 64.5938 153.068 64.5938 153.678C64.6395 154.359 64.5119 155.04 64.2227 155.658C63.9335 156.277 63.4921 156.813 62.939 157.218C61.817 158.056 60.8418 159.072 60.0529 160.224C59.4371 161.178 59.1966 161.894 59.3217 162.314C59.3761 162.612 59.5014 162.893 59.6873 163.134C59.8027 163.258 59.6873 163.287 59.2255 163.23C58.1601 163.14 57.0907 163.108 56.0218 163.134C56.0246 165.505 55.8993 167.875 55.6466 170.233C55.406 172.59 55.406 174.966 55.6466 177.323C55.4252 177.7 55.1036 178.01 54.7168 178.219C54.33 178.427 53.8929 178.527 53.4531 178.506C52.6628 178.426 51.8724 178.656 51.25 179.145C51.0341 179.227 50.8528 179.379 50.7357 179.577C50.6186 179.775 50.5726 180.006 50.6054 180.233C50.6631 180.719 51.6155 181.082 53.4916 181.33C53.7321 182.055 53.4916 182.284 52.7508 182.055C53.0009 182.78 52.7508 183.009 52.0196 182.78C51.4039 183.029 51.1634 182.904 51.2885 182.418C51.4073 182.065 51.4073 181.683 51.2885 181.33C51.1634 180.843 51.2885 180.662 51.7406 180.777C52.051 180.891 52.3923 180.891 52.7027 180.777V181.33H51.9715C52.2216 182.055 51.9715 182.284 51.2403 182.055C51.3558 182.78 51.1153 182.904 50.4996 182.418C50.0678 182.035 49.5732 181.729 49.0372 181.511C48.761 181.943 48.3824 182.301 47.9347 182.553C47.4869 182.806 46.9835 182.946 46.4685 182.962H46.1029C45.9779 182.962 45.8528 182.876 45.7373 182.695C45.6219 182.513 45.4872 182.418 45.3717 182.418L45.3044 180.137ZM25.8611 158.497C25.8611 158.974 25.9765 159.155 26.2267 159.041C26.3348 158.996 26.4271 158.92 26.4921 158.823C26.5571 158.727 26.592 158.613 26.5923 158.497C26.6105 158.352 26.5856 158.206 26.5206 158.075C26.4556 157.945 26.3534 157.836 26.2267 157.762C25.9765 157.6 25.8611 157.839 25.8611 158.449V158.497ZM26.9578 160.31C27.1525 160.513 27.3356 160.726 27.5062 160.949C27.7021 161.212 27.9554 161.427 28.247 161.579V161.035C28.0732 160.735 27.856 160.462 27.6024 160.224C27.2946 159.919 27.0829 159.766 26.9578 159.766L26.7751 159.947C26.797 160.07 26.8617 160.182 26.9578 160.262V160.31ZM28.4298 140.272C28.4298 140.635 28.5453 140.816 28.7954 140.816C28.87 140.827 28.9463 140.821 29.0181 140.798C29.0898 140.775 29.155 140.735 29.2084 140.682C29.2618 140.629 29.3019 140.564 29.3254 140.493C29.3489 140.422 29.3552 140.346 29.3438 140.272C29.3438 139.786 29.161 139.547 28.7954 139.547C28.4298 139.547 28.4298 139.767 28.4298 140.253V140.272ZM28.8916 144.547C28.5837 144.852 28.5453 145.062 28.7954 145.186C28.8977 145.246 29.0174 145.269 29.1346 145.251C29.2519 145.234 29.3596 145.177 29.44 145.091C29.5272 145.011 29.5836 144.903 29.5994 144.787C29.6152 144.67 29.5894 144.551 29.5266 144.452C29.4015 144.194 29.1898 144.223 28.8916 144.528V144.547ZM29.7093 136.456C29.7093 136.818 29.8344 136.999 30.0749 136.999C30.1496 137.011 30.2259 137.005 30.2976 136.981C30.3694 136.958 30.4346 136.918 30.488 136.865C30.5414 136.812 30.5814 136.748 30.605 136.676C30.6285 136.605 30.6348 136.53 30.6233 136.456C30.6233 135.969 30.4501 135.721 30.0749 135.721C29.6997 135.721 29.7093 135.95 29.7093 136.436V136.456ZM29.7093 140.816C29.7093 141.179 29.8344 141.36 30.0749 141.36C30.1496 141.371 30.2259 141.365 30.2976 141.342C30.3694 141.318 30.4346 141.279 30.488 141.226C30.5414 141.173 30.5814 141.108 30.605 141.037C30.6285 140.966 30.6348 140.89 30.6233 140.816C30.6233 140.339 30.4501 140.091 30.0749 140.091C29.6997 140.091 29.7093 140.32 29.7093 140.797V140.816ZM29.7093 145.186C29.7093 145.549 29.8344 145.73 30.0749 145.73C30.1496 145.741 30.2259 145.735 30.2976 145.712C30.3694 145.689 30.4346 145.649 30.488 145.596C30.5414 145.543 30.5814 145.478 30.605 145.407C30.6285 145.336 30.6348 145.26 30.6233 145.186C30.6233 144.7 30.4501 144.452 30.0749 144.452C29.6997 144.452 29.7093 144.681 29.7093 145.167V145.186ZM30.9985 136.599C30.7484 136.599 30.6907 136.713 30.8157 136.961C30.9408 137.209 30.8735 137.324 30.9985 137.324C31.1236 137.324 31.239 137.2 31.3641 136.961C31.4892 136.723 31.3641 136.618 30.9985 136.618V136.599ZM37.1365 169.336C37.2038 167.886 37.7811 167.161 38.8778 167.161C40.1934 167.178 41.4959 167.423 42.7261 167.886C43.3658 168.099 43.9138 168.52 44.2808 169.082C44.6477 169.643 44.8119 170.311 44.7464 170.977C44.7368 171.233 44.6643 171.482 44.5352 171.703C44.406 171.925 44.2242 172.111 44.0056 172.246C43.4197 172.675 42.8094 173.07 42.1777 173.43C41.4369 173.859 40.7057 174.317 39.9746 174.794C39.2723 175.248 38.7019 175.876 38.3198 176.617C37.9912 176.426 37.7121 176.162 37.5049 175.846C37.2977 175.529 37.1683 175.169 37.1269 174.794C37.0691 174.069 37.0403 173.344 37.0403 172.609C37.0403 171.874 37.0788 170.815 37.1365 169.355V169.336ZM40.7154 176.617V175.157C40.4748 174.556 40.5614 174.279 40.9944 174.346C41.3289 174.396 41.6663 174.424 42.0045 174.431V175.157C42.7357 174.918 42.9666 175.157 42.7357 175.891C42.9762 176.378 42.8896 176.645 42.4567 176.702C42.0802 176.747 41.7272 176.908 41.4465 177.16L40.7154 176.617ZM81.0643 126.771H82.9019C82.3826 126.657 81.897 126.425 81.4831 126.094C81.0691 125.763 80.7381 125.342 80.516 124.862C80.2522 123.948 80.1289 122.999 80.1504 122.048C80.1587 121.68 80.1909 121.314 80.2466 120.95C80.2949 120.59 80.3238 120.226 80.3332 119.863C80.4894 119.825 80.6323 119.745 80.746 119.633C80.8597 119.52 80.9399 119.378 80.9778 119.223C81.0355 118.924 81.0355 118.616 80.9778 118.317C80.9046 118.003 80.9046 117.677 80.9778 117.363C81.0141 117.208 81.094 117.067 81.2081 116.955C81.3222 116.844 81.4658 116.767 81.6223 116.733C81.5766 116.68 81.5207 116.637 81.4579 116.606C81.3951 116.575 81.3268 116.556 81.2567 116.552L81.0643 116.733C80.9489 116.733 80.7276 116.943 80.4294 117.363C80.1311 117.783 79.9002 118.002 79.7848 118.002C79.3576 117.94 78.9499 117.783 78.5918 117.544C78.1882 117.368 77.8394 117.088 77.5817 116.733V118.622H73.5506C73.49 117.847 73.6153 117.069 73.9162 116.351C74.0246 116.15 74.1814 115.979 74.3728 115.852C74.5641 115.726 74.784 115.648 75.013 115.626C75.5946 115.559 76.1822 115.559 76.7639 115.626C77.5283 115.681 78.2966 115.649 79.0536 115.531C79.5207 115.492 79.982 115.402 80.4294 115.263C80.8524 115.186 81.257 115.031 81.6223 114.806H81.9879C82.2284 114.806 82.5363 115.015 82.9019 115.445C83.2972 115.905 83.6635 116.39 83.9986 116.895C84.3489 117.425 84.67 117.972 84.9607 118.536C85.1674 118.844 85.3233 119.182 85.4225 119.538V119.901L84.1333 121.17V126.256C84.2584 123.956 84.5951 122.439 85.0954 121.8C85.3233 121.496 85.6117 121.242 85.9427 121.053C86.2737 120.864 86.6402 120.745 87.0195 120.702C87.7635 120.645 88.6197 120.616 89.5882 120.616C90.8563 120.56 92.0759 120.117 93.0805 119.347C93.4036 118.751 93.8047 118.199 94.2735 117.706C94.8767 116.946 95.5189 116.216 96.1976 115.521C96.4409 115.223 96.6567 114.904 96.8422 114.567C97.0208 114.214 97.2335 113.878 97.4771 113.565H98.0351C98.5163 113.863 98.9731 114.198 99.4013 114.567C100.075 115.12 100.479 115.454 100.594 115.521H101.335C100.844 113.222 99.5552 111.943 97.4868 111.704V110.035C97.395 107.183 97.8622 104.341 98.8625 101.667C99.7765 99.4815 102.259 98.3938 106.29 98.3938C106.733 98.3728 107.176 98.4472 107.588 98.6119C108 98.7766 108.371 99.0277 108.676 99.348C108.98 99.6683 109.351 99.9194 109.763 100.084C110.175 100.249 110.618 100.323 111.061 100.302H112.158C112.115 99.9039 111.964 99.5246 111.722 99.2039C111.48 98.8833 111.156 98.6331 110.782 98.4797C110.164 98.1823 109.52 97.9397 108.858 97.7545C108.608 97.7545 108.002 97.7545 107.03 97.6591C106.059 97.5637 105.376 97.5732 105.01 97.5732C103.921 97.5532 102.836 97.7079 101.797 98.0312C100.853 98.3647 99.8635 98.5514 98.8625 98.5846V91.4952C99.4727 90.8796 100.023 90.2087 100.508 89.4914L101.98 87.3064H107.117C106.272 87.1326 105.411 87.0432 104.548 87.0392C103.692 86.9514 102.828 86.9803 101.98 87.1251C101.417 87.2626 100.887 87.509 100.421 87.8502C99.8642 88.1607 99.3418 88.5285 98.8625 88.9476L98.1314 86.3999C99.5831 86.1946 101 85.7967 102.345 85.2167C103.675 84.6497 105.112 84.3699 106.559 84.3962C107.774 84.3756 108.985 84.5595 110.138 84.94C111.352 85.3294 112.624 85.5132 113.9 85.4839V85.3026C113.924 85.3057 113.949 85.3032 113.973 85.2952C113.997 85.2872 114.018 85.2739 114.036 85.2564C114.053 85.2389 114.067 85.2176 114.075 85.1942C114.083 85.1708 114.086 85.1459 114.082 85.1213C113.669 84.5684 113.208 84.0513 112.707 83.5756C112.033 82.9172 111.639 82.6214 111.514 82.6214H101.431C100.395 83.4875 99.2126 84.1657 97.9389 84.6251V82.6214C97.9389 83.5756 97.8812 85.169 97.7562 87.3923C97.6311 89.6155 97.5156 91.915 97.3906 94.3958C97.2655 96.8767 97.15 99.2525 97.025 101.495C96.8999 103.737 96.8422 105.312 96.8422 106.132C96.7949 107.138 96.6727 108.14 96.4766 109.128C96.2221 110.552 95.8521 111.953 95.3702 113.317C94.9187 114.648 94.2702 115.906 93.4461 117.048C93.1428 117.539 92.7191 117.946 92.2145 118.232C91.7098 118.517 91.1407 118.671 90.5599 118.679C89.4607 118.721 88.3839 118.365 87.5294 117.678C86.7172 117.002 85.9817 116.24 85.3359 115.407C84.6625 114.557 83.9794 113.708 83.3156 112.859C82.7168 112.071 81.9255 111.447 81.0162 111.046C80.8516 110.448 80.7294 109.839 80.6507 109.224C80.5352 108.374 80.4101 107.439 80.2851 106.361C80.16 105.283 80.0445 104.367 79.9195 103.451C79.8207 102.819 79.7596 102.182 79.7367 101.543V100.999C81.3209 99.6629 82.8506 98.4797 84.3257 97.4492C85.9202 96.2913 87.3392 94.9128 88.5396 93.3558C88.3884 93.1457 88.3231 92.8866 88.3568 92.6306C88.334 92.259 88.3965 91.8871 88.5396 91.5429C88.8983 91.0516 89.3334 90.6201 89.8287 90.2643C90.3181 89.9086 90.7497 89.4806 91.1083 88.9953C92.3189 87.6479 93.2944 86.1097 93.9945 84.4438C94.7274 82.7453 95.586 81.1029 96.5632 79.5299V82.0775C97.8358 80.7207 99.5288 79.8242 101.374 79.5299C103.22 79.1839 105.094 79.0019 106.973 78.986V77.717H106.232C105.991 77.717 105.27 77.8028 104.038 77.9841C102.807 78.1654 102.114 78.2609 101.835 78.2609H100.69L101.431 77.717C101.361 77.714 101.292 77.6963 101.229 77.665C101.166 77.6338 101.11 77.5897 101.066 77.5357C100.994 77.5391 100.924 77.5569 100.859 77.5881C100.795 77.6193 100.737 77.6631 100.69 77.717C100.239 77.7859 99.8055 77.938 99.4109 78.1654C98.9456 78.3742 98.5143 78.6508 98.1314 78.986C97.6311 78.8715 97.3906 78.5089 97.3906 77.8983V76.4384C97.4102 75.9116 97.5534 75.3968 97.809 74.9346C98.0645 74.4725 98.4253 74.0758 98.8625 73.7763C99.7259 73.0255 100.832 72.6059 101.98 72.5931H112.245C112.971 72.7195 113.625 73.1067 114.082 73.6809C114.565 74.1185 114.998 74.6081 115.372 75.1407V74.2342C115.376 73.8346 115.344 73.4354 115.275 73.0415C115.139 72.6125 114.92 72.2139 114.631 71.8679C113.168 71.6198 111.937 71.4767 110.965 71.4099C109.994 71.3431 108.82 71.3145 107.483 71.3145C106.145 71.3145 104.76 71.3145 103.355 71.4099C102.031 71.4625 100.712 71.6156 99.4109 71.8679C99.2858 71.9824 98.978 72.2305 98.4969 72.5931C98.218 72.839 97.8903 73.0242 97.5349 73.137L97.1693 73.3183L96.8037 73.137C96.5677 72.8805 96.3521 72.6061 96.1591 72.3163C95.9172 72.0022 95.7047 71.6669 95.5242 71.3145C95.4919 70.8274 95.4276 70.343 95.3317 69.8642C95.2163 69.139 95.0624 68.3757 94.8796 67.5933C94.6968 66.8108 94.5429 66.0475 94.4178 65.3128C94.314 64.7745 94.2529 64.2289 94.235 63.6811V63.2804C94.2006 62.2691 94.4586 61.2691 94.9785 60.3984C95.4985 59.5277 96.2586 58.8227 97.1693 58.3664C98.8885 57.3384 100.848 56.7727 102.855 56.7253C103.932 56.7249 105.007 56.8175 106.068 57.002C107.126 57.1837 108.198 57.2731 109.272 57.2691C109.272 56.668 109.089 56.315 108.724 56.315C108.358 56.315 107.993 56.0192 107.627 55.4085H105.058C103.046 55.3835 101.04 55.6274 99.0934 56.1337C97.1098 56.773 95.3994 58.0529 94.235 59.7691H93.6866V52.317C93.6866 51.4678 94.235 50.7712 95.3317 50.2178C96.5108 49.6494 97.7413 49.1926 99.0068 48.8534C100.272 48.5081 101.557 48.2373 102.855 48.0424C104.077 47.8611 104.779 47.7656 105.058 47.7656C107.046 47.7454 109.014 48.1488 110.831 48.9488C112.568 49.7211 114.255 50.6007 115.881 51.5823C116.362 51.4678 116.613 51.0384 116.613 50.3132C116.613 49.8298 116.093 49.3432 115.054 48.8534C113.872 48.3247 112.646 47.9 111.389 47.5843C110.058 47.2361 108.709 46.9622 107.348 46.7637C106.469 46.6221 105.582 46.5328 104.693 46.4965C102.675 46.4832 100.688 46.9826 98.9202 47.9469C97.2743 48.886 95.4122 49.3888 93.5135 49.4068C93.5083 47.8551 93.8847 46.3256 94.6102 44.9508C95.3414 43.5577 96.7556 42.8517 98.8337 42.8517H109.657C110.28 42.9889 110.891 43.1739 111.485 43.4051C111.684 43.5751 111.9 43.7253 112.129 43.8535C112.321 43.9926 112.541 44.0872 112.774 44.1302C112.844 44.1256 112.912 44.1071 112.975 44.076C113.038 44.0449 113.094 44.0017 113.14 43.9489C113.38 43.7009 113.505 43.5196 113.505 43.4051L112.216 42.1265H96.823C96.5801 42.3109 96.2965 42.4352 95.9956 42.4891C95.6665 42.5868 95.345 42.708 95.0335 42.8517H94.3023V40.8574C94.3023 40.7334 94.7257 40.3708 95.5915 39.7601C96.2285 39.2874 96.9007 38.8632 97.6022 38.4911C98.4862 37.9662 99.5076 37.7137 100.537 37.7659H103.673C104.815 37.7539 105.955 37.8756 107.069 38.1285C108.123 38.3705 109.201 38.4922 110.282 38.4911H111.013C110.623 37.8918 110.04 37.4411 109.359 37.2125C108.502 36.8499 107.954 36.6114 107.714 36.4873H103.673C102.141 36.4611 100.61 36.5536 99.0934 36.7641C97.6492 37.0833 96.2785 37.6692 95.0527 38.4911C94.9116 37.0388 94.8506 35.5799 94.87 34.121C94.937 32.3586 94.5601 30.6073 93.7732 29.0257C93.6228 29.4345 93.5605 29.8702 93.5904 30.3043C93.8309 30.915 93.6481 31.1536 93.042 31.0295C92.5584 30.913 92.0537 30.913 91.5701 31.0295C90.9544 31.2776 90.7138 31.0295 90.8389 30.3902C90.9566 29.8816 90.9566 29.3531 90.8389 28.8444C91.0523 28.9107 91.278 28.9288 91.4994 28.8974C91.7207 28.8661 91.9323 28.786 92.1185 28.6631C92.4639 28.4384 92.8353 28.2558 93.2248 28.1193C92.9372 27.7695 92.5726 27.4895 92.1591 27.301C91.7455 27.1124 91.2939 27.0203 90.8389 27.0315C90.3483 27.0315 90.0693 27.2128 90.0115 27.5754C89.9493 27.9346 89.9203 28.2987 89.9249 28.6631C89.9022 28.9662 89.9474 29.2705 90.0572 29.5542C90.1669 29.838 90.3386 30.0941 90.5599 30.3043C90.9928 30.6669 91.4162 31.0581 91.8491 31.4875C92.322 31.9632 92.7503 32.4805 93.1286 33.0332C93.5995 33.7978 93.8244 34.6864 93.7732 35.5809V37.2125C93.6513 37.8486 93.4974 38.8505 93.3114 40.2182C93.1286 41.6112 92.8881 43.0807 92.5802 44.6741C92.2724 46.2676 91.9934 47.7656 91.7529 49.2255C91.5124 50.6854 91.3296 51.7063 91.2045 52.317C90.7917 52.4814 90.363 52.6029 89.9249 52.6796C89.5014 52.7773 89.07 52.838 88.6358 52.8609H88.0874C87.9125 52.8846 87.7344 52.8678 87.5671 52.8119C87.3999 52.756 87.2479 52.6625 87.123 52.5387C86.9982 52.4149 86.904 52.2642 86.8476 52.0983C86.7913 51.9324 86.7744 51.7558 86.7982 51.5823V51.0384C87.7795 48.6148 88.7576 46.2199 89.7325 43.8535C90.731 41.3984 91.2312 38.7719 91.2045 36.1247C91.1976 35.4896 91.0394 34.8652 90.7427 34.3023L89.9249 32.6707C89.9758 35.5622 89.6525 38.4482 88.9629 41.2582C88.1678 44.028 87.0269 46.6885 85.5668 49.1778H83.4695C82.1652 49.1985 80.8659 49.0117 79.6212 48.6244C78.526 48.2701 77.479 47.7829 76.5041 47.174C75.5421 46.5634 74.58 45.8955 73.5699 45.1703C72.5597 44.4451 71.4918 43.6531 70.27 42.8039C69.9579 42.6617 69.6365 42.5406 69.3079 42.4413C68.9593 42.3561 68.6207 42.2346 68.2977 42.0788C68.0476 42.0788 67.5858 42.0788 66.922 41.9929L64.8055 41.8116L62.6119 41.6208L61.3228 41.5349C60.6078 41.4036 59.9285 41.1252 59.3287 40.7177C58.7288 40.3101 58.2218 39.7824 57.8401 39.1685C56.7007 37.6481 55.748 35.9986 55.002 34.2546C54.2231 32.4859 53.5799 30.6614 53.0779 28.7967C52.6819 27.4959 52.4366 26.1546 52.3467 24.7988V21.9363C52.7367 21.1517 53.3028 20.4663 54.0015 19.9325C54.6113 19.4532 55.1633 18.9057 55.6466 18.3009C57.3548 16.0445 59.2261 13.9142 61.2458 11.927C62.9091 10.3126 64.7902 8.93506 66.8354 7.83368C68.9174 6.76652 71.1433 6.00172 73.4448 5.56275C76.3001 5.0404 79.2002 4.7975 82.1034 4.83758C82.5844 4.83758 83.5946 4.8376 85.1242 4.92348C86.6539 5.00935 87.6641 5.01887 88.1547 5.01887C89.2515 5.62954 90.3867 6.20204 91.5508 6.74591C92.7238 7.29468 94.006 7.57509 95.3029 7.56648C96.7418 7.42446 98.0938 6.81769 99.1511 5.83944C100.362 4.80913 101.809 4.08843 103.365 3.74026C103.558 3.58402 103.776 3.4614 104.01 3.37767C104.246 3.29937 104.465 3.17628 104.654 3.01514C104.593 3.1433 104.561 3.28347 104.561 3.42542C104.561 3.56738 104.593 3.70755 104.654 3.83571C104.77 4.14104 104.952 4.29369 105.203 4.29369C105.487 4.28151 105.767 4.22015 106.03 4.1124C106.328 3.98836 106.482 3.8643 106.482 3.74026V4.29369L110.33 5.56275H111.061C111.556 5.47361 112.045 5.35249 112.524 5.20016C113.38 4.96162 114.275 4.74218 115.189 4.56089C116.103 4.3796 116.959 4.1983 117.757 4.017C118.268 3.88027 118.789 3.78765 119.316 3.74026C120.278 3.62576 120.903 3.55896 121.154 3.55896C122.324 3.54957 123.481 3.80065 124.54 4.29369C125.605 4.77907 126.764 5.02663 127.936 5.01887C128.618 4.93662 129.259 4.65043 129.774 4.1983C130.505 3.65442 131.332 3.08192 132.246 2.47126C133.16 1.86059 134.17 1.28809 135.18 0.744213C136.167 0.211794 137.271 -0.0701663 138.394 -0.076416C140.277 -0.0311643 142.125 0.435311 143.801 1.2881C145.502 2.1371 147.326 2.71968 149.207 3.01514C149.332 3.01514 149.756 3.01512 150.497 3.11053C151.237 3.20595 151.959 3.26317 152.7 3.37767C153.44 3.49217 154.133 3.59717 154.807 3.65442C155.48 3.71167 155.932 3.74026 156.182 3.74026C157.678 3.91168 159.118 4.41032 160.396 5.20016C161.503 5.92533 162.84 6.71727 164.437 7.56648C165.757 8.26522 167.138 8.84328 168.564 9.29353C169.301 9.48499 169.964 9.8892 170.47 10.4548C170.975 11.0205 171.299 11.7221 171.402 12.4709C171.763 13.9105 172.039 15.3696 172.23 16.841C172.498 18.4664 172.653 20.1083 172.691 21.755C172.725 23.1088 172.537 24.4591 172.133 25.7529C171.768 26.8502 171.373 27.938 170.95 29.0257C170.5 30.1825 170.13 31.3685 169.844 32.5753C169.523 34.0992 169.429 35.6615 169.565 37.2125C168.22 38.749 166.643 40.0688 164.889 41.1246C163.137 42.3178 161.264 43.3252 159.299 44.1302C158.13 44.5294 156.934 44.8482 155.721 45.0844C154.461 45.3204 153.288 45.8872 152.324 46.7256C151.715 47.2146 151.189 47.7977 150.766 48.4526C150.343 49.1206 149.948 49.7599 149.583 50.361C149.208 50.975 148.741 51.5285 148.197 52.0021C147.543 52.5249 146.745 52.8407 145.907 52.9086C145.301 53.0326 144.041 53.1757 142.146 53.357C140.251 53.5383 139 53.6338 138.394 53.6338C137.751 54.3808 136.971 54.9993 136.094 55.4562C135.224 55.9294 134.249 56.1787 133.256 56.1814C132.924 56.1343 132.6 56.0412 132.294 55.9047C131.966 55.8089 131.656 55.6571 131.38 55.4562L131.197 55.2749C131.243 53.4243 131.817 51.6245 132.852 50.0842C133.919 48.4282 134.49 46.5057 134.497 44.5405V43.4527C134.497 43.3287 134.497 42.8707 134.411 42.0883C134.324 41.3059 134.286 40.5044 134.228 39.722C134.17 38.9396 134.103 38.1762 134.045 37.4415C133.987 36.7068 133.949 36.2297 133.949 35.9912V35.6286C133.942 34.2075 134.159 32.794 134.594 31.4398C135.032 30.0276 135.25 28.5569 135.238 27.0792C135.255 26.2154 135.128 25.3547 134.863 24.5316C134.606 23.7069 134.483 22.847 134.497 21.984C134.516 20.9002 134.701 19.8256 135.046 18.7971C135.372 17.8193 135.619 16.8174 135.787 15.801C136.562 15.5943 137.282 15.2196 137.893 14.7037C138.442 14.2266 138.99 13.7495 139.539 13.3392C140.109 12.9103 140.725 12.5455 141.376 12.2515C142.224 11.9284 143.144 11.8329 144.041 11.9747C143.916 11.3736 143.483 11.0969 142.752 11.1637L141.472 11.2496C140.438 11.2588 139.414 11.4427 138.442 11.7934C137.475 12.1162 136.575 12.611 135.787 13.2533L134.459 12.0034C133.853 11.4023 133.42 10.9824 133.179 10.7343C132.939 10.4862 132.871 10.6389 132.631 10.8202C132.474 10.9611 132.281 11.0568 132.073 11.0969L131.89 11.2782C132.164 11.6933 132.506 12.0608 132.9 12.366C133.446 12.8494 133.766 13.1675 133.862 13.3201V13.864C133.724 14.0036 133.569 14.1255 133.401 14.2266C133.218 14.3507 133.131 14.4746 133.131 14.5892V14.7704C133.119 15.3386 133.244 15.9015 133.497 16.4116C133.745 16.9233 133.87 17.4851 133.862 18.0528C133.861 18.6387 133.771 19.221 133.593 19.7798C133.401 20.3237 132.823 20.4764 131.842 20.2283C132.516 21.028 133.073 21.9177 133.497 22.8714C133.766 23.7228 133.89 24.6129 133.862 25.5048C133.877 26.8715 133.629 28.2283 133.131 29.5028C132.628 30.7792 132.376 32.1398 132.39 33.5103C132.39 33.8729 132.39 34.4645 132.487 35.2374C132.583 36.0102 132.583 36.4873 132.583 36.6018C132.583 36.7163 132.669 37.6992 132.852 39.1495C133.035 40.5998 133.131 41.449 133.131 41.6971C133.131 41.9452 133.006 42.4223 132.766 43.5195C132.525 44.6168 132.237 45.7618 131.938 46.9736C131.655 48.1191 131.285 49.2419 130.832 50.3323C130.409 51.3724 130.014 51.8781 129.649 51.8781C129.007 51.8781 128.517 51.3342 128.177 50.2465C127.811 49.1492 127.561 48.424 127.445 48.0614V49.5213C127.399 50.9598 127.85 52.3708 128.725 53.5193C129.559 54.5504 130.014 55.8327 130.014 57.1547C130.029 57.6133 129.984 58.072 129.879 58.5191C129.81 58.7 129.706 58.8656 129.572 59.0064C129.439 59.1473 129.278 59.2605 129.1 59.3397L127.811 56.7921H127.08C127.915 60.4758 128.465 64.2175 128.725 67.9844C128.975 71.6866 129.1 75.4143 129.1 79.1673V85.7129C129.092 88.4587 128.864 91.1994 128.417 93.9092C128.004 96.5608 127.186 99.1346 125.993 101.543C125.515 102.593 124.83 103.537 123.977 104.319C123.124 105.101 122.121 105.704 121.028 106.094V105.359C121.002 103.156 121.248 100.958 121.76 98.8136C122.296 96.4279 122.542 93.9868 122.491 91.5429C122.492 87.5597 122.03 83.5896 121.115 79.7112C120.199 75.8361 119.738 71.8691 119.739 67.8891V66.9826C119.855 66.3719 119.98 65.1887 120.105 63.433C120.23 61.6774 120.355 60.4942 120.47 59.8836C121.145 58.9276 121.88 58.016 122.674 57.1547C123.164 56.6776 124.328 56.3722 126.156 56.2482H120.105V49.8839C119.855 53.1599 119.643 56.827 119.47 60.8854C119.297 64.9438 118.976 68.6142 118.508 71.8966C118.475 72.3831 118.414 72.8674 118.325 73.3469C118.2 74.072 118.075 74.864 117.96 75.7132C117.844 76.5625 117.68 77.383 117.498 78.1654C117.38 78.6149 117.287 79.0704 117.219 79.5299C117.094 81.5891 117.094 83.6538 117.219 85.7129C117.344 87.6212 117.402 89.5964 117.402 91.5429C117.404 93.3682 117.282 95.1917 117.036 97.0007C116.734 99.0013 116.182 100.957 115.391 102.821C114.25 105.557 112.899 108.201 111.35 110.731C109.645 113.572 107.681 116.252 105.482 118.737C103.367 121.145 100.93 123.255 98.2372 125.006C95.7737 126.658 92.8699 127.545 89.8961 127.553H86.7694C86.4472 127.481 86.1387 127.359 85.8554 127.191C85.5182 126.998 85.1452 126.874 84.7587 126.828C84.5256 126.871 84.3052 126.966 84.1141 127.105C83.8849 127.233 83.669 127.383 83.4695 127.553C84.6467 128.194 85.915 128.654 87.2312 128.918C88.5256 129.21 89.848 129.364 91.1756 129.376C92.8239 129.308 94.4493 128.969 95.9859 128.374C97.6216 127.826 99.1977 127.116 100.69 126.256V126.437C100.696 127.735 100.482 129.026 100.055 130.253C99.6238 131.48 99.4059 132.771 99.4109 134.07C99.4051 135.14 99.5278 136.207 99.7765 137.248C100.019 138.293 100.142 139.362 100.142 140.434C100.142 140.797 100.113 141.312 100.055 141.98C99.9787 142.691 99.8238 143.392 99.5937 144.07C99.3981 144.735 99.071 145.354 98.6316 145.892C98.4186 146.131 98.1439 146.308 97.8371 146.404C97.5303 146.5 97.203 146.511 96.8903 146.436C96.7652 146.436 96.4574 146.14 95.9282 145.53C95.3991 144.919 95.1297 144.576 94.9662 144.432H94.235C94.5364 144.703 94.7591 145.049 94.8796 145.434C94.9366 145.749 94.9656 146.068 94.9662 146.388C94.9586 146.76 94.8417 147.122 94.6298 147.429C94.4178 147.736 94.1201 147.974 93.7732 148.115C93.1695 148.469 92.5229 148.745 91.8491 148.936C91.0454 148.878 90.2476 148.757 89.4632 148.574C88.2413 148.335 87.539 148.03 87.2696 147.619C86.735 146.727 86.3332 145.763 86.0767 144.757C85.8939 143.908 85.6726 142.934 85.4321 141.837C85.0665 141.112 84.8164 140.749 84.7009 140.749C84.6382 140.423 84.5448 140.104 84.4219 139.795C84.2949 139.471 84.2015 139.136 84.1429 138.793L83.4118 137.343C83.0462 136.618 82.6517 135.854 82.2188 135.072C81.7859 134.29 81.3914 133.526 81.0259 132.792L80.2947 131.341L81.0643 126.771ZM56.397 179.069C57.0705 179.25 57.3591 179.832 57.3591 180.796C57.3591 181.759 56.7434 182.437 55.5215 182.437C54.6653 182.437 54.2131 181.922 54.1458 180.891C54.0784 179.861 54.0592 179.164 54.0592 178.802C54.8479 178.792 55.6343 178.888 56.397 179.088V179.069ZM55.204 160.94C55.204 161.426 55.3291 161.607 55.5696 161.483C55.681 161.442 55.7769 161.368 55.844 161.27C55.9112 161.173 55.9464 161.057 55.9448 160.94C55.9628 160.795 55.9366 160.649 55.8697 160.52C55.8028 160.39 55.6982 160.284 55.5696 160.214C55.3291 160.148 55.204 160.386 55.204 160.987V160.94ZM58.6867 167.857C58.8118 167.619 59.0234 167.161 59.3313 166.493C59.6392 165.825 59.9759 165.128 60.3415 164.403C60.7071 163.678 61.0438 162.972 61.3035 162.304C61.5633 161.636 61.8231 161.188 61.9481 160.94C61.9481 160.462 62.1309 160.214 62.4965 160.214H63.0449C63.4334 162.706 64.3374 165.09 65.7002 167.218C67.0188 169.366 68.732 171.25 70.751 172.771V173.134C70.7429 173.32 70.6764 173.499 70.5609 173.646C70.4454 173.793 70.2865 173.901 70.1064 173.954C69.6735 174.126 69.1925 174.317 68.6441 174.498C68.0558 174.692 67.4986 174.968 66.9893 175.319C66.7076 175.535 66.4759 175.809 66.31 176.122C66.144 176.435 66.0476 176.779 66.0273 177.132H65.2961C65.5366 177.742 65.3538 177.981 64.7381 177.857C64.2577 177.741 63.7562 177.741 63.2758 177.857C62.66 178.105 62.4195 177.924 62.5446 177.313C62.6617 176.837 62.6617 176.339 62.5446 175.863C62.2945 175.252 62.5446 174.985 63.2758 175.042C63.5719 175.033 63.865 175.104 64.1229 175.249C64.3808 175.394 64.5936 175.606 64.7381 175.863C64.6701 175.677 64.5457 175.517 64.3821 175.405C64.2122 175.297 64.0835 175.136 64.0166 174.947C63.3401 175.135 62.7271 175.5 62.2414 176.004C61.7558 176.507 61.4152 177.131 61.2554 177.809C60.597 177.383 60.1101 176.742 59.8797 175.996C59.5624 175.108 59.3179 174.195 59.1485 173.267C58.9672 172.322 58.8451 171.366 58.7829 170.405C58.7252 169.451 58.6867 168.649 58.6867 168.039V167.857ZM69.5099 141.293H68.9616C69.4562 140.813 70.1084 140.525 70.7991 140.482C71.5303 140.415 72.2037 140.387 72.8098 140.387V139.433H69.5099V141.293ZM69.6927 142.028C69.683 142.103 69.6908 142.178 69.7156 142.249C69.7403 142.32 69.7814 142.385 69.8354 142.437C69.8895 142.49 69.9551 142.53 70.0272 142.553C70.0992 142.576 70.1757 142.583 70.2507 142.572C70.4912 142.572 70.6163 142.391 70.6163 142.028C70.6163 141.665 70.4912 141.293 70.2507 141.293C70.0102 141.293 69.6927 141.589 69.6927 142.076V142.028ZM71.5303 142.572H72.0787C72.4892 142.616 72.9019 142.51 73.2399 142.275C73.5779 142.04 73.8183 141.691 73.9162 141.293L71.5303 142.572ZM87.3947 28.9685C87.89 30.1081 88.5372 31.1768 89.3188 32.1459V31.4207C89.3281 30.4985 89.205 29.5796 88.9533 28.6918C88.7056 27.8031 88.5826 26.8849 88.5877 25.9629C88.5741 24.7139 88.8231 23.4757 89.3188 22.3275C89.8088 21.2348 90.3613 20.1708 90.9736 19.1406C91.5809 18.1125 92.1301 17.0517 92.6187 15.9632C93.123 14.8139 93.3755 13.5716 93.3595 12.3183C92.9385 12.2716 92.5123 12.3213 92.1137 12.4636C91.7151 12.6058 91.3547 12.8368 91.0602 13.1389C90.6518 13.6544 90.3421 14.2397 90.1462 14.8659C89.9681 15.4573 89.8773 16.0711 89.8768 16.6883C89.9034 16.8801 89.8624 17.075 89.7607 17.2402C89.659 17.4054 89.5029 17.5306 89.3188 17.5948V17.0509C89.154 17.2231 88.9556 17.3601 88.7356 17.4536C88.5156 17.5471 88.2787 17.5952 88.0393 17.5948C87.4236 17.4803 86.9618 16.9937 86.6636 16.1444C86.4882 15.4681 86.0622 14.8821 85.4706 14.5033C84.8549 14.5033 83.5465 14.5701 81.6223 14.6846C79.6982 14.7991 78.3802 14.9327 77.7741 15.0472C77.2638 15.2065 76.743 15.3309 76.2155 15.4193C75.5421 15.5338 75.2535 15.6578 75.2535 15.7819V17.0509C76.1834 17.0607 77.1099 16.9386 78.005 16.6883C78.901 16.4427 79.8269 16.3207 80.7565 16.3257C82.1443 16.2081 83.5388 16.4584 84.7971 17.0509C85.9982 17.9698 87.1036 19.0055 88.097 20.1424C87.6203 21.0042 87.252 21.9207 87.0003 22.8714C86.8546 23.7126 86.7902 24.5657 86.8079 25.419C86.7589 26.6449 86.9584 27.8682 87.3947 29.0162V28.9685ZM80.1504 114.195H76.6677C76.052 114.433 75.773 114.348 75.8403 113.918C75.8888 113.602 75.9177 113.283 75.9269 112.964C75.5613 111.876 75.773 111.39 76.5715 111.514C77.2714 111.638 77.9881 111.638 78.688 111.514C78.6205 111.644 78.5927 111.791 78.6081 111.937C78.6235 112.082 78.6813 112.221 78.7746 112.334L79.4192 112.964C79.2941 113.451 79.4192 113.632 79.8714 113.508C80.1978 113.391 80.5551 113.391 80.8815 113.508L80.1504 114.195ZM79.4192 78.9955C79.1691 77.965 78.8708 76.8391 78.4571 75.6273C78.3047 74.8482 78.2465 74.0538 78.284 73.261V70.9137C78.2623 67.6387 78.7856 64.3827 79.8329 61.2767C80.9017 58.127 81.7314 54.9024 82.315 51.63H85.4321L86.7116 55.4467C86.8941 55.8833 87.0171 56.3422 87.0772 56.8111C87.1616 57.202 87.2259 57.5969 87.2696 57.9943V59.2633C87.2696 59.9885 87.1734 61.353 86.9907 63.3568C86.8079 65.3605 86.6251 67.4501 86.4423 69.6351C86.2595 71.8202 86.0767 73.9098 85.8939 75.9136C85.7111 77.9173 85.5572 79.339 85.4321 80.1882C84.8164 82.6118 84.0275 85.3122 83.0462 88.2796C82.2333 91.006 80.639 93.4392 78.4571 95.2832C78.4571 95.0446 78.4571 94.4054 78.3706 93.3749C78.284 92.3444 78.284 91.7051 78.284 91.4665C78.2576 89.9187 78.5051 88.3783 79.0151 86.9152C79.5214 85.4511 79.7687 83.9113 79.7463 82.3638C79.7633 81.2483 79.6536 80.1344 79.4192 79.0433V78.9955ZM89.3188 54.8933C89.4314 54.6025 89.6044 54.3384 89.8264 54.1181C90.0485 53.8979 90.3148 53.7263 90.608 53.6147H91.166C92.019 56.7952 92.7823 60.0998 93.4557 63.5285C94.1001 66.8554 94.4222 70.2359 94.4178 73.6236C94.3962 76.1627 93.9642 78.6818 93.1382 81.0852C92.2707 83.6522 91.1324 86.1213 89.7422 88.4514C88.3582 90.7881 86.6624 92.9289 84.7009 94.8157C82.8911 96.5957 80.777 98.0431 78.4571 99.0904C78.4472 98.9523 78.3854 98.8229 78.284 98.7278C79.4962 96.5396 80.5031 94.7521 81.3048 93.3654C82.1066 91.9786 82.8409 90.6746 83.508 89.4532C83.9534 88.689 84.3518 87.8988 84.7009 87.0869C84.8606 86.8974 84.9845 86.6808 85.0665 86.4476C85.1428 86.2147 85.2673 86.0002 85.4321 85.8179C87.6421 75.6592 88.9427 65.3267 89.3188 54.941V54.8933ZM81.2567 146.388C81.2567 146.751 81.3722 146.932 81.6223 146.932C81.697 146.944 81.7733 146.937 81.845 146.914C81.9168 146.891 81.982 146.851 82.0354 146.798C82.0888 146.745 82.1288 146.681 82.1524 146.609C82.1759 146.538 82.1821 146.462 82.1707 146.388C82.1707 145.902 81.9879 145.663 81.6223 145.663C81.2568 145.663 81.2567 145.95 81.2567 146.436V146.388ZM82.3535 105.273C82.4095 105.857 82.5946 106.421 82.8956 106.926C83.1966 107.431 83.606 107.863 84.0948 108.193C84.9874 109.029 86.1022 109.596 87.3081 109.825C87.6737 109.825 88.4337 109.825 89.5978 109.739C90.3688 109.728 91.1365 109.635 91.8876 109.462H89.8768C90.3579 109.462 91.1852 109.462 92.3493 109.367C93.2982 109.379 94.227 109.095 95.0046 108.556C94.9984 108.288 94.9038 108.03 94.7353 107.821C94.5933 107.63 94.439 107.448 94.2735 107.277H94.0522C93.1878 107.266 92.3252 107.359 91.4835 107.554C90.6413 107.746 89.7788 107.835 88.9148 107.821H86.0286C85.6479 107.294 85.455 106.656 85.4802 106.008V105.273C85.7207 105.273 86.6058 105.159 88.1355 104.911C89.1985 104.822 90.2308 104.513 91.166 104.004V103.46C90.8951 103.081 90.5118 102.794 90.0693 102.64C89.5346 102.453 88.9789 102.331 88.4145 102.277C87.7988 102.22 87.2504 102.182 86.7598 102.182H86.0286V101.819C86.0286 101.342 86.3364 101.066 86.9907 100.999C87.6449 100.932 88.0201 100.913 88.2702 100.913C89.7908 100.776 91.3054 101.231 92.4937 102.182C92.9234 102.609 93.4376 102.943 94.0039 103.163C94.5702 103.383 95.1762 103.484 95.7839 103.46C95.7839 102.004 94.8379 101.002 92.9458 100.455C91.4911 99.9881 89.9802 99.7153 88.453 99.6438C86.9626 99.6398 85.4901 99.9658 84.1429 100.598C83.472 100.899 82.8915 101.368 82.458 101.958C82.0246 102.548 81.7532 103.24 81.6704 103.966H89.367C88.2191 104.222 87.0558 104.404 85.8843 104.51C84.7272 104.629 83.5648 104.69 82.4016 104.691L82.3535 105.273ZM81.8051 132.563C81.7937 132.637 81.8 132.712 81.8235 132.783C81.847 132.855 81.8871 132.919 81.9405 132.972C81.9939 133.025 82.0591 133.065 82.1308 133.088C82.2026 133.112 82.2789 133.118 82.3535 133.106C82.594 133.106 82.7191 132.925 82.7191 132.563C82.7191 132.2 82.594 131.837 82.3535 131.837C82.113 131.837 81.8051 132.133 81.8051 132.61V132.563ZM82.3535 150.215C82.3287 150.212 82.3036 150.214 82.28 150.222C82.2564 150.23 82.235 150.243 82.2173 150.261C82.1997 150.278 82.1863 150.3 82.1782 150.323C82.1701 150.347 82.1676 150.371 82.1707 150.396C82.1707 150.635 82.2284 150.759 82.3535 150.759L82.9019 149.48C82.5074 149.528 82.3535 149.776 82.3535 150.262V150.215ZM83.0847 120.197C82.8345 120.197 82.7768 120.321 82.9019 120.559C83.0269 120.798 83.1424 120.922 83.2675 120.922C83.3925 120.922 83.4502 120.807 83.4502 120.559C83.4502 120.311 83.4695 120.244 83.0847 120.244V120.197ZM89.3188 143.097V142.915C89.3188 142.317 89.136 141.999 88.7705 141.961C88.408 141.901 88.0412 141.869 87.6737 141.866H86.7116L89.3188 143.097ZM87.4909 16.5261C87.4795 16.6002 87.4858 16.6758 87.5093 16.747C87.5328 16.8181 87.5729 16.8828 87.6263 16.9358C87.6797 16.9887 87.7449 17.0285 87.8166 17.0518C87.8884 17.0751 87.9647 17.0814 88.0393 17.07C88.2798 17.07 88.4049 16.8887 88.4049 16.5261C88.4049 16.1636 88.2798 15.801 88.0393 15.801C87.7988 15.801 87.4909 16.0681 87.4909 16.5261ZM89.8768 146.951C90.1216 146.141 90.6374 145.438 91.3392 144.957C92.0993 144.521 92.8979 144.153 93.7251 143.86H89.8768V146.951ZM94.0522 108.603C94.0522 108.966 93.9271 109.147 93.6866 109.147C93.4461 109.147 93.321 108.966 93.321 108.603C93.321 108.241 93.4365 107.869 93.6866 107.869C93.9367 107.869 94.0522 108.126 94.0522 108.603ZM105.424 76.7628H103.038C102.672 76.7628 102.547 76.8296 102.672 76.9441C103.098 77.2471 103.624 77.3799 104.144 77.3162C104.72 77.3882 105.302 77.2564 105.789 76.9441C105.953 76.8296 105.828 76.7628 105.462 76.7628H105.424ZM105.972 82.0393C105.972 82.4019 106.097 82.5832 106.338 82.5832C106.412 82.5946 106.489 82.5884 106.56 82.565C106.632 82.5417 106.697 82.502 106.751 82.449C106.804 82.3961 106.844 82.3314 106.868 82.2602C106.891 82.1891 106.898 82.1133 106.886 82.0393C106.886 81.5622 106.713 81.3142 106.338 81.3142C105.963 81.3142 106.011 81.5622 106.011 82.0393H105.972ZM111.11 39.1017C111.11 39.4643 111.225 39.6456 111.475 39.6456C111.621 39.6456 111.76 39.5883 111.863 39.4863C111.966 39.3843 112.024 39.246 112.024 39.1017C112.024 38.9575 111.966 38.8192 111.863 38.7172C111.76 38.6152 111.621 38.5579 111.475 38.5579C111.264 38.5675 111.148 38.7487 111.148 39.1113L111.11 39.1017ZM114.775 86.5812C114.765 86.6557 114.773 86.7315 114.798 86.8025C114.823 86.8736 114.864 86.938 114.918 86.9907C114.972 87.0434 115.037 87.0829 115.109 87.1063C115.182 87.1296 115.258 87.136 115.333 87.1251C115.574 87.1251 115.699 86.9438 115.699 86.5812C115.699 86.2186 115.574 85.856 115.333 85.856C115.093 85.856 114.814 86.1041 114.814 86.5907L114.775 86.5812ZM125.877 144.423C126.087 143.963 126.362 143.535 126.695 143.154C126.329 143.402 125.964 143.307 125.598 142.877C125.446 142.684 125.252 142.527 125.031 142.418C124.809 142.309 124.566 142.251 124.319 142.247V145.158C124.319 145.272 124.165 145.396 123.857 145.52C123.596 145.633 123.315 145.695 123.03 145.701C122.723 145.718 122.418 145.75 122.116 145.797C121.752 145.845 121.386 145.873 121.019 145.883C120.434 145.884 119.85 145.855 119.268 145.797C118.72 145.73 118.45 145.272 118.45 144.423C118.419 143.88 118.551 143.341 118.828 142.873C119.106 142.404 119.516 142.027 120.009 141.789C120.95 141.294 121.973 140.971 123.03 140.835C122.815 140.691 122.556 140.627 122.298 140.654H120.836C120.586 140.654 120.461 140.721 120.461 140.835C120.232 140.881 120.015 140.975 119.826 141.112C119.633 141.247 119.413 141.338 119.181 141.379C119.056 141.379 118.816 141.198 118.45 140.835C118.325 140.597 118.142 140.167 117.902 139.566C117.959 139.212 118.116 138.882 118.354 138.612C118.604 138.258 118.88 137.923 119.181 137.61C119.181 136.522 119.114 135.158 118.999 133.517C118.883 131.876 118.816 130.215 118.816 128.517C118.804 126.812 118.926 125.108 119.181 123.422C119.362 122.024 119.796 120.669 120.461 119.424V109.147C121.488 108.374 122.453 107.522 123.347 106.6C124.471 105.49 125.516 104.304 126.474 103.05C127.418 101.825 128.246 100.515 128.946 99.1381C129.563 97.9579 129.893 96.6507 129.908 95.3214V63.6716C130.743 61.6796 131.356 59.6031 131.736 57.479H138.307C139.761 57.1974 141.156 56.6749 142.434 55.9333C143.732 55.1957 145.115 54.6159 146.552 54.2062C148.198 53.9272 149.746 53.2414 151.054 52.2121C151.926 51.4088 152.751 50.5583 153.527 49.6644C155.451 47.3348 158.209 45.8338 161.224 45.4756C162.106 45.2843 162.926 44.8776 163.609 44.2924L166.207 42.2887L168.497 40.4663C169.022 39.9781 169.702 39.6877 170.421 39.6456C170.734 39.6875 171.034 39.794 171.302 39.9584C171.571 40.1228 171.802 40.3413 171.979 40.5998C172.561 41.2634 173.056 41.9976 173.451 42.7849C173.875 43.6373 174.269 44.4865 174.635 45.3325C174.95 45.9583 175.139 46.6388 175.193 47.3362C175.777 50.3317 176.052 53.3787 176.01 56.4295C175.953 59.2252 175.924 62.3739 175.924 65.8948V78.299C175.805 81.0136 175.5 83.717 175.01 86.3903C174.519 89.0048 174 91.6383 173.451 94.31C172.903 96.9817 172.403 99.6151 171.979 102.22C171.543 104.895 171.327 107.601 171.335 110.311C171.335 112.258 171.396 114.109 171.518 115.865C171.655 117.691 172.027 119.493 172.624 121.227V133.784C172.624 135.234 172.104 136.141 171.065 136.513C170.094 136.864 169.069 137.047 168.035 137.057C166.816 137.057 166.143 136.57 166.015 135.597C165.944 135.103 165.758 134.632 165.473 134.222C165.187 133.811 164.809 133.472 164.369 133.23C164.535 133.885 164.597 134.561 164.552 135.234C164.593 135.848 164.532 136.463 164.369 137.057C164.244 137.543 163.821 137.782 163.08 137.782H161.801C161.435 137.782 160.916 137.782 160.242 137.686C159.569 137.591 159.28 137.295 159.28 136.732C159.239 136.167 159.333 135.599 159.555 135.077C159.778 134.554 160.122 134.092 160.56 133.727C161.523 133.021 162.673 132.61 163.869 132.544C163.207 132.696 162.528 132.757 161.849 132.725C161.23 132.772 160.608 132.71 160.011 132.544C159.886 132.544 159.675 132.362 159.367 132C159.059 131.637 158.847 131.456 158.732 131.456C158.616 131.456 158.482 131.274 158.001 131.274H157.548C157.423 131.274 157.356 131.332 157.356 131.456C157.727 131.915 158.008 132.439 158.183 133.002C158.409 133.493 158.565 134.013 158.645 134.547C158.645 135.759 158.308 136.456 157.683 136.732C156.882 136.992 156.043 137.114 155.201 137.095H153.556C153.084 136.532 152.825 135.823 152.825 135.091C153.007 133.596 153.541 132.165 154.383 130.912C155.422 129.086 156.125 127.75 156.49 126.904V110.989C156.511 110.52 156.628 110.06 156.833 109.637C157.038 109.214 157.327 108.836 157.683 108.527C158.406 107.856 158.943 107.011 159.242 106.075V105.34L156.673 107.344V105.712C156.648 104.075 157.238 102.487 158.328 101.256C159.41 100.018 159.995 98.429 159.973 96.7908V96.6095C159.607 97.2202 159.011 98.2221 158.231 99.6152C157.452 101.008 156.606 101.705 155.759 101.705H155.576V101.523C155.451 101.523 155.239 101.285 154.932 100.798C154.624 100.312 154.412 99.9491 154.287 99.7105C154.162 99.472 153.921 99.0427 153.556 98.432V91.5238C155.256 90.4996 156.826 89.2758 158.231 87.8789C159.905 86.2829 161.441 84.5497 162.821 82.6977C164.187 80.8861 165.355 78.9349 166.303 76.8773C167.183 75.0256 167.652 73.0083 167.679 70.9614C167.665 70.7177 167.633 70.4753 167.583 70.2363C167.539 69.9966 167.51 69.7544 167.496 69.5111C165.425 74.7228 162.5 79.5589 158.838 83.8237C155.541 87.5258 150.833 90.1053 144.714 91.562C144.564 91.3481 144.498 91.0862 144.532 90.8272C144.532 89.6104 144.781 88.4061 145.263 87.2873C145.757 86.1295 146.276 84.975 146.821 83.8237C147.37 82.6787 147.889 81.4955 148.38 80.2837C148.868 79.0698 149.117 77.774 149.111 76.467V75.6846L147.1 80.7799V70.0359C146.6 72.4359 146.278 74.8693 146.138 77.3162C146.003 79.7604 145.681 82.1909 145.176 84.587C144.979 85.33 144.735 86.0598 144.445 86.772C143.954 88.1079 143.589 89.0716 143.339 89.6345C142.393 91.8572 141.687 94.1727 141.232 96.5427C140.792 98.9447 140.576 101.382 140.587 103.823C140.582 105.769 140.704 107.713 140.953 109.643C141.21 111.573 141.335 113.518 141.328 115.464C141.36 117.754 140.922 120.027 140.039 122.143C139.176 124.188 138.741 126.386 138.759 128.603C138.725 130.859 139.194 133.094 140.135 135.148C140.99 136.846 141.46 138.709 141.511 140.606C141.55 141.837 141.125 143.038 140.318 143.974C139.919 144.425 139.423 144.782 138.867 145.018C138.311 145.254 137.709 145.364 137.105 145.339C136.849 145.358 136.592 145.318 136.354 145.224C136.115 145.13 135.902 144.983 135.729 144.795C135.43 144.437 135.184 144.038 134.998 143.612C134.815 143.182 134.632 142.791 134.449 142.429C134.356 142.247 134.21 142.097 134.03 141.998C133.85 141.9 133.644 141.857 133.439 141.875H133.074C133.299 142.087 133.479 142.341 133.605 142.623C133.73 142.905 133.798 143.209 133.805 143.516V145.158C133.805 146.493 133.497 147.343 132.891 147.705C131.975 148.13 130.965 148.317 129.956 148.249C129.044 148.215 128.143 148.031 127.292 147.705C126.821 147.57 126.395 147.313 126.057 146.961C125.719 146.609 125.481 146.174 125.367 145.701C125.466 145.247 125.652 144.816 125.916 144.432L125.877 144.423ZM118.537 87.6689C118.595 84.0617 118.994 80.4677 119.73 76.9345C119.908 77.6524 120.031 78.3829 120.095 79.1196C120.22 80.2169 120.345 81.3619 120.461 82.5737C120.576 83.7855 120.711 84.94 120.836 86.0373C120.961 87.1346 121.019 87.9457 121.019 88.3941V94.2241C121.019 95.3118 120.952 96.4664 120.836 97.6782C120.726 98.7805 120.54 99.8741 120.278 100.951C120.038 101.905 119.73 102.411 119.316 102.411C118.7 102.411 118.402 101.8 118.402 100.588V98.4033C118.46 94.8984 118.517 91.3234 118.575 87.6785L118.537 87.6689ZM120.134 42.2887C120.009 44.197 119.884 45.4088 119.768 46.01V48.5576C120.219 47.5226 120.467 46.4119 120.499 45.2848V38.6056C120.384 39.1781 120.259 40.3804 120.134 42.2887ZM123.251 141.331C123.251 141.694 123.376 141.875 123.616 141.875C123.762 141.875 123.901 141.818 124.004 141.716C124.107 141.614 124.165 141.476 124.165 141.331C124.165 141.187 124.107 141.049 124.004 140.947C123.901 140.845 123.762 140.787 123.616 140.787C123.376 140.797 123.251 140.978 123.251 141.341V141.331ZM126.83 31.0963C126.887 31.3444 127.109 31.4589 127.474 31.4589C128.098 31.3311 128.71 31.1491 129.302 30.915C129.552 30.8005 129.822 30.6765 130.13 30.5524C130.437 30.4284 130.591 30.3139 130.591 30.1898L131.323 26.5545C131.136 26.5461 130.952 26.514 130.774 26.459C130.595 26.4103 130.411 26.3783 130.226 26.3636C127.898 26.3636 126.734 27.6995 126.734 30.3711C126.736 30.619 126.768 30.8657 126.83 31.1059V31.0963ZM127.657 141.522C127.407 141.522 127.349 141.646 127.474 141.885C127.599 142.123 127.532 142.257 127.657 142.257C127.708 142.264 127.759 142.258 127.807 142.242C127.855 142.225 127.898 142.198 127.934 142.162C127.969 142.126 127.996 142.082 128.011 142.034C128.027 141.986 128.031 141.935 128.023 141.885C128.138 141.646 128.023 141.522 127.657 141.522ZM127.657 30.3807C127.604 30.0101 127.639 29.6323 127.758 29.2773C127.878 28.9222 128.079 28.5996 128.346 28.3349C128.613 28.0702 128.938 27.8707 129.296 27.7522C129.654 27.6336 130.035 27.5992 130.409 27.6517C130.462 28.0223 130.427 28.4001 130.307 28.7552C130.188 29.1102 129.987 29.4328 129.72 29.6975C129.453 29.9622 129.128 30.1617 128.77 30.2802C128.412 30.3988 128.031 30.4332 127.657 30.3807ZM132.237 141.16H129.649C129.273 141.16 129.148 141.226 129.273 141.341C129.792 141.58 130.356 141.704 130.928 141.704C131.5 141.704 132.064 141.58 132.583 141.341C132.727 141.226 132.612 141.16 132.237 141.16ZM129.495 17.1177C129.483 17.1917 129.489 17.2674 129.513 17.3386C129.537 17.4097 129.577 17.4744 129.63 17.5274C129.683 17.5803 129.749 17.6201 129.82 17.6434C129.892 17.6667 129.968 17.673 130.043 17.6616C130.284 17.6616 130.409 17.4803 130.409 17.1177C130.409 16.7551 130.284 16.3925 130.043 16.3925C129.803 16.3925 129.495 16.612 129.495 17.0986V17.1177ZM130.591 19.484H131.323L130.591 18.9402V19.484ZM132.612 13.8449V13.301L131.871 12.5663H131.323L132.612 13.8449ZM142.329 110.893C142.081 109.053 141.959 107.197 141.963 105.34C141.963 104.978 141.963 104.167 142.05 102.888C142.136 101.609 142.146 100.798 142.146 100.436C142.354 99.5663 142.631 98.7145 142.973 97.8881C143.352 97.0708 143.955 96.3761 144.714 95.8843V111.714C145.084 112.953 145.268 114.239 145.263 115.531V123.717C144.935 124.469 144.504 125.172 143.983 125.807C143.765 126.149 143.468 126.434 143.117 126.64C142.766 126.845 142.37 126.966 141.963 126.99C141.967 125.257 142.089 123.526 142.329 121.809C142.572 120.029 142.694 118.234 142.694 116.437C142.699 114.577 142.577 112.718 142.329 110.874V110.893ZM150.304 68.4138C149.996 69.8737 149.785 70.847 149.659 71.2763V72.5549C150.269 71.7102 150.65 70.7246 150.766 69.6924C150.881 68.6657 150.942 67.6338 150.949 66.6009V65.6467C150.814 66.0379 150.612 66.9444 150.304 68.3947V68.4138ZM169.093 63.5762C168.546 64.6199 168.234 65.7692 168.179 66.9444V67.4883C168.67 66.639 169.218 65.58 169.834 64.3014C170.399 63.2653 170.727 62.1186 170.796 60.9427V60.5801C170.16 61.5391 169.591 62.5402 169.093 63.5762Z" fill="#4E364A"/>
</g>
<defs>
<clipPath id="clip0_245_210">
<rect width="176" height="183" fill="white"/>
</clipPath>
</defs>
</svg>
