<svg width="159" height="201" viewBox="0 0 159 201" fill="none" xmlns="http://www.w3.org/2000/svg">
<g clip-path="url(#clip0_245_216)">
<path d="M24.5262 78.1184C26.0244 79.0302 27.6701 79.6747 29.3895 80.0231C31.0645 80.3146 32.7623 80.4547 34.4624 80.4418C35.1647 80.4418 36.1185 80.4418 37.3133 80.3372C38.4842 80.2692 39.6498 80.1293 40.8035 79.9185C41.8821 79.7116 42.936 79.3924 43.9479 78.9661C44.8071 78.6339 45.5403 78.0409 46.0442 77.2706C44.5426 78.1127 42.8904 78.6531 41.1809 78.8614C39.9127 78.9347 38.2881 78.9661 36.3176 78.9661C34.2056 78.9272 32.1083 78.6069 30.0813 78.0137C27.7836 77.3898 25.5778 76.4679 23.52 75.2716C21.5518 74.1434 19.7988 72.6765 18.3423 70.9386C16.9486 69.2866 16.2036 67.1851 16.2461 65.0254H28.5091C30.0604 63.8048 31.6845 62.6794 33.3724 61.6553C35.2101 60.5249 37.0443 59.3283 38.875 58.0654C40.65 56.8404 42.3126 55.4605 43.8431 53.9418C45.2922 52.5104 46.3464 50.7295 46.9036 48.7716C46.9036 48.6355 46.977 48.1332 47.1133 47.2959C47.2495 46.4586 47.4382 45.6004 47.6478 44.7631C47.8574 43.9258 48.0356 43.1095 48.1719 42.335C48.2843 41.8112 48.3544 41.2792 48.3815 40.7442C48.4792 40.308 48.6232 39.8834 48.8112 39.4778C49.0984 38.7554 49.3468 38.0183 49.5554 37.2695C49.7557 36.516 50.0007 35.7751 50.2891 35.0507C50.5099 34.5817 50.6516 34.0796 50.7083 33.5645C50.8283 33.3745 50.9035 33.1597 50.9284 32.9365C50.8911 32.6458 50.8172 32.3609 50.7083 32.0888C49.238 34.6945 48.2042 37.5227 47.6478 40.4616C47.1215 43.3271 46.3068 46.1323 45.2162 48.8344C44.0272 51.8321 42.0099 54.4309 39.3991 56.3281C36.6875 58.2827 33.6941 59.8142 30.5215 60.8703C27.2623 61.9836 23.8979 62.7622 20.4805 63.1938C17.4636 63.5878 14.4253 63.7975 11.3828 63.8218C8.64931 63.759 5.99794 62.8765 3.77344 61.289C2.62239 60.6254 1.66549 59.6724 0.997967 58.5247C0.330448 57.3771 -0.0244031 56.0749 -0.03125 54.7477C0.00232244 53.3663 0.403919 52.0189 1.13218 50.8439C1.49731 50.1955 2.03813 49.663 2.69256 49.3075C3.34699 48.9521 4.08852 48.7881 4.83205 48.8344H30.8359C31.1189 48.6983 31.7897 48.4158 32.8483 47.9971C33.9069 47.5785 34.5672 47.2959 34.8607 47.1599C37.282 46.3035 39.4335 44.8231 41.0971 42.8687C42.8659 40.8124 44.2825 38.4785 45.2895 35.9612C46.3535 33.3664 47.1336 30.6645 47.6163 27.9023C48.0854 25.3469 48.3309 22.7555 48.35 20.1575C48.3865 16.3737 47.4017 12.65 45.4991 9.37747C43.5793 6.07021 41.3509 2.95148 38.8436 0.0627441H39.2628C40.891 0.104772 42.5002 0.423265 44.0213 1.00465C45.7674 1.62199 47.4078 2.50453 48.8846 3.62115C50.3271 4.69511 51.5779 6.00429 52.5845 7.4936C53.544 8.87753 54.0594 10.5201 54.0623 12.2033C54.072 13.9476 53.7886 15.6811 53.2238 17.3317C52.6496 18.9802 52.3624 20.7147 52.3748 22.46V23.7159C52.5111 23.4438 52.7941 22.774 53.2238 21.7274C53.4646 20.9105 53.9884 20.2057 54.7016 19.7389L60.1938 30.6236H66.3253C66.3253 31.3248 65.9061 31.7748 65.0571 31.9841C64.5061 32.1433 63.941 32.2484 63.3696 32.2981C63.6413 32.7003 63.8864 33.1199 64.1033 33.554C64.3276 33.9778 64.6557 34.3378 65.0571 34.6006H64.2186C63.6445 34.639 63.0682 34.5679 62.5206 34.3913C61.7612 34.1979 60.9756 34.1272 60.1938 34.182V35.4379C60.3526 35.1415 60.6188 34.9169 60.938 34.81C61.2403 34.6823 61.5637 34.6113 61.8918 34.6006C62.028 34.6006 62.311 34.8414 62.7303 35.3333C63.1495 35.8252 63.3696 36.1391 63.3696 36.2752C64.5256 36.8935 65.7756 37.3179 67.0695 37.5311C68.1176 37.6672 69.0714 38.5045 69.9204 40.043C70.7249 41.5394 71.3645 43.1185 71.828 44.7527C72.1317 46.1623 72.2724 47.6021 72.2472 49.0437C72.249 50.8224 71.9623 52.5896 71.3982 54.2767C70.8391 55.9828 70.556 57.767 70.5597 59.5621V59.7714C71.2421 58.6862 71.7745 57.5138 72.1424 56.2862C72.5078 55.0576 73.0403 53.885 73.7251 52.8011C75.0046 53.7545 76.0374 54.9995 76.7375 56.4322C77.4376 57.865 77.7846 59.444 77.7498 61.0378C77.7114 63.4933 77.2432 65.9231 76.3663 68.2175C74.5099 73.332 71.5509 77.9768 67.6984 81.8233C66.0437 83.5548 64.0728 84.9545 61.8918 85.9469H62.311C64.1487 85.9469 66.0877 84.9248 68.1281 82.8804C70.3145 80.6448 72.2639 78.1897 73.9451 75.5542C75.6992 72.8749 77.2176 70.0489 78.4835 67.1081C79.5054 64.9916 80.1171 62.7011 80.2863 60.3575C80.3098 58.9259 79.9824 57.5102 79.3325 56.2339C78.6765 54.9635 78.3487 53.5497 78.3787 52.1207C79.287 52.1244 80.1758 52.3835 80.9433 52.8685C81.7108 53.3535 82.3258 54.0447 82.7179 54.8628C83.8159 56.8123 84.5676 58.9369 84.9399 61.1424C85.3552 63.4448 85.6004 65.7746 85.6736 68.1129C85.747 70.4363 85.7785 72.0899 85.7785 73.0737C85.8221 77.124 84.8415 81.1198 82.9275 84.691C81.027 88.1951 78.4809 91.3092 75.423 93.8697C69.1883 99.0633 61.3429 101.937 53.2238 102.002H49.8593C48.8653 102.053 47.8688 101.979 46.8932 101.782C45.8835 101.55 44.8949 101.235 43.9375 100.84C42.9676 100.501 42.0449 100.04 41.1914 99.469C40.1628 98.5895 39.238 97.5958 38.4348 96.5071C37.7509 95.5573 37.1177 94.5722 36.5377 93.5558C35.9717 92.572 35.3743 91.5777 34.7349 90.5939C34.0659 89.561 33.327 88.5749 32.5234 87.6424L31.2552 86.376L28.9283 84.0526C28.0794 83.2048 27.3038 82.4722 26.6015 81.8338C26.1073 81.4483 25.679 80.9853 25.3333 80.4628C25.2823 80.1938 25.1712 79.9398 25.0084 79.7196C24.8606 79.4573 24.6849 79.2117 24.4843 78.987V78.1393L24.5262 78.1184ZM8.02881 36.7357C8.2672 36.9983 8.48122 37.2821 8.66818 37.5834L9.51715 46.4482H5.49237V38.4207C5.49237 38.2846 5.70198 38.044 6.13171 37.6881C6.56144 37.3323 6.90732 37.0183 7.17983 36.7357H8.01831H8.02881ZM11.844 44.7631C11.8206 44.1816 11.928 43.6022 12.1584 43.0676C12.368 42.649 12.9655 42.4397 13.9507 42.4397H14.3804L15.0093 43.9154L15.4285 44.1247C15.5107 44.1212 15.5914 44.1008 15.6653 44.0648C15.7392 44.0288 15.8049 43.9779 15.8583 43.9154C15.9945 43.9154 16.1413 43.6747 16.2775 43.1723C16.4138 42.6699 16.5605 42.4397 16.6968 42.4397C16.8576 42.2766 17.0016 42.0978 17.1265 41.9059C17.2627 41.6966 17.4095 41.5919 17.5458 41.5919C17.8754 41.4457 18.2333 41.3742 18.5939 41.3826H19.4638V45.569H22.6082V36.0763C22.6082 35.9298 22.7549 35.7519 23.0379 35.5425C23.2772 35.345 23.5765 35.2344 23.8869 35.2286C24.0231 35.2286 24.369 35.2286 24.935 35.1239C25.3553 35.0635 25.7788 35.0286 26.2032 35.0192V43.884L25.3647 44.7317C25.7892 44.7415 26.2127 44.7764 26.633 44.8364C26.9804 44.8887 27.3302 44.9236 27.6811 44.9411C29.0758 44.9456 30.4517 44.6191 31.6954 43.9886C32.9929 43.3362 34.2011 42.5202 35.2905 41.5605L38.6759 38.6091C39.731 37.6758 40.8596 36.8288 42.0508 36.0763V36.495C41.8464 38.1538 41.1902 39.7249 40.1537 41.0372C39.2754 42.5433 38.0411 43.8117 36.5587 44.7317C36.0116 44.8951 35.4343 44.9309 34.8712 44.8364C34.0222 44.7631 33.5191 44.7317 33.3829 44.7317C32.8201 44.9388 32.2878 45.2204 31.8002 45.569C31.4438 45.862 31.1294 46.1028 30.8464 46.3121C30.5283 46.5431 30.1742 46.7199 29.7983 46.8354C29.1144 47.0128 28.4079 47.0868 27.702 47.0552C24.8721 47.0552 22.2309 47.0552 19.7678 46.9505C17.3047 46.8459 14.6529 46.6993 11.844 46.4167V44.7631ZM15.8583 10.8742C16.9342 8.75154 18.403 6.85158 20.187 5.2748C22.0006 3.6973 24.0755 2.44716 26.3185 1.58033C28.6551 0.663445 31.1449 0.198182 33.6554 0.209284C36.1918 0.209284 37.8479 0.920973 38.5187 2.30249C39.1894 3.684 40.1432 5.44226 41.2752 7.36801C42.25 8.91698 43.0675 10.152 43.7069 11.0625C44.2866 11.8901 44.7817 12.7736 45.1847 13.6999C45.5495 14.6145 45.7995 15.5708 45.9289 16.5467C46.0869 17.9854 46.1569 19.4325 46.1385 20.8797V26.3743C46.2164 27.3171 46.042 28.2635 45.6331 29.1168C45.2243 29.9701 44.5957 30.6996 43.8117 31.2305C43.5287 31.084 42.9941 30.0269 42.2185 28.0907C41.4429 26.1545 40.6359 23.9043 39.7869 21.5495C38.9379 19.1946 38.2042 16.9026 37.5753 14.7884C37.144 13.5532 36.8248 12.2817 36.6216 10.9893C36.6025 10.3631 36.747 9.74266 37.0408 9.18909C37.336 8.63983 37.4807 8.02247 37.4601 7.39944C37.4601 5.30623 36.5482 4.25963 34.714 4.25963C33.4331 4.41135 32.1843 4.76459 31.0141 5.30623C29.2533 6.00397 27.4225 6.81335 25.522 7.73436C23.7475 8.57786 22.047 9.56858 20.4386 10.6962C18.9607 11.7428 18.227 12.6324 18.227 13.3337C18.2123 13.8626 18.2474 14.3917 18.3319 14.914C18.4735 15.4189 18.7239 15.8869 19.0655 16.2851C20.1748 16.03 21.3186 15.9592 22.451 16.0758C22.6963 16.1205 22.9284 16.2199 23.1298 16.3667C23.3313 16.5135 23.4969 16.7038 23.6144 16.9235C23.862 17.4608 24.0415 18.0268 24.1489 18.6085C24.3688 19.4773 24.8051 20.2766 25.4171 20.932C27.8069 24.0299 29.7424 26.636 31.2237 28.7501C32.7121 30.8433 33.4457 33.889 33.4457 37.8242C33.4457 37.9602 33.4458 38.4521 33.5506 39.2999C33.6554 40.1476 33.3095 40.6395 32.6073 40.7755C32.4605 40.2208 32.209 39.0173 31.8631 37.1857C31.6757 35.9582 31.3559 34.7546 30.9093 33.5959C30.4169 31.5908 29.166 29.8541 27.4191 28.7501C25.6239 27.6045 23.7541 26.58 21.8221 25.6836C19.9985 24.8423 18.2459 23.8552 16.5815 22.7321C15.8221 22.2424 15.2047 21.5623 14.7908 20.7597C14.377 19.9571 14.1813 19.0602 14.2232 18.1585C14.1696 15.634 14.7307 13.1343 15.8583 10.8742ZM19.4533 14.9873C19.5118 13.8533 19.9597 12.7741 20.7216 11.9312C21.0682 11.4445 21.5535 11.0735 22.1144 10.8662C22.6752 10.659 23.2856 10.6253 23.8659 10.7695C24.7838 10.9837 25.6009 11.5043 26.1823 12.2452C26.2046 11.0553 26.5331 9.89117 27.1361 8.86464C27.4071 8.34666 27.8176 7.91451 28.3213 7.61682C28.8249 7.31913 29.4018 7.16772 29.987 7.17963C29.9521 8.73499 30.3552 10.2689 31.1504 11.6067C31.9694 13.0262 32.4433 14.6179 32.5339 16.2537C32.5916 15.5808 32.6967 14.9128 32.8483 14.2547C32.882 13.8293 33.0265 13.4201 33.2673 13.0677C33.5082 12.7152 33.837 12.4317 34.2213 12.2452C35.0645 13.2011 35.7093 14.3146 36.1185 15.5211C36.9675 17.4154 37.7745 19.4982 38.5606 21.8007C39.3467 24.1032 39.9965 26.1964 40.5625 28.2373C40.9944 29.577 41.2791 30.9597 41.4115 32.3609C41.4126 33.0502 41.266 33.7318 40.9817 34.3599C40.8376 34.6766 40.5966 34.9394 40.2933 35.1105C39.9901 35.2817 39.6403 35.3523 39.2943 35.3123H38.875C38.4942 34.3107 38.1756 33.2866 37.9212 32.2458C37.6401 31.0914 37.1766 29.9891 36.5482 28.9804V37.6357L35.6992 38.4731C35.28 36.5055 34.8223 34.6425 34.3262 32.8842C33.8301 31.1259 33.2431 29.2525 32.5653 27.2639C32.227 26.261 31.5999 25.38 30.7626 24.7312C30.4062 24.4486 29.987 24.1032 29.4943 23.6846C28.8478 23.1014 28.2484 22.4679 27.702 21.7902C27.3024 21.2644 27.046 20.6442 26.9579 19.99C26.7325 19.0249 26.449 18.0743 26.1089 17.1433C25.763 16.1595 25.4381 15.2385 25.1551 14.4012C24.8721 13.5639 24.6625 13.1348 24.5262 13.1348C23.8664 13.7902 23.0722 14.2952 22.1983 14.615C21.3244 14.9347 20.3915 15.0618 19.4638 14.9873H19.4533ZM25.5848 14.778C25.5732 14.868 25.581 14.9594 25.6075 15.0461C25.6341 15.1329 25.6788 15.213 25.7389 15.2812C25.7989 15.3493 25.8727 15.4038 25.9555 15.4412C26.0383 15.4786 26.1281 15.498 26.219 15.498C26.3098 15.498 26.3996 15.4786 26.4824 15.4412C26.5652 15.4038 26.6391 15.3493 26.6991 15.2812C26.7591 15.213 26.8038 15.1329 26.8304 15.0461C26.8569 14.9594 26.8647 14.868 26.8531 14.778C26.8531 14.2233 26.6434 13.9302 26.2137 13.9302C25.784 13.9302 25.5848 14.2233 25.5848 14.778ZM27.2723 15.4164C27.2723 15.9711 27.4086 16.2537 27.702 16.2537C27.9955 16.2537 28.3309 15.9711 28.3309 15.4164C28.3309 14.8617 28.1213 14.5686 27.702 14.5686C27.2828 14.5686 27.2723 14.8512 27.2723 15.4164ZM27.9117 16.2537C27.9117 16.8188 28.1213 17.1014 28.5405 17.1014C28.9703 17.1014 29.1799 16.8188 29.1799 16.2537C29.1799 15.6885 28.9703 15.4164 28.5405 15.4164C28.1108 15.4164 27.9117 15.7513 27.9117 16.2537ZM28.7502 17.1014C28.7379 17.1881 28.7461 17.2764 28.7739 17.3595C28.8017 17.4425 28.8484 17.518 28.9104 17.5799C28.9724 17.6418 29.048 17.6884 29.1311 17.7162C29.2143 17.7439 29.3027 17.7521 29.3895 17.7399C29.4755 17.7503 29.5628 17.7408 29.6446 17.7123C29.7264 17.6837 29.8005 17.6368 29.8613 17.5751C29.922 17.5135 29.9678 17.4387 29.995 17.3565C30.0223 17.2744 30.0303 17.1871 30.0184 17.1014C30.0184 16.5362 29.8088 16.2537 29.3895 16.2537C28.9703 16.2537 28.7502 16.5362 28.7502 17.1014ZM33.0894 6.12255C34.0086 5.55622 35.0699 5.26223 36.1499 5.2748C36.1249 6.40763 36.0198 7.53726 35.8355 8.65531C35.8199 8.95446 35.7438 9.24742 35.6118 9.51641C35.4797 9.7854 35.2945 10.0249 35.0673 10.2205C34.8401 10.4161 34.5756 10.5637 34.2897 10.6544C34.0038 10.7452 33.7024 10.7772 33.4038 10.7485C33.1735 10.7823 32.9384 10.7617 32.7175 10.6883C32.4965 10.6149 32.296 10.4907 32.1319 10.3258C31.9677 10.1609 31.8446 9.95982 31.7725 9.73877C31.7003 9.51773 31.6811 9.28283 31.7164 9.05302C31.6573 8.48612 31.7539 7.91384 31.9958 7.39759C32.2377 6.88133 32.6157 6.44057 33.0894 6.12255ZM32.9846 19.0062C32.9756 19.0632 32.9803 19.1216 32.9982 19.1765C33.0161 19.2313 33.0467 19.2812 33.0876 19.322C33.1285 19.3629 33.1784 19.3934 33.2334 19.4113C33.2883 19.4292 33.3467 19.4338 33.4038 19.4249C33.9698 19.1458 33.9698 18.8632 33.4038 18.5771C33.3461 18.5701 33.2876 18.5764 33.2328 18.5956C33.178 18.6148 33.1283 18.6464 33.0878 18.688C33.0472 18.7295 33.0168 18.7798 32.9989 18.835C32.981 18.8902 32.9761 18.9488 32.9846 19.0062ZM91.1239 193.506C91.43 192.815 91.7801 192.144 92.172 191.497H91.3335V189.173L89.2373 192.763C88.9666 193.152 88.7547 193.579 88.6083 194.03C87.4764 194.03 86.8371 193.611 86.7008 192.763C86.5638 191.996 86.4936 191.219 86.4912 190.44C86.4879 189.06 86.7735 187.694 87.3297 186.431C87.9178 185.123 88.59 183.854 89.342 182.632C90.0941 181.41 90.7663 180.141 91.3545 178.833C91.9118 177.566 92.1974 176.197 92.193 174.814C92.1058 174.413 91.9647 174.026 91.7737 173.663C91.5835 173.296 91.4426 172.905 91.3545 172.501C91.2077 171.789 90.9248 170.523 90.5055 168.691C90.0863 166.86 89.8032 165.74 89.6565 165.321C89.3671 163.079 89.2271 160.821 89.2373 158.56C89.2546 156.268 88.9007 153.989 88.1891 151.81C88.072 151.366 87.8957 150.94 87.6651 150.543C87.3087 149.832 86.9524 149.099 86.617 148.324C86.2816 147.55 85.9042 146.807 85.5688 146.106C85.2977 145.653 85.1195 145.152 85.0448 144.63C84.9495 143.778 84.806 142.933 84.615 142.097C84.4807 141.54 84.269 141.005 83.9862 140.506C83.8731 140.281 83.6827 140.105 83.4498 140.009C83.2168 139.913 82.957 139.903 82.7179 139.983V140.402C82.6852 143.348 83.2969 146.266 84.5102 148.952C85.7399 151.707 86.3551 154.697 86.313 157.712C84.7215 157.72 83.1313 157.615 81.5545 157.399C79.9548 157.152 78.4134 156.616 77.0057 155.818C76.4397 155.399 75.4859 154.656 74.1548 153.599C72.8237 152.542 71.3982 151.422 69.9623 150.219L65.7698 146.838C64.4282 145.792 63.4744 145.049 62.9085 144.63L60.9065 143.259C60.2098 142.705 59.3627 142.374 58.4749 142.306H58.0452L58.8941 143.144C59.3134 143.576 60.3615 144.529 62.0385 146.001C63.7155 147.473 65.5462 149.057 67.5306 150.753C69.5011 152.434 71.3703 153.983 73.1381 155.399C74.899 156.802 75.989 157.712 76.4083 158.142C77.3935 158.989 77.8966 159.544 77.8966 159.827V161.92C77.96 163.692 77.6344 165.457 76.9428 167.09C76.0897 168.65 74.8053 169.933 73.2429 170.785C74.2743 170.475 75.3788 170.512 76.3873 170.889C76.9533 171.245 77.2363 172.124 77.2363 173.537C77.2511 174.589 77.0366 175.632 76.6074 176.593C76.1625 177.577 75.8116 178.6 75.5593 179.649C75.2793 180.903 75.1005 182.177 75.0247 183.459C74.9664 184.643 74.755 185.814 74.3958 186.944C74.0426 188.118 73.2878 189.131 72.263 189.807C71.2382 190.482 70.0084 190.776 68.7884 190.639C68.1492 190.646 67.5117 190.573 66.8913 190.419C66.3253 190.283 66.0423 189.864 66.0423 189.152V188.315C66.0998 187.639 66.2048 186.967 66.3568 186.306C66.4621 185.619 66.6413 184.945 66.8913 184.296C65.9015 185.083 65.225 186.196 64.9837 187.436C64.5645 188.985 63.8517 189.759 62.8875 189.759H57.0914C56.6616 189.759 56.4206 189.508 56.3472 189.016C56.2847 188.632 56.2497 188.244 56.2424 187.855C56.2105 186.823 56.5487 185.813 57.1962 185.008C57.9037 184.163 58.7215 183.417 59.6278 182.789H57.0914L53.2867 189.121C52.9402 189.425 52.5364 189.656 52.099 189.802C51.6616 189.947 51.1994 190.004 50.7397 189.969C50.0677 189.955 49.398 189.885 48.7378 189.759C48.5639 189.74 48.3956 189.686 48.2427 189.601C48.0898 189.516 47.9552 189.402 47.847 189.265C47.7387 189.127 47.6589 188.97 47.6121 188.802C47.5653 188.633 47.5525 188.457 47.5744 188.284C47.5717 187.73 47.6828 187.181 47.901 186.671C48.1191 186.162 48.4396 185.703 48.8427 185.322C49.2464 184.944 49.5675 184.486 49.7857 183.978C50.004 183.471 50.1147 182.923 50.1109 182.37V181.115C49.766 182.203 49.145 183.184 48.3081 183.961C47.6145 184.677 46.8759 185.349 46.0966 185.971V185.123C46.0937 184.222 46.3017 183.332 46.7038 182.526C47.1059 181.719 47.6912 181.017 48.4129 180.476C50.0087 179.184 51.8425 178.217 53.8107 177.629C55.8576 176.992 57.9651 176.567 60.0995 176.363C61.7859 176.139 63.4967 176.174 65.1724 176.468C63.5967 176.087 62.0729 175.518 60.634 174.772C59.2819 174.071 58.6216 172.742 58.6216 170.764H64.3339C62.4938 169.804 60.9011 168.432 59.6802 166.755C59.6802 166.19 59.5754 165.028 59.3658 163.27C59.1562 161.512 58.978 160.35 58.8312 159.785C58.7766 159.489 58.6701 159.206 58.5168 158.947C58.3852 158.638 58.2047 158.352 57.9823 158.1C57.1438 156.833 56.0433 155.389 54.7121 153.767C53.3733 152.158 52.1376 150.466 51.0123 148.701C49.8971 146.978 48.9729 145.139 48.2557 143.217C47.567 141.436 47.3504 139.507 47.6268 137.618C46.0465 136.223 44.6579 134.625 43.4972 132.866C42.6001 131.414 41.8955 129.852 41.401 128.219C40.8853 126.527 40.4965 124.799 40.2376 123.049C39.9546 121.217 39.5248 119.177 38.9693 116.926C38.8655 116.39 38.7219 115.861 38.5396 115.346C38.2566 114.425 38.0156 113.514 37.8059 112.593C37.5963 111.672 37.3448 110.804 37.0618 109.956C36.8504 109.415 36.7095 108.848 36.6425 108.271V107.005C36.5515 106.016 36.8526 105.032 37.481 104.262C37.7506 106.041 38.1785 107.793 38.7597 109.495C39.4851 111.875 40.3926 114.194 41.4744 116.434C42.4944 118.643 43.8365 120.689 45.4572 122.505C46.07 123.268 46.8403 123.89 47.7158 124.329C48.5912 124.768 49.5512 125.013 50.5301 125.048L50.7397 124.828C50.0454 124.133 49.2632 123.531 48.4129 123.039C47.5291 122.509 46.7451 121.829 46.0966 121.029C43.9814 118.085 42.3077 114.848 41.1285 111.421C40.0333 108.042 39.4952 104.507 39.5353 100.955H39.9651C40.1941 100.939 40.4202 101.015 40.5939 101.165C41.6919 101.664 42.8231 102.087 43.9794 102.431C44.916 102.701 45.868 102.914 46.8302 103.069C47.7526 103.205 48.7378 103.31 49.7964 103.383C50.855 103.457 52.1547 103.488 53.706 103.488H60.2567C63.6276 102.682 66.867 101.403 69.8784 99.6888C73.1428 97.8955 76.1648 95.6939 78.8713 93.1371C81.5158 90.6445 83.7607 87.7606 85.5269 84.5864C87.2416 81.5967 88.1515 78.2145 88.1682 74.7692C88.1687 72.3212 88.0288 69.8751 87.7489 67.443C87.4651 65.0112 87.3216 62.5651 87.3192 60.1168V59.0702C89.1856 60.045 90.8697 61.3338 92.2978 62.8798C93.9312 64.5876 95.382 66.4606 96.6265 68.4687C97.8905 70.4951 98.9207 72.6579 99.6975 74.9158C100.424 76.9321 100.817 79.053 100.861 81.1954V108.899C102.421 105.156 103.209 101.137 103.177 97.0828V84.6282C103.185 82.9779 102.938 81.3363 102.444 79.7615C101.96 78.2555 101.393 76.7775 100.746 75.3344C100.117 73.9319 99.5508 72.519 99.0582 71.148C98.5797 69.8036 98.3317 68.3883 98.3245 66.9616H100.012L107.202 74.1412V73.3144C107.055 73.0319 106.709 72.2679 106.154 70.991C105.84 70.1623 105.413 69.3805 104.886 68.6675C106.856 67.5511 108.952 66.3197 111.174 64.9731C113.276 63.6855 115.689 62.9944 118.155 62.974C125.157 62.8264 132.111 64.1566 138.562 66.8778C144.41 69.4873 149.302 74.3087 153.236 81.3419C153.496 82.0321 153.812 82.7006 154.179 83.3409C154.671 84.2619 155.164 85.2143 155.667 86.1981C156.17 87.1819 156.611 88.1344 157.04 89.0449C157.47 89.9555 157.742 90.5624 157.879 90.8346C158.575 92.2099 158.935 93.7309 158.927 95.2721V99.9191C159.013 102.944 158.66 105.965 157.879 108.888C157.18 111.212 156.408 114.205 155.562 117.868C154.284 123.213 153.047 128.561 151.852 133.913C150.657 139.264 149.497 144.752 148.372 150.376C148.325 150.917 148.216 151.451 148.047 151.967C147.886 152.481 147.78 153.01 147.733 153.547C147.586 153.547 147.418 153.756 147.209 154.175C147.05 154.436 146.94 154.723 146.884 155.023C147.033 157.199 147.725 159.304 148.896 161.145C150.116 163.122 150.809 165.377 150.909 167.697C150.909 169.79 149.861 170.837 147.943 170.837H147.733C147.586 170.837 147.314 170.628 146.884 170.209V164.473L145.238 166.159V171.695C145.238 172.396 144.819 172.742 143.97 172.647C143.121 172.553 142.629 172.543 142.492 172.543C140.931 172.543 140.019 172.218 139.736 171.59C139.312 170.324 139.031 169.015 138.897 167.687C138.876 168.944 138.661 170.19 138.258 171.381C138.083 172.01 137.689 172.557 137.148 172.923C136.606 173.289 135.952 173.451 135.302 173.38H135.093C133.395 172.543 132.556 171.978 132.556 171.695V165.363C132.263 166.2 131.917 167.195 131.508 168.315C131.136 169.383 130.392 170.282 129.412 170.847C129.221 170.792 129.05 170.685 128.918 170.536C128.786 170.388 128.7 170.206 128.668 170.01C128.604 169.665 128.569 169.315 128.563 168.963C128.563 166.87 129.199 165.391 130.47 164.526C131.846 163.64 133.398 163.065 135.019 162.841C136.835 162.557 138.674 162.448 140.511 162.516C142.104 162.612 143.703 162.507 145.27 162.202C144.987 162.202 144.389 162.202 143.467 162.098L140.616 161.888C139.631 161.815 138.677 161.711 137.765 161.574C137.1 161.454 136.428 161.381 135.753 161.355C135.184 161.213 134.647 160.964 134.17 160.622C133.924 160.442 133.726 160.203 133.596 159.927C133.466 159.651 133.408 159.346 133.426 159.042C133.513 158.594 133.736 158.185 134.065 157.869C134.485 157.388 134.841 157.001 135.114 156.718C134.777 156.589 134.492 156.354 134.303 156.047C134.113 155.741 134.03 155.381 134.065 155.023C134.065 153.62 134.904 153.128 136.602 153.547C135.854 153.414 135.175 153.03 134.676 152.46C134.176 151.889 133.887 151.165 133.856 150.407C133.599 148.945 133.456 147.465 133.426 145.98V144.714C134.743 142.79 136.307 141.048 138.08 139.533C140.176 137.635 142.22 135.629 144.211 133.515C146.065 131.513 147.814 129.417 149.452 127.235C150.875 125.543 151.694 123.426 151.779 121.217L151.569 121.008C150.717 122.404 149.801 123.778 148.823 125.132C147.79 126.498 146.586 127.726 145.238 128.784V128.355C145.337 127.068 145.774 125.83 146.507 124.765C147.352 123.37 148.267 121.824 149.253 120.129C150.238 118.433 151.16 116.717 152.009 114.896C152.814 113.289 153.247 111.522 153.277 109.726V108.25C152.235 113.803 149.996 119.063 146.716 123.666C143.481 128.167 140.099 132.81 136.57 137.597C132.602 143.241 127.099 147.635 120.712 150.261C120.546 150.107 120.367 149.967 120.178 149.842C119.968 149.706 119.863 149.559 119.863 149.423C118.5 144.674 117.522 139.823 116.939 134.917C116.37 130.011 116.299 125.06 116.729 120.139L115.88 117.816C115.601 120.767 115.388 123.37 115.241 125.624C115.105 127.874 115.032 130.417 115.032 133.222C115.019 135.957 115.484 138.673 116.405 141.249C117.33 143.824 117.795 146.541 117.778 149.277C117.755 150.33 117.65 151.38 117.463 152.417C117.254 153.683 116.415 154.322 114.822 154.322C114.74 154.317 114.661 154.294 114.589 154.257C114.516 154.219 114.453 154.166 114.403 154.102C113.98 152.931 113.63 151.736 113.355 150.522C113.25 149.847 113.011 149.2 112.651 148.619C112.291 148.038 111.817 147.536 111.258 147.142V147.351C111.254 148.595 111.394 149.835 111.678 151.046C111.964 152.256 112.108 153.496 112.107 154.74V157.273C111.961 157.552 111.678 158.222 111.258 159.282C110.839 160.329 110.556 161.009 110.409 161.281C109.999 162.914 109.718 164.576 109.571 166.253C109.446 167.754 109.162 169.239 108.722 170.68C108.326 171.98 107.637 173.172 106.709 174.165C105.563 175.285 104.143 176.086 102.59 176.489H107.663C107.663 179.586 106.853 181.331 105.232 181.722C103.042 182.236 100.818 182.586 98.576 182.768H108.082C109.78 185.168 110.829 186.717 111.227 187.415C111.669 188.161 112.057 188.938 112.39 189.738C112.729 190.54 112.907 191.401 112.914 192.271C112.94 192.771 112.849 193.27 112.646 193.728C112.444 194.186 112.138 194.59 111.751 194.909C110.935 195.566 109.944 195.97 108.9 196.07L107.213 189.1H105.724C106.126 189.624 106.379 190.245 106.458 190.9C106.531 191.564 106.566 192.231 106.563 192.899H105.724V199.242C105.724 199.943 105.158 200.403 104.026 200.613C103.26 200.777 102.482 200.882 101.699 200.927H100.012C99.9588 200.007 99.8538 199.092 99.6975 198.185C99.5347 197.278 99.4262 196.362 99.3726 195.442V193.349C99.3873 192.883 99.3162 192.419 99.1629 191.978C99.0267 191.622 98.6703 191.444 98.1148 191.444V200.1C98.1148 200.246 97.8738 200.393 97.3812 200.529C96.9813 200.633 96.5919 200.773 96.2177 200.948H95.788C95.0774 200.972 94.3699 200.844 93.7135 200.571C93.057 200.298 92.4669 199.888 91.9833 199.367C90.9967 198.31 90.4659 196.908 90.5055 195.463C90.5898 194.779 90.7994 194.115 91.1239 193.506ZM47.1028 76.6426C47.1028 77.0613 47.2495 77.2706 47.5325 77.2706C47.6179 77.2829 47.7051 77.275 47.7869 77.2478C47.8689 77.2206 47.9433 77.1747 48.0043 77.1137C48.0654 77.0528 48.1113 76.9785 48.1386 76.8967C48.1658 76.815 48.1737 76.7279 48.1614 76.6426C48.1614 76.0775 47.9517 75.7949 47.5325 75.7949C47.2914 75.7949 47.1447 76.0775 47.1447 76.6426H47.1028ZM53.9156 128.784C54.0518 128.784 54.1252 128.502 54.1252 127.937C54.1215 127.368 53.9381 126.815 53.6011 126.356C53.4192 126.109 53.1779 125.911 52.8995 125.782C52.6212 125.652 52.3146 125.594 52.008 125.613H51.5887L53.9156 128.784ZM54.3348 140.391C54.2771 140.384 54.2186 140.39 54.1638 140.41C54.1089 140.429 54.0593 140.461 54.0187 140.502C53.9782 140.544 53.9478 140.594 53.9299 140.649C53.912 140.704 53.9071 140.763 53.9156 140.82C54.0518 141.103 54.1985 141.239 54.3348 141.239C54.3923 141.247 54.451 141.243 54.5062 141.225C54.5615 141.207 54.6119 141.176 54.6535 141.136C54.6951 141.095 54.7268 141.046 54.746 140.991C54.7653 140.936 54.7716 140.878 54.7645 140.82C54.9008 140.548 54.7645 140.402 54.3348 140.402V140.391ZM54.1252 129.622C54.1252 130.187 54.3348 130.469 54.7645 130.469C55.1943 130.469 55.3934 130.187 55.3934 129.622C55.3934 129.056 55.1838 128.784 54.7645 128.784C54.3453 128.784 54.1252 129.077 54.1252 129.632V129.622ZM56.452 141.03C55.7498 141.03 55.4668 141.166 55.603 141.448C55.6555 141.574 55.7444 141.681 55.8584 141.756C55.9723 141.83 56.1061 141.869 56.2424 141.867C56.4094 141.888 56.5789 141.859 56.7298 141.785C56.8807 141.71 57.0065 141.593 57.0914 141.448C57.3639 141.176 57.1962 141.04 56.452 141.04V141.03ZM62.1643 31.241C62.1643 31.8062 62.3739 32.0783 62.7931 32.0783C63.2124 32.0783 63.2229 31.8062 63.2229 31.241C63.2229 30.6758 63.0761 30.3933 62.7931 30.3933C62.5102 30.3933 62.1643 30.6863 62.1643 31.2515V31.241ZM70.8218 176.928H66.3777C65.8118 176.928 65.6755 177.001 65.9585 177.137C67.7444 177.709 69.6647 177.709 71.4506 177.137C71.6078 177.001 71.3982 176.928 70.8218 176.928ZM66.6293 171.235C66.0633 171.235 65.8432 171.371 65.9899 171.653C66.0398 171.781 66.1282 171.889 66.2428 171.964C66.3573 172.039 66.4924 172.077 66.6293 172.072C66.7949 172.093 66.9632 172.065 67.1126 171.99C67.262 171.916 67.3856 171.798 67.4678 171.653C67.5831 171.371 67.3106 171.235 66.6293 171.235ZM67.6774 183.689C67.667 183.775 67.6764 183.862 67.705 183.944C67.7336 184.026 67.7806 184.1 67.8424 184.16C67.9042 184.221 67.979 184.267 68.0613 184.294C68.1435 184.321 68.2309 184.329 68.3167 184.317C68.4022 184.329 68.4893 184.322 68.5712 184.294C68.6531 184.267 68.7276 184.221 68.7886 184.16C68.8496 184.099 68.8955 184.025 68.9228 183.943C68.9501 183.861 68.9579 183.774 68.9456 183.689C68.9456 183.124 68.736 182.841 68.3167 182.841C67.8765 182.841 67.6774 183.124 67.6774 183.689ZM78.5674 45.2864L76.5654 45.0771C75.9569 45.0221 75.354 44.917 74.7627 44.7631C74.5453 44.7129 74.344 44.609 74.1774 44.4609C74.0107 44.3127 73.884 44.1252 73.8089 43.9154C74.6946 43.5584 75.6201 43.309 76.5654 43.1723C77.2677 43.1095 78.1795 43.0676 79.3115 43.0676C80.0574 43.0717 80.8013 43.1453 81.5335 43.2874C82.2987 43.4235 82.697 44.0619 82.697 45.1818C82.7174 45.6151 82.6427 46.0476 82.4779 46.449C82.3131 46.8504 82.0623 47.2109 81.7432 47.5053C81.0574 48.0996 80.269 48.5642 79.4164 48.8763C78.4966 49.2289 77.5404 49.4781 76.5654 49.6193C75.7255 49.745 74.8782 49.815 74.029 49.8287C74.0096 49.1671 74.2352 48.5216 74.6625 48.0157C75.0899 47.5098 75.6891 47.179 76.3454 47.0866C77.6699 46.7492 78.9478 46.25 80.1501 45.6004C79.6273 45.443 79.09 45.3378 78.5464 45.2864H78.5674ZM80.3701 138.507C80.39 138.661 80.4653 138.803 80.582 138.905C80.6987 139.008 80.8489 139.064 81.0043 139.064C81.1597 139.064 81.3098 139.008 81.4265 138.905C81.5432 138.803 81.6185 138.661 81.6384 138.507C81.6384 137.942 81.4288 137.66 80.999 137.66C80.5693 137.66 80.3492 137.942 80.3492 138.507H80.3701ZM81.2086 139.135C81.2086 139.7 81.4288 139.983 81.848 139.983C82.2673 139.983 82.4769 139.7 82.4769 139.135C82.4769 138.57 82.2673 138.298 81.848 138.298C81.4288 138.298 81.1877 138.581 81.1877 139.135H81.2086ZM90.0967 187.907C90.0882 187.964 90.0931 188.023 90.111 188.078C90.1289 188.133 90.1593 188.184 90.1999 188.225C90.2405 188.267 90.2901 188.298 90.3449 188.318C90.3998 188.337 90.4583 188.343 90.5159 188.336C91.0819 188.057 91.0819 187.774 90.5159 187.488C90.4573 187.476 90.3965 187.477 90.3387 187.493C90.2809 187.51 90.2279 187.54 90.1845 187.581C90.141 187.622 90.1084 187.674 90.0894 187.73C90.0705 187.787 90.0658 187.848 90.0757 187.907H90.0967ZM92.4235 175.662C92.4235 176.227 92.5598 176.509 92.8428 176.509C93.1258 176.509 93.4716 176.227 93.4716 175.662C93.4716 175.097 93.262 174.814 92.8428 174.814C92.4235 174.814 92.4026 175.107 92.4026 175.662H92.4235ZM97.9157 114.645C97.9041 114.735 97.9118 114.826 97.9384 114.913C97.9649 115 98.0097 115.08 98.0697 115.148C98.1297 115.216 98.2035 115.271 98.2863 115.308C98.3691 115.345 98.459 115.365 98.5498 115.365C98.6407 115.365 98.7305 115.345 98.8133 115.308C98.896 115.271 98.9699 115.216 99.0299 115.148C99.0899 115.08 99.1347 115 99.1613 114.913C99.1878 114.826 99.1955 114.735 99.1839 114.645C99.1839 114.08 98.9743 113.797 98.5551 113.797C98.0729 113.797 97.8948 114.132 97.8948 114.645H97.9157ZM98.7646 112.96C98.7646 113.525 98.9743 113.797 99.3936 113.797C99.8128 113.797 99.8233 113.525 99.8233 112.96C99.8233 112.395 99.6766 112.112 99.3936 112.112C99.1106 112.112 98.7437 112.395 98.7437 112.96H98.7646ZM99.6136 111.055C99.6047 111.112 99.6093 111.17 99.6273 111.225C99.6451 111.28 99.6758 111.33 99.7167 111.371C99.7575 111.411 99.8075 111.442 99.8624 111.46C99.9174 111.478 99.9758 111.483 100.033 111.474C100.316 111.338 100.452 111.201 100.452 111.055C100.461 110.998 100.456 110.94 100.439 110.885C100.421 110.83 100.39 110.78 100.349 110.739C100.308 110.698 100.258 110.668 100.203 110.65C100.148 110.632 100.09 110.627 100.033 110.636C99.7289 110.5 99.5927 110.636 99.5927 111.055H99.6136ZM104.257 192.345C104.277 192.498 104.352 192.64 104.469 192.742C104.585 192.845 104.736 192.901 104.891 192.901C105.046 192.901 105.196 192.845 105.313 192.742C105.43 192.64 105.505 192.498 105.525 192.345C105.525 191.779 105.315 191.497 104.896 191.497C104.446 191.497 104.236 191.779 104.236 192.345H104.257ZM107.621 75.4076C107.612 75.4647 107.617 75.523 107.635 75.5779C107.653 75.6328 107.683 75.6826 107.724 75.7234C107.765 75.7642 107.815 75.7948 107.87 75.8127C107.925 75.8306 107.983 75.8353 108.041 75.8263C108.324 75.6903 108.47 75.5437 108.47 75.4076C108.477 75.3501 108.471 75.2916 108.452 75.2368C108.433 75.1821 108.401 75.1325 108.359 75.092C108.318 75.0515 108.267 75.0212 108.212 75.0033C108.157 74.9854 108.098 74.9805 108.041 74.989C107.758 74.8111 107.621 74.9576 107.621 75.4076ZM110.367 146.346V145.499C110.231 145.226 109.98 144.797 109.634 144.232C109.41 143.867 109.161 143.517 108.89 143.186C108.753 143.186 108.68 143.479 108.68 144.033C108.704 144.538 108.877 145.023 109.177 145.43C109.478 145.836 109.892 146.144 110.367 146.315V146.346ZM117.558 156.268C117.552 157.426 117.225 158.56 116.614 159.544C116.025 160.54 115.274 161.431 114.392 162.181C115.66 161.763 116.394 162.004 116.614 162.925C116.818 163.789 116.924 164.674 116.929 165.562C116.929 168.702 115.231 170.209 111.856 170.209C111.797 167.474 112.079 164.742 112.694 162.077C113.26 159.9 114.885 157.817 117.558 155.85V156.268ZM114.843 115.911C114.843 116.895 114.979 117.251 115.262 116.958C115.415 116.786 115.532 116.586 115.606 116.368C115.679 116.151 115.709 115.92 115.692 115.691C115.692 115.126 115.545 114.781 115.262 114.645C114.979 114.509 114.843 114.791 114.843 115.911ZM139.998 157.043H136.403C135.837 157.043 135.627 157.116 135.763 157.252C136.488 157.597 137.291 157.741 138.09 157.671C138.958 157.75 139.831 157.606 140.627 157.252C140.742 157.158 140.532 157.043 139.998 157.043ZM152.575 118.507C152.219 118.863 152.187 119.114 152.47 119.25C152.589 119.312 152.725 119.335 152.857 119.314C152.99 119.294 153.112 119.232 153.207 119.138C153.302 119.043 153.364 118.921 153.384 118.788C153.404 118.656 153.382 118.521 153.319 118.402C153.152 118.161 152.9 118.203 152.575 118.549V118.507Z" fill="#4E364A"/>
</g>
<defs>
<clipPath id="clip0_245_216">
<rect width="159" height="201" fill="white"/>
</clipPath>
</defs>
</svg>
