<svg width="459" height="584" viewBox="0 0 459 584" fill="none" xmlns="http://www.w3.org/2000/svg">
<g clip-path="url(#clip0_114_493)">
<path d="M20.9757 147.246C20.9757 147.246 26.3559 150.024 48.1367 155.294C69.9174 160.564 77.2469 175.595 70.3592 193.325C63.4715 211.056 59.287 225.931 64.9011 229.929C70.5152 233.927 82.0554 237.016 90.8924 229.696C99.7295 222.375 112.803 160.304 106.851 135.33C100.899 110.357 40.2873 117.963 27.6555 119.469C15.0237 120.974 9.46161 136.499 18.4546 143.793" fill="#472628"/>
<path d="M45.8234 134.526C45.8234 134.681 45.8234 134.941 45.6674 135.278C44.7318 140.133 41.5608 161.628 40.755 163.315C39.9493 165.003 30.6964 147.739 34.0752 132.968C38.0222 133.219 41.9474 133.74 45.8234 134.526Z" fill="white"/>
<path d="M30.8265 133.98C30.76 134.202 30.7079 134.427 30.6705 134.655C29.8388 138.939 27.0578 158.02 26.33 159.395C25.6023 160.771 17.467 145.585 20.456 132.631C23.939 132.85 27.4035 133.301 30.8265 133.98Z" fill="white"/>
<path d="M353.664 412.274C390.701 450.824 437.694 488.207 492.509 492.075L546 86.1618C546 86.1618 440.137 78.9968 393.197 60.3574C393.197 60.3574 349.713 27.5178 308.803 32.9434C267.892 38.3691 268.594 33.3848 242.291 24.818C215.988 16.2511 212.869 6.3083 170.893 7.78803C128.917 9.26776 79.923 36.2144 68.3569 40.7575C56.7907 45.3005 66.6675 53.6078 47.9277 65.1341C29.188 76.6604 3.32655 96.2863 0.623449 102.205C-2.07965 108.124 4.23624 118.3 13.1253 125.829C13.1253 125.829 8.18692 137.926 20.9227 147.246C18.0636 140.029 16.6342 136.343 26.5629 137.174C37.8178 138.13 49.1419 137.913 60.3516 136.525C66.6757 135.908 73.0143 137.545 78.2464 141.146C83.4785 144.747 87.2671 150.08 88.9421 156.202C92.5809 168.482 101.028 181.851 101.418 192.235C101.808 202.619 84.2895 228.995 76.4661 231.461C68.6428 233.927 64.8741 229.929 64.8741 229.929C64.8741 229.929 81.3786 256.383 94.5822 254.306C107.786 252.229 97.5971 240.391 109.761 226.217C121.925 212.043 136.194 198.102 183.81 209.135C231.427 220.168 254.377 263.028 257.496 276.164C260.615 289.3 262.694 294.051 262.694 315.702C262.694 337.352 189.009 563.076 189.009 563.076L273.532 584C293.52 537.272 327.958 497.319 354.444 454.199C362.449 442.361 364.944 423.514 353.664 412.274Z" fill="#FFD395"/>
<path d="M206.059 111.551C206.059 111.551 212.972 156.098 177.468 175.724C141.964 195.35 119.273 200.828 109.891 226.217C117.688 210.641 155.999 191.093 197.949 179.489C221.731 173.076 206.059 111.551 206.059 111.551Z" fill="#472628"/>
<path d="M171.725 37.3567C171.725 37.3567 205.513 -16.4588 242.447 5.11412C279.381 26.687 212.687 85.7465 197.898 90.9385C183.109 96.1305 171.725 37.3567 171.725 37.3567Z" fill="#FFD395"/>
<path d="M190.361 41.2767C190.361 41.2767 208.062 13.1617 227.321 24.4285C246.581 35.6952 211.726 66.5618 203.929 69.2876C196.131 72.0135 190.361 41.2767 190.361 41.2767Z" fill="#472628"/>
<path d="M13.1782 125.829C11.901 125.464 10.718 124.828 9.71053 123.963C8.70304 123.099 7.89493 122.026 7.34174 120.82C6.78855 119.614 6.50339 118.302 6.50588 116.976C6.50836 115.649 6.79847 114.339 7.35618 113.134C10.839 103.088 14.8417 103.607 21.1836 104.438C27.5255 105.268 35.4008 89.1213 35.4008 89.1213C28.0712 108.462 26.3819 106.722 22.0153 110.824C17.6488 114.926 13.1782 125.829 13.1782 125.829Z" fill="#472628"/>
<path d="M92.3482 174.297C92.3482 174.297 82.5234 214.872 74.9079 218.429C67.2925 221.985 65.3431 217.183 65.3431 217.183L53.8809 202.853C57.5196 203.813 66.8765 211.108 66.8765 211.108C65.446 207.802 63.7055 204.638 61.6783 201.659C61.6783 201.659 72.7247 207.266 73.8423 209.628C69.9177 200.257 75.0639 174.764 92.3482 174.297Z" fill="#CD3439"/>
<path d="M73.9457 209.628C72.0743 206.02 61.7818 201.659 61.7818 201.659C63.809 204.638 65.5495 207.802 66.98 211.108C66.98 211.108 57.5972 203.813 53.9844 202.853L65.4465 216.949C65.4465 216.949 67.3698 221.648 75.0113 218.195C76.5793 217.204 77.8466 215.804 78.6761 214.145C78.6761 214.145 74.0757 209.888 73.9457 209.628Z" fill="white"/>
<path d="M58.9477 72.1693C59.4155 72.1693 77.1417 73.7789 82.106 68.2234C87.0704 62.6679 85.3289 52.2319 94.1919 56.4375C103.055 60.643 102.743 66.4581 112.724 64.4332C96.843 71.2607 95.9854 77.6729 87.3043 75.9076C78.6232 74.1423 61.9107 75.025 58.168 72.1174" fill="#472628"/>
<path d="M99.7033 67.8599C99.5439 69.0766 99.0268 70.2188 98.2175 71.142C97.4082 72.0652 96.343 72.7279 95.1566 73.0464C93.9701 73.365 92.7157 73.325 91.552 72.9315C90.3883 72.538 89.3676 71.8087 88.6189 70.8358C87.8702 69.863 87.4271 68.6902 87.3457 67.4658C87.2643 66.2414 87.5482 65.0204 88.1616 63.9571C88.7749 62.8939 89.6901 62.0363 90.7915 61.4925C91.8928 60.9488 93.1309 60.7435 94.3491 60.9026C95.1581 61.0082 95.9383 61.2719 96.6452 61.6787C97.3521 62.0855 97.9719 62.6274 98.4691 63.2735C98.9663 63.9196 99.3311 64.6572 99.5429 65.4441C99.7547 66.231 99.8092 67.0519 99.7033 67.8599Z" fill="#D56D20"/>
<path d="M95.3623 67.3406C95.3575 67.5996 95.2981 67.8547 95.188 68.0892C95.0778 68.3237 94.9195 68.5324 94.7232 68.7016C94.5269 68.8709 94.2971 68.9969 94.0488 69.0715C93.8005 69.1461 93.5391 69.1676 93.2819 69.1346C93.0247 69.1016 92.7774 69.0147 92.556 68.8798C92.3346 68.7449 92.1443 68.5649 91.9973 68.3515C91.8502 68.1382 91.7498 67.8963 91.7027 67.6416C91.6555 67.3869 91.6625 67.1251 91.7235 66.8734C91.8303 66.4321 92.0965 66.0457 92.471 65.7882C92.8454 65.5308 93.3018 65.4204 93.7526 65.4783C94.2035 65.5362 94.6171 65.7583 94.9142 66.102C95.2112 66.4456 95.3708 66.8867 95.3623 67.3406Z" fill="white"/>
</g>
<defs>
<clipPath id="clip0_114_493">
<rect width="546" height="584" fill="white"/>
</clipPath>
</defs>
</svg>
